<svg width="48" height="48" viewBox="0 0 48 48" fill="none" xmlns="http://www.w3.org/2000/svg">
<path fill-rule="evenodd" clip-rule="evenodd" d="M24 0C10.7452 0 0 10.7452 0 24C0 37.2548 10.7452 48 24 48C37.2548 48 48 37.2548 48 24C48 10.7452 37.2548 0 24 0ZM24 45.6C12.0707 45.6 2.4 35.9293 2.4 24C2.4 12.0707 12.0707 2.4 24 2.4C35.9293 2.4 45.6 12.0707 45.6 24C45.6 35.9293 35.9293 45.6 24 45.6Z" fill="black"/>
<path fill-rule="evenodd" clip-rule="evenodd" d="M29.7474 15.0797C29.7474 13.8681 30.5862 13.1536 31.6735 13.1536C32.823 13.1536 33.5997 13.9302 33.5997 15.0797C33.5997 16.3224 32.7919 17.0059 31.6424 17.0059C30.524 17.0059 29.7474 16.3224 29.7474 15.0797ZM14.5344 34.2491L16.0256 28.6038H16.0258H22.0527L23.6061 34.28C23.637 34.4043 23.7304 34.4406 23.8855 34.4406H26.9922C27.1475 34.4406 27.1786 34.3472 27.1475 34.1921L21.1518 13.8687C21.1205 13.7133 21.0584 13.6823 20.9341 13.6823H16.9888C16.8954 13.6823 16.8333 13.7444 16.8333 13.8687C16.8022 14.8007 16.7401 15.0948 16.6469 15.4365L11.3034 34.161C11.2725 34.3785 11.3034 34.4406 11.4894 34.4406H14.2549C14.4412 34.4406 14.5035 34.4043 14.5344 34.2491ZM20.6817 23.2598L20.6817 23.26C20.9151 24.1491 21.1249 24.9483 21.2761 25.5442H16.8335L16.884 25.3541C17.6526 22.464 18.6128 18.853 19.0082 16.6948H19.0392C19.3717 18.269 20.0999 21.0434 20.6817 23.2597L20.6817 23.2598ZM30.1757 19.1425C30.0204 19.1425 29.9582 19.2046 29.9582 19.36V34.1921C29.9582 34.3472 30.0204 34.4406 30.2068 34.4406H33.1299C33.3163 34.4406 33.3474 34.3785 33.3474 34.2232V19.36C33.3474 19.2046 33.2852 19.1425 33.1299 19.1425H30.1757Z" fill="black"/>
</svg>
