<svg width="48" height="48" viewBox="0 0 48 48" fill="none" xmlns="http://www.w3.org/2000/svg">
<path fill-rule="evenodd" clip-rule="evenodd" d="M24 0C10.7452 0 0 10.7452 0 24C0 37.2548 10.7452 48 24 48C37.2548 48 48 37.2548 48 24C48 10.7452 37.2548 0 24 0ZM10.4 30.4318C10.9562 22.3585 16.8351 12.8 24.339 12.8C31.8426 12.8 37.7207 22.3585 38.2769 30.4318C35.9233 34.5235 30.2445 36.0615 24.339 36.0615C18.4332 36.0615 12.7547 34.5235 10.4 30.4318Z" fill="black"/>
<path d="M36.4513 28.569C36.4513 28.569 34.7889 24.9846 33.0991 22.8933C31.4082 20.8012 29.3432 18.5231 28.1222 18.5231C26.902 18.5231 23.4907 24.5467 21.9258 24.5467C20.3605 24.5467 19.547 21.8161 17.6226 21.8161C15.6974 21.8161 12.6388 28.4007 12.6388 28.4007L12.4316 29.517C12.4316 29.517 13.4942 34.2154 24.6108 34.2154C35.7277 34.2154 36.6163 29.5941 36.6163 29.5941L36.4513 28.569" fill="black"/>
</svg>
