<svg width="48" height="48" viewBox="0 0 48 48" fill="none" xmlns="http://www.w3.org/2000/svg">
<path fill-rule="evenodd" clip-rule="evenodd" d="M0 24C0 37.2548 10.7452 48 24 48C37.2548 48 48 37.2548 48 24C48 10.7452 37.2548 0 24 0C10.7452 0 0 10.7452 0 24ZM37.1253 14.7527C37.1253 14.7527 37.5999 21.3059 37.5999 22.4083C37.5999 22.4447 37.5999 22.4808 37.6 22.5167C37.601 24.0427 37.6017 25.0941 35.6615 27.0349L35.6347 27.0617C34.5163 28.1801 23.996 38.7004 23.5498 39.1468C23.0998 39.5968 21.3242 41.1225 18.7262 38.5245L14.6179 34.4146L14.3858 34.1825L10.2775 30.0742C7.68115 27.478 9.20335 25.7024 9.65338 25.2524C9.87274 25.0338 12.5086 22.398 15.2726 19.634C18.1997 16.7069 21.2705 13.6362 21.7669 13.1407C23.7075 11.1984 24.7607 11.1991 26.287 11.2C26.3216 11.2001 26.3565 11.2001 26.3917 11.2001C27.4957 11.2001 34.0491 11.6746 34.0491 11.6746C35.0878 11.6746 35.7842 12.0614 36.2569 12.5431C36.7404 13.0176 37.1253 13.7138 37.1253 14.7527Z" fill="black"/>
<path d="M26.167 25.9425L29.8323 27.6832L28.4843 30.0953L25.0941 27.8814C25.0154 27.8296 24.9262 27.8028 24.8368 27.8028C24.7581 27.8028 24.6799 27.8225 24.6083 27.8634C24.4565 27.951 24.3689 28.117 24.3815 28.2917L24.6619 32.3017H21.9483H21.9357C21.9463 32.2676 22.1589 28.2899 22.1589 28.2899C22.1715 28.1152 22.0839 27.949 21.9321 27.8616C21.7784 27.774 21.5911 27.7813 21.4466 27.8794L18.1508 30.1182L16.6797 27.7779L20.377 25.9423C20.536 25.8675 20.6377 25.7065 20.6377 25.5299C20.6377 25.3532 20.536 25.1924 20.377 25.1176L16.7101 23.3769L18.058 20.9652L21.4466 23.1807C21.5911 23.2771 21.7784 23.2877 21.9321 23.1985C22.0839 23.1109 22.1713 22.9451 22.1589 22.7699L21.8804 18.76H24.5958L24.3815 22.7699C24.3689 22.9449 24.4565 23.1109 24.6083 23.1985C24.7618 23.2877 24.9511 23.2771 25.0941 23.1807L28.3898 20.9418L29.8609 23.2826L26.167 25.1178C26.0081 25.1928 25.9063 25.3534 25.9063 25.5301C25.9063 25.7069 26.0081 25.8677 26.167 25.9425V25.9425Z" fill="black"/>
<path d="M32.4364 18.2526C31.4766 18.2526 30.7012 17.4756 30.7012 16.5175C30.7012 15.5595 31.4764 14.7843 32.4364 14.7843C33.3908 14.7843 34.166 15.5595 34.166 16.5175C34.166 17.4756 33.3908 18.2526 32.4364 18.2526V18.2526Z" fill="black"/>
</svg>
