<svg width="48" height="48" viewBox="0 0 48 48" fill="none" xmlns="http://www.w3.org/2000/svg">
<path d="M28.0402 44.3332C29.5299 44.918 32.4946 46.0179 33.1383 45.7778C34.0065 45.4403 33.7891 38.3854 32.8148 38.1605C32.0347 37.9846 29.0477 40.1243 27.8706 40.9976C27.8248 40.8008 27.7812 40.6466 27.7462 40.5561C27.6566 40.3302 26.9651 40.2718 26.1808 40.3499C24.8629 37.0882 23.8894 33.356 24.4851 30.7104L24.4937 30.7165C25.3171 31.2989 30.7992 33.1797 33.5191 33.1276C36.2422 33.0736 40.714 31.3778 40.2229 30.019C39.7342 28.6597 35.2928 31.2182 30.6603 30.7817C27.2297 30.4574 26.6242 28.8944 27.3838 27.7529C28.3392 26.3181 30.0797 28.0251 32.95 27.1517C35.8249 26.2805 39.8454 24.7213 41.3371 23.8722C44.7862 21.9169 39.8938 21.1058 38.7382 21.6484C37.6432 22.1628 33.831 23.1412 32.0628 23.5752C33.0572 20.0203 30.6722 13.8358 28.012 11.1295C27.1448 10.2476 25.8114 9.69237 24.3091 9.39948C23.7312 8.59312 22.7994 7.82196 21.4798 7.10806C19.0168 5.7783 15.9694 5.23871 13.1359 5.73928C12.746 5.79694 12.5311 5.94063 12.2283 5.99098C12.5693 6.02175 13.8617 6.63531 14.6736 6.97258C14.2771 7.12592 13.7354 7.21755 13.3126 7.39359C13.1394 7.42289 12.9738 7.46741 12.8242 7.53565C12.4249 7.71964 12.1263 8.41664 12.1291 8.7466C14.0676 8.54746 16.9363 8.68353 19.0328 9.31936C17.549 9.53161 16.1862 9.92417 15.2011 10.4527C15.1557 10.477 15.1107 10.5016 15.0662 10.5266C14.9482 10.5728 14.84 10.6216 14.7432 10.6733C11.5826 12.3668 10.1865 16.3221 11.0186 21.0617C11.778 25.3748 14.8912 40.1135 16.3165 47.0445C7.13005 43.7583 0.544922 34.8566 0.544922 24.3909C0.544922 11.1317 11.1144 0.383057 24.1526 0.383057C37.1908 0.383057 47.7603 11.1317 47.7603 24.3909C47.7603 35.6805 40.0976 45.1501 29.7728 47.7142C29.1404 46.4741 28.5417 45.3168 28.0402 44.3332Z" fill="black"/>
<path fill-rule="evenodd" clip-rule="evenodd" d="M28.3537 14.6938C29.0885 14.6845 30.0351 15.2346 30.0351 15.2346C30.0351 15.2346 29.6636 14.2766 28.6168 14.0996C26.6862 13.7753 26.4328 15.3923 26.4328 15.3923C26.4328 15.3923 26.8441 14.714 28.3537 14.6938ZM17.9465 15.3566C17.9465 15.3566 16.6293 14.7506 15.3485 15.5692C14.0701 16.3868 14.1171 17.2228 14.1171 17.2228C14.1171 17.2228 13.4373 15.6819 15.2493 14.9267C17.0631 14.1714 17.9465 15.3566 17.9465 15.3566ZM27.6301 19.4527C27.6301 18.6111 28.3044 17.9273 29.131 17.9273C29.9622 17.9273 30.6337 18.6111 30.6337 19.4527C30.6337 20.298 29.9622 20.9819 29.131 20.9819C28.3044 20.9819 27.6301 20.298 27.6301 19.4527ZM17.4499 18.7294C16.4825 18.7294 15.7011 19.5245 15.7011 20.5069C15.7011 21.4897 16.4825 22.2844 17.4499 22.2839C18.4145 22.2839 19.1968 21.4897 19.1968 20.5069C19.1968 19.5245 18.4145 18.7294 17.4499 18.7294ZM18.2239 20.3764C17.9756 20.3769 17.7716 20.1694 17.7716 19.9146C17.7716 19.6588 17.9751 19.4532 18.2239 19.4532C18.4745 19.4532 18.6781 19.6588 18.6781 19.9146C18.6781 20.1694 18.4745 20.3764 18.2239 20.3764ZM29.7974 19.3401C29.5856 19.3401 29.4107 19.165 29.4107 18.9449C29.4107 18.7275 29.5856 18.5492 29.7974 18.5492C30.0185 18.5492 30.1879 18.7275 30.1879 18.9449C30.1879 19.165 30.0185 19.3401 29.7974 19.3401Z" fill="black"/>
</svg>
