<svg width="48" height="48" viewBox="0 0 48 48" fill="none" xmlns="http://www.w3.org/2000/svg">
<path fill-rule="evenodd" clip-rule="evenodd" d="M0 24C0 10.7452 10.7452 0 24 0C37.2548 0 48 10.7452 48 24C48 37.2548 37.2548 48 24 48C10.7452 48 0 37.2548 0 24ZM16.5853 17.3752C16.046 17.3752 15.5607 16.881 15.5607 16.3318C15.5607 15.0687 18.6883 14.1351 22.2472 14.1351C22.5708 14.1351 22.7865 14.1351 22.7865 13.8606C22.7865 13.6448 22.581 13.4919 22.3494 13.3195C22.0505 13.0969 21.708 12.842 21.708 12.3778C21.708 11.4992 22.7325 10.95 24.0267 10.95C25.3209 10.95 26.3454 11.4992 26.3454 12.3778C26.3454 12.8313 26.0186 13.0684 25.7248 13.2816C25.4848 13.4556 25.267 13.6137 25.267 13.8606C25.267 14.0253 25.4287 14.1351 25.8062 14.1351C29.3651 14.1351 32.5466 15.0138 32.5466 16.3318C32.5466 16.881 32.1152 17.3752 31.5221 17.3752H16.5853ZM34.2722 26.052C34.4879 24.6791 34.0026 23.1963 32.7084 22.3726C31.9535 21.8783 31.7917 20.9448 32.7084 20.5604C34.0026 20.0661 33.733 18.4735 32.4388 18.4735H30.174C29.2573 18.4735 27.8553 19.3522 27.8553 21.6038C27.8553 22.4937 28.1493 23.1965 28.457 23.9321C28.7949 24.74 29.1495 25.5875 29.1495 26.7659C29.1495 28.9626 28.2327 29.5666 26.669 29.4019C25.7523 29.2921 24.9973 28.3036 24.9973 27.37C24.9973 26.3909 25.2903 25.9168 25.6084 25.402C25.9862 24.7907 26.3993 24.1221 26.3993 22.4824C26.3993 19.462 24.8895 18.5285 23.6492 18.5285H15.7764C14.4822 18.5285 14.2126 20.121 15.5068 20.6153C16.4235 20.9448 16.2617 21.8783 15.5068 22.4275C14.2126 23.2513 13.6734 24.734 13.8891 26.052L15.3989 34.3444C15.7225 35.9918 17.1245 37.2 18.7961 37.2H24.0806H29.3651C31.0368 37.2 32.4388 35.9918 32.7623 34.3444L34.2722 26.052Z" fill="black"/>
</svg>
