<svg width="48" height="48" viewBox="0 0 48 48" fill="none" xmlns="http://www.w3.org/2000/svg">
<path fill-rule="evenodd" clip-rule="evenodd" d="M24 0C10.7452 0 0 10.7452 0 24C0 37.2548 10.7452 48 24 48C37.2548 48 48 37.2548 48 24C48 10.7452 37.2548 0 24 0ZM23.41 12H34.9367C35.489 12 35.9367 12.4477 35.9367 13V24.4533C33.0655 24.4515 30.7385 22.1245 30.7367 19.2533V17.2033H28.6133C27.2333 17.2033 25.9098 16.6551 24.934 15.6793C23.9582 14.7035 23.41 13.38 23.41 12ZM29.2333 17.7433H17.7067C17.7085 20.6145 20.0355 22.9415 22.9067 22.9433H25.03V25C25.0337 27.8711 27.3622 30.1967 30.2333 30.1967V18.7433C30.2333 18.191 29.7856 17.7433 29.2333 17.7433ZM12 23.4833H23.5267C24.079 23.4833 24.5267 23.931 24.5267 24.4833V35.9367C21.6582 35.9312 19.3352 33.6052 19.3333 30.7367V28.6867H17.2033C14.3296 28.6867 12 26.3571 12 23.4833Z" fill="black"/>
</svg>
