<svg width="48" height="48" viewBox="0 0 48 48" fill="none" xmlns="http://www.w3.org/2000/svg">
<path fill-rule="evenodd" clip-rule="evenodd" d="M0 24C0 37.2548 10.7452 48 24 48C37.2548 48 48 37.2548 48 24C48 10.7452 37.2548 0 24 0C10.7452 0 0 10.7452 0 24ZM21.6665 24.7765C22.2356 21.7682 22.7434 19.0839 21.818 19.0739C19.4669 19.0488 16.5623 30.9178 16.9899 36.0983C17.2199 38.8839 12.8469 39.479 12.8029 35.9851C12.6647 25.0333 17.5437 12.7678 22.4722 13.0379C25.6912 13.2141 25.3581 18.0147 25.3581 18.0147C25.3581 18.0147 28.5574 9.5684 32.6992 9.60009C33.8822 9.60944 35.0648 10.5658 35.2863 12.5212C35.501 14.4157 34.8127 16.6406 34.0594 19.0754C33.0358 22.3842 31.8922 26.0807 32.7324 29.8619C33.1733 31.8451 28.8348 33.0054 28.3567 29.6606C27.9874 27.0758 28.7666 23.7489 29.3837 21.1143C29.9736 18.5959 30.4153 16.7101 29.5638 16.7101C27.0809 16.7101 24.6326 28.1623 25.0813 31.8171C25.3451 33.9669 21.1897 35.0421 20.8752 31.3077C20.7384 29.6828 21.2212 27.1305 21.6665 24.7765Z" fill="black"/>
</svg>
