<svg width="48" height="48" viewBox="0 0 48 48" fill="none" xmlns="http://www.w3.org/2000/svg">
<path fill-rule="evenodd" clip-rule="evenodd" d="M0 24C0 10.7452 10.7452 0 24 0C37.2548 0 48 10.7452 48 24C48 37.2548 37.2548 48 24 48C10.7452 48 0 37.2548 0 24ZM38.4 22.6604C38.4 16.7734 32.491 12 25.2004 12C17.9106 12 12 16.7734 12 22.6604C12 28.5474 17.9106 33.3208 25.2004 33.3208C25.8921 33.3208 26.5659 33.2641 27.2293 33.1815C28.426 35.2045 30.7231 36.6251 33.4073 36.8C32.71 35.8484 32.3012 34.7113 32.3012 33.4876C32.3012 32.7336 32.4353 32.0809 32.7157 31.4176C36.1489 29.4933 38.4 26.2902 38.4 22.6604ZM11.5486 22.424C11.5242 22.6839 11.4998 22.9439 11.4998 23.2077C11.4998 28.7034 16.6144 33.2277 23.2 33.8457C22.2899 34.068 21.3279 34.1901 20.3303 34.1901C19.5717 34.1901 18.8366 34.1144 18.1267 33.9849C17.1582 35.1231 15.6735 35.8893 13.9862 36C14.5113 35.2819 14.8193 34.4246 14.8193 33.5021C14.8193 33.2546 14.7901 33.0266 14.752 32.8011C12.1246 31.3543 10.4 28.9167 10.4 26.1517C10.4 24.7961 10.8182 23.5211 11.5508 22.4L11.5486 22.424Z" fill="black"/>
<path d="M25.7243 19.2H25.6637H23.5695H22.0321H19.9378H18.4004V20.7752V26.4H19.9378V20.7752H21.1826C21.6368 20.7752 21.9994 21.144 22.0235 21.6056L22.0321 21.6504V26.4H23.5695V20.7752H24.8142C25.2685 20.7752 25.6311 21.144 25.6552 21.6056L25.6637 21.6504V26.4H27.2004V20.7176C27.1981 19.8792 26.5388 19.2 25.7243 19.2" fill="black"/>
<path d="M31.1996 19.7657C31.1996 20.3378 30.8416 20.8 30.3996 20.8C29.9576 20.8 29.5996 20.3378 29.5996 19.7657V19.4343C29.5996 18.8632 29.9576 18.4 30.3996 18.4C30.8416 18.4 31.1996 18.8632 31.1996 19.4343V19.7657Z" fill="black"/>
<path d="M29.5996 26.4H31.1996V21.6H29.5996V26.4Z" fill="black"/>
</svg>
