<svg width="48" height="48" viewBox="0 0 48 48" fill="none" xmlns="http://www.w3.org/2000/svg">
<path fill-rule="evenodd" clip-rule="evenodd" d="M48 24C48 37.2548 37.2548 48 24 48C10.7452 48 0 37.2548 0 24C0 10.7452 10.7452 0 24 0C37.2548 0 48 10.7452 48 24ZM28.4602 9.06842L11.8104 10.2936C10.4679 10.4098 10 11.285 10 12.3342V30.5316C10 31.3492 10.2916 32.048 10.993 32.982L14.9069 38.0563C15.5498 38.8734 16.134 39.0482 17.3616 38.9897L36.6969 37.823C38.3322 37.7069 38.8 36.9481 38.8 35.665V15.1925C38.8 14.5292 38.5374 14.3376 37.7632 13.7728C37.7206 13.7418 37.6765 13.7096 37.6307 13.6761L32.3159 9.94338C31.0308 9.01056 30.5048 8.89318 28.4602 9.06842Z" fill="black"/>
<path fill-rule="evenodd" clip-rule="evenodd" d="M14.966 14.2596C15.8625 14.9873 16.2212 14.9631 17.7998 14.8566L18.0036 14.8429L34.5345 13.851C34.8852 13.851 34.5936 13.5015 34.4767 13.4434L31.7312 11.4601C31.2052 11.0521 30.5043 10.5847 29.1611 10.7016L13.1542 11.8682C12.5704 11.9261 12.4538 12.2177 12.6863 12.4515L14.966 14.2596ZM15.9585 18.1092V35.4896C15.9585 36.4238 16.4257 36.7732 17.4771 36.7154L35.6445 35.665C36.6964 35.6072 36.8136 34.9647 36.8136 34.2059V16.9421C36.8136 16.1845 36.522 15.7759 35.878 15.8343L16.8928 16.9421C16.1922 17.0009 15.9585 17.3511 15.9585 18.1092ZM33.3666 20.151C33.8934 20.0919 34.0099 19.567 33.8934 19.0415L29.8614 19.276C29.2772 19.3339 28.8105 19.8003 28.9272 20.4427L30.4464 20.6169V28.6661L24.4877 19.5672L20.1646 19.8584C19.3461 19.9172 19.0545 20.6748 19.1716 21.2002L20.6317 21.3171V32.8074L19.5801 33.0986C19.1713 33.2154 19.0543 33.7982 19.1713 34.0318L23.2012 33.7982C24.6629 33.7982 24.6629 32.7488 24.6629 32.7488L22.8511 32.3403V23.6499L28.5768 32.6319C29.2772 33.5063 29.5114 33.7982 30.4464 33.7982C31.0304 33.7982 31.7312 33.5648 32.4912 33.1567V20.3253L33.3666 20.151Z" fill="black"/>
</svg>
