<svg width="48" height="48" viewBox="0 0 48 48" fill="none" xmlns="http://www.w3.org/2000/svg">
<path d="M24.0197 0C10.7545 0 0 10.7368 0 23.9803C0 34.1447 6.32618 42.8289 15.2619 46.3224C15.0444 44.4276 14.8665 41.5066 15.341 39.4342C15.7759 37.5592 18.1482 27.5132 18.1482 27.5132C18.1482 27.5132 17.4365 26.0724 17.4365 23.9605C17.4365 20.625 19.3739 18.1382 21.7858 18.1382C23.8418 18.1382 24.8303 19.6776 24.8303 21.5132C24.8303 23.5658 23.5255 26.6447 22.8336 29.5066C22.2602 31.8947 24.0395 33.8487 26.392 33.8487C30.6622 33.8487 33.9439 29.3487 33.9439 22.875C33.9439 17.1316 29.8121 13.125 23.9011 13.125C17.0609 13.125 13.0477 18.2368 13.0477 23.5263C13.0477 25.5789 13.8385 27.7895 14.827 28.9934C15.0247 29.2303 15.0444 29.4474 14.9851 29.6842C14.8072 30.4342 14.3921 32.0724 14.313 32.4079C14.2141 32.8421 13.9571 32.9408 13.5024 32.7237C10.4975 31.3224 8.61942 26.9605 8.61942 23.4276C8.61942 15.8684 14.1153 8.92105 24.4942 8.92105C32.8171 8.92105 39.3014 14.8421 39.3014 22.7763C39.3014 31.0461 34.0823 37.6974 26.8467 37.6974C24.4151 37.6974 22.1219 36.4342 21.3509 34.9342C21.3509 34.9342 20.1449 39.5132 19.8484 40.6382C19.3146 42.7303 17.8517 45.3355 16.8632 46.9342C19.1169 47.625 21.4892 48 23.9802 48C37.2454 48 47.9999 37.2632 47.9999 24.0197C48.0394 10.7368 37.2849 0 24.0197 0Z" fill="black"/>
</svg>
