<svg width="48" height="48" viewBox="0 0 48 48" fill="none" xmlns="http://www.w3.org/2000/svg">
<path fill-rule="evenodd" clip-rule="evenodd" d="M24 0C10.7452 0 0 10.7452 0 24C0 37.2548 10.7452 48 24 48C37.2548 48 48 37.2548 48 24C48 10.7452 37.2548 0 24 0ZM13.3798 12H34.6204C36.706 12 38.4 13.7053 38.4 15.8089V26.3605C38.4 26.5563 38.3846 26.7488 38.3563 26.9368C38.3846 27.2178 38.4 27.5018 38.4 27.7889C38.4 33.8371 31.9529 38.7421 23.9999 38.7421C16.0467 38.7421 9.6 33.8371 9.6 27.7889C9.6 27.5019 9.61403 27.2178 9.64356 26.9368C9.61471 26.7487 9.6 26.5563 9.6 26.3605V15.8088C9.6 13.7059 11.2922 12 13.3798 12Z" fill="black"/>
<path d="M32.8298 22.6077L25.3922 30.0445C25.0144 30.4223 24.518 30.6084 24.0227 30.6042C23.5119 30.6217 22.9959 30.4354 22.605 30.0445L15.1691 22.6077C14.4219 21.8609 14.4237 20.6494 15.1691 19.904C15.9153 19.1569 17.1246 19.1558 17.8728 19.904L23.9993 26.0308L30.1261 19.904C30.8709 19.1569 32.0846 19.1589 32.8298 19.904C33.5771 20.6506 33.5771 21.8597 32.8298 22.6077Z" fill="black"/>
</svg>
