<svg width="48" height="48" viewBox="0 0 48 48" fill="none" xmlns="http://www.w3.org/2000/svg">
<path fill-rule="evenodd" clip-rule="evenodd" d="M24 0C10.7452 0 0 10.7452 0 24C0 37.2548 10.7452 48 24 48C37.2548 48 48 37.2548 48 24C48 10.7452 37.2548 0 24 0ZM14.4352 20.5109C14.4836 20.5509 14.5366 20.5969 14.5919 20.6464C14.4636 20.0131 14.3962 19.358 14.3962 18.6872C14.3962 13.2256 18.857 8.8 24.3578 8.8C29.8618 8.8 34.3218 13.2256 34.3218 18.6872C34.3218 19.6586 34.1806 20.5974 33.9174 21.4844C33.9717 21.4353 34.0256 21.3857 34.0792 21.3357C34.1 21.3165 34.6544 22.0349 34.9032 22.7653C35.1696 23.5477 35.4392 24.3989 35.1936 24.5933L35.1398 24.6357C35.561 25.2645 35.9517 25.9877 36.2723 26.7701C37.4475 29.6365 36.9891 32.6293 36.3475 32.7701C35.8051 32.8896 34.7674 32.0034 33.7526 30.6158C33.5129 32.2529 32.6803 33.7376 31.439 34.9161C33.3976 35.5147 34.7178 36.697 34.5683 37.8735C34.3835 39.3343 31.9995 40.2335 29.2459 39.8839C27.1464 39.6161 25.4368 38.6981 24.8267 37.629C24.6231 37.6398 24.4178 37.6452 24.211 37.6452C24.0914 37.6452 23.9723 37.6434 23.8538 37.6398C23.2422 38.7008 21.4909 39.5934 19.3234 39.8285C16.4826 40.1349 14.0066 39.1973 13.7898 37.7325C13.6152 36.5657 14.9294 35.4166 16.9068 34.8421C15.6555 33.6241 14.8352 32.0895 14.6431 30.4023C13.5003 31.787 12.3367 32.5327 11.8902 32.2954C11.0206 31.8314 10.8102 28.9858 12.2222 26.1698C12.6187 25.3802 13.0832 24.6702 13.5705 24.0692L13.5568 24.0573C13.4816 23.9917 13.5048 23.7821 13.5048 23.7821C13.5048 23.7821 13.6232 23.3229 13.82 22.2229C13.9576 21.4541 14.2696 20.5109 14.4352 20.5109Z" fill="black"/>
<path d="M17.1602 24.6052C16.5666 25.8228 16.2266 27.2068 16.2266 28.6772C16.2266 33.5316 19.8834 37.4668 24.3946 37.4668C28.9058 37.4668 32.5618 33.5316 32.5618 28.6772C32.5618 27.2468 32.2378 25.9004 31.6746 24.7068C27.5178 26.826 19.9066 25.2732 17.1602 24.6052" fill="black"/>
<path fill-rule="evenodd" clip-rule="evenodd" d="M21.723 18.7947C22.8006 18.7947 23.6734 17.7259 23.6734 16.4075C23.6734 15.0891 22.8006 14.0203 21.723 14.0203C20.6462 14.0203 19.7734 15.0891 19.7734 16.4075C19.7734 17.7259 20.6462 18.7947 21.723 18.7947ZM22.1526 14.9095C22.8254 14.9095 23.3718 15.5863 23.3718 16.4207C23.3718 17.2551 22.8254 17.9319 22.1526 17.9319C21.479 17.9319 20.9326 17.2551 20.9326 16.4207C20.9326 15.5863 21.479 14.9095 22.1526 14.9095Z" fill="black"/>
<path fill-rule="evenodd" clip-rule="evenodd" d="M27.3226 18.8081C28.4002 18.8081 29.273 17.7393 29.273 16.4209C29.273 15.1025 28.4002 14.0337 27.3226 14.0337C26.2466 14.0337 25.373 15.1025 25.373 16.4209C25.373 17.7393 26.2466 18.8081 27.3226 18.8081ZM26.4111 16.8095C26.3967 16.8119 26.3831 16.8135 26.3687 16.8135C26.2543 16.8135 26.1535 16.7311 26.1327 16.6151C26.1199 16.5423 26.1135 16.4663 26.1135 16.3887C26.1135 15.7503 26.5663 15.2311 27.1223 15.2311C27.6783 15.2311 28.1311 15.7503 28.1311 16.3887C28.1311 16.4447 28.1279 16.4991 28.1215 16.5527C28.1047 16.6839 27.9831 16.7767 27.8527 16.7607C27.7215 16.7439 27.6287 16.6239 27.6447 16.4927C27.6495 16.4591 27.6519 16.4239 27.6519 16.3887C27.6519 16.0151 27.4143 15.7111 27.1223 15.7111C26.8303 15.7111 26.5927 16.0151 26.5927 16.3887C26.5927 16.4375 26.5975 16.4855 26.6055 16.5311C26.6287 16.6623 26.5415 16.7863 26.4111 16.8095Z" fill="black"/>
<path fill-rule="evenodd" clip-rule="evenodd" d="M31.0881 21.0321C29.7697 20.0913 27.4057 19.4609 24.6993 19.4609C21.9841 19.4609 19.6129 20.0953 18.2969 21.0417C18.6265 21.8185 19.6225 22.4233 20.5993 22.9849C21.7793 23.6633 23.7177 24.1225 24.6929 24.1225C25.5929 24.1225 27.8209 23.5161 29.0241 22.7297C29.1515 22.6467 29.2799 22.565 29.4073 22.4841C30.1264 22.0272 30.8122 21.5914 31.0881 21.0321ZM22.2378 22.7697C20.9066 21.9993 19.5698 20.9577 19.2578 20.6473C19.2578 20.6473 20.757 21.9313 22.1362 22.3145C23.749 22.7625 26.0794 22.5513 26.9626 22.2553C28.5682 21.7161 30.2746 20.5545 30.2746 20.5545C30.2746 20.5545 28.7666 21.7081 27.2114 22.7249C27.1435 22.7692 27.075 22.8152 27.0054 22.862C26.2739 23.3532 25.4172 23.9285 23.7722 23.5721C23.4055 23.493 22.8061 23.1206 22.4495 22.899C22.362 22.8446 22.2891 22.7993 22.2378 22.7697Z" fill="black"/>
<path d="M22.9169 16.0771C22.9169 16.4139 22.6881 16.6875 22.4057 16.6875C22.1233 16.6875 21.8945 16.4139 21.8945 16.0771C21.8945 15.7411 22.1233 15.4683 22.4057 15.4683C22.6881 15.4683 22.9169 15.7411 22.9169 16.0771" fill="black"/>
</svg>
