<svg width="48" height="48" viewBox="0 0 48 48" fill="none" xmlns="http://www.w3.org/2000/svg">
<path d="M0.986659 31.001L10.0526 34.768C10.5085 36.8197 11.9062 38.6194 13.9682 39.4851C17.342 40.9046 21.232 39.2868 22.6354 35.8879C23.0007 34.9994 23.171 34.0676 23.1463 33.1378L31.5156 27.1148C31.5833 27.1169 31.6531 27.1189 31.7208 27.1189C36.7292 27.1189 40.8 23.0072 40.8 17.9578C40.8 12.908 36.7292 8.8 31.7208 8.8C26.7144 8.8 22.6416 12.908 22.6416 17.9578C22.6416 17.9983 22.6416 18.0388 22.6437 18.0768L16.7944 26.6334C15.8469 26.59 14.8961 26.7573 13.9945 27.1313C13.5971 27.2946 13.2247 27.495 12.8753 27.7264L0.0312094 22.4018C0.0312154 22.4018 0.0301588 22.4194 0.0284312 22.4533C0.0189897 22.4374 0.00951262 22.4214 0 22.4055C0.822857 9.89439 11.2414 0 23.9742 0C37.2431 0 48 10.7452 48 24C48 37.2546 37.2431 48 23.9742 48C13.1429 48 3.98567 40.8412 0.986659 31.001Z" fill="black"/>
<path d="M21.2385 35.2968C20.1522 37.923 17.1554 39.1689 14.5504 38.0759C13.3487 37.5717 12.4414 36.6481 11.918 35.5469L14.8736 36.7804C16.7947 37.5862 18.9987 36.6688 19.7973 34.7348C20.5983 32.7988 19.6896 30.5756 17.7695 29.7698L14.7142 28.4949C15.8931 28.0445 17.2334 28.028 18.4856 28.5528C19.748 29.0817 20.7276 30.0776 21.2467 31.3504C21.7658 32.6232 21.7637 34.0282 21.2385 35.2968V35.2968Z" fill="black"/>
<path fill-rule="evenodd" clip-rule="evenodd" d="M25.6719 17.9577C25.6719 21.3232 28.3864 24.0609 31.7206 24.0609C35.0568 24.0609 37.7713 21.3232 37.7713 17.9577C37.7713 14.595 35.0568 11.8564 31.7206 11.8564C28.3864 11.8564 25.6719 14.595 25.6719 17.9577ZM31.7308 22.5319C29.2235 22.5319 27.1882 20.4804 27.1882 17.9484C27.1882 15.4167 29.2235 13.3633 31.7308 13.3633C34.2402 13.3633 36.2756 15.4167 36.2756 17.9484C36.2756 20.4804 34.2402 22.5319 31.7308 22.5319Z" fill="black"/>
</svg>
