<svg width="48" height="48" viewBox="0 0 48 48" fill="none" xmlns="http://www.w3.org/2000/svg">
<path fill-rule="evenodd" clip-rule="evenodd" d="M24 0C10.7452 0 0 10.7452 0 24C0 37.2548 10.7452 48 24 48C37.2548 48 48 37.2548 48 24C48 10.7452 37.2548 0 24 0ZM12.5757 9.6H35.3906C36.1917 9.60147 36.9593 9.91755 37.5239 10.4785C38.0885 11.0394 38.4038 11.799 38.4 12.5897V35.4103C38.4079 37.0506 37.0694 38.3878 35.4075 38.4H12.5925C10.9306 38.3878 9.59214 37.0506 9.60004 35.4103V12.5897C9.59207 10.9559 10.9204 9.62132 12.5757 9.6Z" fill="black"/>
<path fill-rule="evenodd" clip-rule="evenodd" d="M12.094 23.9999C12.0498 30.5282 17.3729 35.8576 23.9881 35.908C30.6065 35.8622 35.9348 30.5314 35.8905 23.9999C35.9348 17.4684 30.6065 12.1376 23.9881 12.0918C17.3729 12.1422 12.0498 17.4717 12.094 23.9999ZM26.8247 19.9999L35.1993 23.9984V24.0014L26.8304 27.9999L27.5032 25.4379H20.5068L21.1796 27.9999L12.7993 24.0014L21.1739 19.9999L20.5011 22.562H27.4975L26.8247 19.9999Z" fill="black"/>
</svg>
