<svg width="48" height="48" viewBox="0 0 48 48" fill="none" xmlns="http://www.w3.org/2000/svg">
<path fill-rule="evenodd" clip-rule="evenodd" d="M24 48C10.7452 48 0 37.2548 0 24C0 10.7452 10.7452 0 24 0C37.2548 0 48 10.7452 48 24C48 37.2548 37.2548 48 24 48ZM27.9401 31.2517C26.7087 31.69 25.3959 31.6568 24.0968 31.6238L24.0967 31.6238C23.7284 31.6145 23.3612 31.6052 22.9973 31.6067C23.667 33.9174 24.531 36.1879 25.8973 38.1838C30.9809 37.2059 35.2741 33.5557 37.3236 28.8472C35.475 28.7267 33.6399 28.4655 31.8382 28.0301C31.4489 28.3623 31.0745 28.7162 30.6997 29.0705L30.6997 29.0706C29.8428 29.8806 28.9839 30.6926 27.9401 31.2517ZM19.3805 37.2997C13.5535 35.4377 9.25363 29.383 9.622 23.2346C9.92339 15.7332 17.0229 9.14268 24.5645 9.62491C32.5883 9.933 39.5137 18.0506 37.9666 26.0744C36.6739 26.061 35.388 25.5855 34.6847 24.4402C33.6647 22.901 32.946 21.2061 32.2269 19.5103C31.6286 18.0994 31.0301 16.6879 30.2575 15.3648C29.0386 15.559 27.8263 15.7935 26.6207 16.0614C26.8751 17.8645 27.6127 19.5051 28.3506 21.1466C28.953 22.4867 29.5557 23.8274 29.8959 25.2573C29.5476 28.0368 26.0514 29.5974 23.6402 28.3047C21.6376 27.5345 20.8138 25.3979 20.1173 23.5494C19.4475 21.6204 18.6906 19.7183 17.6726 17.9434C16.1254 17.9099 14.5314 17.9568 13.1316 18.707C13.7898 22.0788 15.0686 25.2584 16.3478 28.4391C17.5156 31.3427 18.6837 34.2472 19.3805 37.2997Z" fill="black"/>
</svg>
