<svg width="48" height="48" viewBox="0 0 48 48" fill="none" xmlns="http://www.w3.org/2000/svg">
<path fill-rule="evenodd" clip-rule="evenodd" d="M0 24C0 10.7452 10.7452 0 24 0C37.2548 0 48 10.7452 48 24C48 37.2548 37.2548 48 24 48C10.7452 48 0 37.2548 0 24ZM26.4616 8.8C24.2496 8.8 22.4 10.5845 22.4 12.7866C22.4 14.9882 24.2496 16.773 26.4616 16.773C28.672 16.773 30.5505 14.9882 30.5505 12.7866C30.5505 10.5845 28.672 8.8 26.4616 8.8ZM31.8298 19.4636C33.0014 21.2406 33.9279 22.9576 33.9279 22.9576C33.9279 22.9576 30.2714 26.5406 25.9432 25.4157C25.9324 25.6227 25.9226 25.7772 25.9131 25.9261C25.8972 26.1778 25.8822 26.4135 25.8648 26.8595C28.8104 28.2725 31.9032 30.8673 33.1635 33.8674C32.9941 34.0028 32.8402 34.1259 32.6981 34.2394C31.4849 35.2089 31.1382 35.486 29.4383 36.8961C27.6092 33.422 25.3938 31.5073 22.3648 30.7409C20.5865 33.0019 17.6923 35.6419 13.165 36.8612C12.1564 34.7543 11.881 34.1589 11.2 32.5693C14.8204 31.7412 16.1398 30.6123 17.9125 27.2625C17.7856 23.1971 18.844 19.1995 21.4869 17.6C22.2932 17.8608 23.4089 18.429 24.3239 18.895C24.9679 19.223 25.5125 19.5004 25.7796 19.5841C25.6878 19.9965 25.989 20.4655 27.0981 20.705C27.9393 20.8872 29.9189 21.1734 31.8298 19.4636Z" fill="black"/>
</svg>
