<svg width="48" height="48" viewBox="0 0 48 48" fill="none" xmlns="http://www.w3.org/2000/svg">
<path fill-rule="evenodd" clip-rule="evenodd" d="M24 0C10.7452 0 0 10.7452 0 24C0 37.2548 10.7452 48 24 48C37.2548 48 48 37.2548 48 24C48 10.7452 37.2548 0 24 0ZM34.9622 26.996C35.2554 27.6503 35.3849 27.9502 35.5315 28.3311C35.8278 29.0984 35.991 29.8668 35.9991 30.6161C36.0124 31.3859 35.8727 32.159 35.5914 32.8762C35.1582 33.9845 34.3873 34.9497 33.4111 35.6044C32.3023 36.3534 30.9321 36.6916 29.6051 36.5504C28.4637 36.4406 27.3323 35.9972 26.2773 35.2903C25.5084 34.7794 24.0177 33.3374 24.0177 33.3374C24.0177 33.3374 22.4793 34.8233 21.5032 35.4334C20.4364 36.1067 19.285 36.5093 18.1385 36.5712C17.2312 36.6258 16.3096 36.4594 15.4735 36.0912C14.4004 35.6203 13.4784 34.8065 12.8637 33.7924C12.1498 32.6239 11.8607 31.2025 12.0631 29.8551C12.1587 29.1567 12.3773 28.499 12.7634 27.6197C13.3888 26.2017 14.0389 24.7824 14.9593 22.8114C16.2178 20.1278 17.5072 17.4809 18.8282 14.8701L18.9682 14.5936L19.0044 14.522C19.3111 13.9154 19.4719 13.6043 19.6674 13.2475C20.0158 12.6151 20.3648 12.1233 20.781 11.7219C21.5757 10.9329 22.6563 10.4567 23.7975 10.4L24.2704 10.401C25.3569 10.4699 26.4027 10.9279 27.1754 11.6781C27.6145 12.0927 27.978 12.5994 28.3347 13.2477C28.5295 13.6043 28.6792 13.8943 29.0076 14.5432C29.096 14.718 29.1361 14.7969 29.1863 14.8956C31.1715 18.8213 33.0642 22.7815 34.8637 26.7761L34.9622 26.996Z" fill="white"/>
<path d="M31.7987 33.6222C31.166 33.9826 30.4018 34.1127 29.6724 33.9885C28.8036 33.8508 27.9492 33.4018 27.0603 32.6725C26.5381 32.2451 25.7395 31.373 25.7395 31.373C25.7395 31.373 27.2237 29.2628 27.7243 28.2379C28.3456 26.9616 28.6961 25.7698 28.733 24.5862C28.7578 23.6974 28.5832 22.8409 28.2043 22.1056C27.6928 21.0924 26.7738 20.2948 25.6917 19.9069C24.712 19.5505 23.6199 19.5164 22.6125 19.8089C21.6439 20.088 20.7781 20.68 20.1863 21.4822C19.671 22.1742 19.3618 23.0342 19.2909 23.9317C19.1964 25.0528 19.4288 26.2192 19.9289 27.454C20.5206 28.8903 22.2798 31.3906 22.2798 31.3906C22.2798 31.3906 21.5468 32.1518 21.1386 32.5088C20.2523 33.2725 19.4121 33.7578 18.5486 33.948C17.7893 34.1216 16.9897 34.0291 16.3245 33.6864C15.532 33.2841 14.921 32.5234 14.6917 31.6536C14.5193 31.0248 14.5485 30.328 14.7662 29.6745C14.8942 29.292 15.0233 28.9836 15.3275 28.3051C15.3403 28.2766 15.3403 28.2766 15.3531 28.2481C15.4086 28.1242 15.4445 28.0438 15.4812 27.9606C17.2426 24.0492 19.1076 20.1456 21.0727 16.2537C21.1144 16.1712 21.1477 16.1052 21.2227 15.9566C21.5813 15.2459 21.7442 14.9293 21.9518 14.5483C22.2301 14.0441 22.4753 13.7165 22.7709 13.4877C23.1254 13.2054 23.5701 13.0541 24.0084 13.0642C24.4771 13.0589 24.9353 13.2289 25.2898 13.5323C25.6062 13.7999 25.8483 14.1528 26.1718 14.7678C26.637 15.6576 27.0417 16.4604 27.7832 17.952C27.8494 18.0852 27.8494 18.0852 27.9156 18.2184C29.5918 21.5982 31.1799 24.9617 32.6933 28.3379C32.7138 28.385 32.7298 28.4214 32.7684 28.509C32.7826 28.5412 32.7826 28.5412 32.7967 28.5732C33.0812 29.2181 33.1979 29.511 33.2989 29.8742C33.4653 30.4776 33.4665 31.1214 33.2992 31.7052C33.0698 32.5117 32.5167 33.2178 31.7987 33.6222Z" fill="white"/>
<path d="M23.6708 28.8105C23.6484 28.7778 23.6484 28.7778 23.6258 28.7451C23.6127 28.726 23.6127 28.726 23.5996 28.7068C23.1324 28.0089 22.7536 27.3402 22.4574 26.672C22.1753 26.0278 21.9979 25.446 21.9271 24.8832C21.8668 24.362 21.9001 23.9136 22.0423 23.5392C22.177 23.1673 22.4332 22.8462 22.7595 22.6345C23.5754 22.0983 24.7391 22.1673 25.4572 22.7991C25.8004 23.0969 26.0258 23.5536 26.0827 24.0525C26.1543 24.6904 26.0349 25.3859 25.7476 26.1674C25.3674 27.1836 24.0008 29.2804 24.0008 29.2804C24.0008 29.2804 24.012 29.3071 23.6708 28.8105Z" fill="white"/>
</svg>
