<svg width="48" height="48" viewBox="0 0 48 48" fill="none" xmlns="http://www.w3.org/2000/svg">
<path d="M0 24C0 10.7452 10.7452 0 24 0C37.2548 0 48 10.7452 48 24C48 37.2548 37.2548 48 24 48C10.7452 48 0 37.2548 0 24Z" fill="white"/>
<path d="M24.3394 12.8C16.8355 12.8 10.9566 22.3585 10.4004 30.4318C12.7551 34.5236 18.4336 36.0616 24.3394 36.0616C30.2449 36.0616 35.9237 34.5236 38.2773 30.4318C37.7211 22.3585 31.843 12.8 24.3394 12.8" fill="#B6DEFF"/>
<path d="M36.4504 28.569C36.4504 28.569 34.788 24.9846 33.0981 22.8933C31.4072 20.8012 29.3422 18.5231 28.1212 18.5231C26.901 18.5231 23.4897 24.5467 21.9248 24.5467C20.3595 24.5467 19.546 21.8161 17.6216 21.8161C15.6964 21.8161 12.6378 28.4007 12.6378 28.4007L12.4307 29.517C12.4307 29.517 13.4932 34.2154 24.6098 34.2154C35.7268 34.2154 36.6153 29.5941 36.6153 29.5941L36.4504 28.569" fill="#66CC66"/>
<path d="M22.0592 27.0154C20.3304 27.0154 19.444 25.3366 18.9635 24.3003C18.5314 23.3669 18.4566 21.893 17.2305 21.8518C17.351 21.8048 17.4669 21.7771 17.5756 21.7771C19.5028 21.7771 20.3174 24.4752 21.8849 24.4752C23.452 24.4752 26.8681 18.5231 28.0901 18.5231C28.3204 18.5231 28.5798 18.603 28.8612 18.7453C28.653 18.7182 28.386 18.737 28.1805 18.94C27.7853 19.3289 24.1995 27.0154 22.0592 27.0154" fill="#17AD49"/>
</svg>
