<svg width="48" height="48" viewBox="0 0 48 48" fill="none" xmlns="http://www.w3.org/2000/svg">
<path d="M0 24C0 10.7452 10.7452 0 24 0C37.2548 0 48 10.7452 48 24C48 37.2548 37.2548 48 24 48C10.7452 48 0 37.2548 0 24Z" fill="white"/>
<path fill-rule="evenodd" clip-rule="evenodd" d="M12.5472 13.9577C12.6919 13.7899 12.9033 13.6946 13.1249 13.6975L35.0137 13.7012C35.2352 13.6983 35.4467 13.7936 35.5914 13.9614C35.7361 14.1293 35.7991 14.3525 35.7637 14.5712L32.5799 34.1162C32.5205 34.483 32.2015 34.751 31.8299 34.7462H16.5562C16.0611 34.7421 15.6405 34.3832 15.5587 33.895L12.3749 14.5675C12.3394 14.3487 12.4025 14.1255 12.5472 13.9577ZM21.6562 27.6662H26.5312L27.7124 20.77H20.3362L21.6562 27.6662Z" fill="#2684FF"/>
<path d="M34.7516 20.7699H27.7129L26.5316 27.6661H21.6566L15.9004 34.4986C16.0828 34.6564 16.3155 34.7441 16.5566 34.7461H31.8341C32.2057 34.7509 32.5247 34.4829 32.5841 34.1161L34.7516 20.7699Z" fill="url(#paint0_linear)"/>
<defs>
<linearGradient id="paint0_linear" x1="30.2564" y1="18.389" x2="22.1255" y2="29.9338" gradientUnits="userSpaceOnUse">
<stop offset="0.18" stop-color="#0052CC"/>
<stop offset="1" stop-color="#2684FF"/>
</linearGradient>
</defs>
</svg>
