<svg width="48" height="48" viewBox="0 0 48 48" fill="none" xmlns="http://www.w3.org/2000/svg">
<path d="M42.0276 39.8436C45.7453 35.6167 48 30.0717 48 24C48 10.7452 37.2548 0 24 0C10.7452 0 0 10.7452 0 24C0 31.877 3.79475 38.8676 9.65584 43.2436C7.2076 39.9671 5.73866 35.9379 5.73262 31.6405C5.72266 26.5405 7.68496 21.7643 11.2559 18.1833C14.8468 14.5874 19.648 12.6052 24.7878 12.6052V15.9122C20.5345 15.9122 16.5601 17.5508 13.5968 20.5192C10.6483 23.4726 9.03466 27.4171 9.03964 31.6306C9.05458 40.3314 16.6697 47.9615 25.3357 47.9615V47.9635C25.8426 47.9357 26.3452 47.8921 26.8433 47.8333C23.3956 47.3021 20.029 46.2402 17.2544 44.3327C10.3714 39.5963 8.2597 31.1146 12.2341 24.1668C14.1267 20.8598 17.2644 18.4742 21.0694 17.4482C24.9442 16.4023 28.9684 16.9153 32.395 18.8925L30.7415 21.7613C28.0819 20.2273 24.9542 19.8289 21.931 20.6457C18.9826 21.4376 16.5621 23.2753 15.1078 25.8104C12.005 31.2291 13.6984 37.873 19.132 41.6084C23.6576 44.7166 30.3147 45.1889 35.8303 44.8865C36.5155 44.4975 37.1797 44.0758 37.8208 43.6235C32.9721 43.9835 27.321 43.8999 23.0636 42.346C18.6858 40.7522 16.6886 37.749 16.1707 36.8575C16.1657 36.8526 16.1159 36.7629 16.0959 36.7231C16.081 36.6982 16.0611 36.6683 16.0611 36.6683H16.0661C16.0561 36.6484 16.0262 36.5986 16.0262 36.5936L16.0362 36.5836C15.2044 35.0397 14.7911 33.3712 14.7911 31.7177C14.7911 28.1517 16.6388 24.6803 19.9409 22.7728C22.3265 21.3982 25.1056 21.0297 27.7651 21.7419C30.4247 22.459 32.646 24.1624 34.0206 26.548L34.0754 26.6476L31.1568 28.2015C30.2205 26.5829 28.7114 25.4224 26.9085 24.9393C25.1006 24.4562 23.213 24.7052 21.5944 25.6366C19.3532 26.9365 18.0981 29.2922 18.0981 31.7127C18.0981 32.8981 18.4019 34.0984 19.0344 35.199C19.0344 35.204 19.0444 35.219 19.0444 35.219C19.3083 35.6921 20.7477 37.9831 24.1942 39.2382C29.2547 41.0835 36.9312 40.5299 42.0276 39.8436Z" fill="white"/>
</svg>
