<svg width="48" height="48" viewBox="0 0 48 48" fill="none" xmlns="http://www.w3.org/2000/svg">
<path d="M0 24C0 10.7452 10.7452 0 24 0C37.2548 0 48 10.7452 48 24C48 37.2548 37.2548 48 24 48C10.7452 48 0 37.2548 0 24Z" fill="#00853F"/>
<mask id="mask0" mask-type="alpha" maskUnits="userSpaceOnUse" x="0" y="0" width="48" height="48">
<path fill-rule="evenodd" clip-rule="evenodd" d="M0 24C0 10.7452 10.7452 0 24 0C37.2548 0 48 10.7452 48 24C48 37.2548 37.2548 48 24 48C10.7452 48 0 37.2548 0 24Z" fill="white"/>
</mask>
<g mask="url(#mask0)">
<path d="M11.2558 18.1833C7.6848 21.7643 5.7225 26.5405 5.73246 31.6405C5.7474 42.2787 14.7272 51.2734 25.3355 51.2734V47.9614C16.6695 47.9614 9.05442 40.3314 9.03948 31.6305C9.0345 27.4171 10.6482 23.4726 13.5966 20.5191C16.56 17.5508 20.5344 15.9122 24.7877 15.9122V12.6052C19.6478 12.6052 14.8467 14.5874 11.2558 18.1833" fill="#99CEB2"/>
</g>
<mask id="mask1" mask-type="alpha" maskUnits="userSpaceOnUse" x="0" y="0" width="48" height="48">
<path fill-rule="evenodd" clip-rule="evenodd" d="M0 24C0 10.7452 10.7452 0 24 0C37.2548 0 48 10.7452 48 24C48 37.2548 37.2548 48 24 48C10.7452 48 0 37.2548 0 24Z" fill="white"/>
</mask>
<g mask="url(#mask1)">
<path d="M21.0695 17.4483C17.2644 18.4742 14.1268 20.8599 12.2342 24.1669C8.25978 31.1146 10.3715 39.5963 17.2545 44.3327C27.4694 51.3552 45.7078 46.9176 46.4748 46.7283L45.6779 43.5159C45.5036 43.5608 28.1168 47.7792 19.1321 41.6084C13.6984 37.8731 12.0051 31.2292 15.1079 25.8104C16.5622 23.2754 18.9827 21.4376 21.9311 20.6457C24.9543 19.8289 28.082 20.2273 30.7415 21.7613L32.395 18.8926C28.9685 16.9153 24.9443 16.4024 21.0695 17.4483" fill="#CCE7D9"/>
</g>
<mask id="mask2" mask-type="alpha" maskUnits="userSpaceOnUse" x="0" y="0" width="48" height="48">
<path fill-rule="evenodd" clip-rule="evenodd" d="M0 24C0 10.7452 10.7452 0 24 0C37.2548 0 48 10.7452 48 24C48 37.2548 37.2548 48 24 48C10.7452 48 0 37.2548 0 24Z" fill="white"/>
</mask>
<g mask="url(#mask2)">
<path d="M19.9408 22.7728C16.6388 24.6803 14.791 28.1517 14.791 31.7177C14.791 33.3712 15.2044 35.0397 16.0361 36.5836L16.0262 36.5936C16.0262 36.5986 16.0561 36.6484 16.066 36.6683H16.061C16.061 36.6683 16.081 36.6982 16.0959 36.7231C16.1158 36.7629 16.1656 36.8526 16.1706 36.8576V36.8576C16.6886 37.7491 18.6857 40.7523 23.0635 42.346C32.0831 45.6381 47.3582 42.3311 48.0056 42.1866L47.2934 38.9543C47.144 38.9892 32.3073 42.1966 24.1941 39.2382C20.7476 37.9831 19.3083 35.6921 19.0443 35.219V35.219C19.0443 35.219 19.0344 35.204 19.0344 35.1991C18.4018 34.0984 18.098 32.8981 18.098 31.7127C18.098 29.2922 19.3531 26.9365 21.5943 25.6366C23.213 24.7053 25.1006 24.4562 26.9085 24.9393C28.7114 25.4224 30.2205 26.5829 31.1568 28.2015L34.0753 26.6476L34.0205 26.548C32.6459 24.1624 30.4247 22.4591 27.7651 21.7419C25.1055 21.0297 22.3264 21.3982 19.9408 22.7728" fill="white"/>
</g>
</svg>
