<svg width="48" height="48" viewBox="0 0 48 48" fill="none" xmlns="http://www.w3.org/2000/svg">
<path d="M24 48C37.2548 48 48 37.2548 48 24C48 10.7452 37.2548 0 24 0C10.7452 0 0 10.7452 0 24C0 37.2548 10.7452 48 24 48Z" fill="#8BA651"/>
<path fill-rule="evenodd" clip-rule="evenodd" d="M37.5997 22.4082C37.5997 21.3059 37.1251 14.7526 37.1251 14.7526C37.1251 13.7137 36.7402 13.0176 36.2567 12.543C35.784 12.0614 35.0876 11.6746 34.0489 11.6746C34.0489 11.6746 27.4955 11.2 26.3915 11.2L26.2868 11.2C24.7605 11.199 23.7073 11.1983 21.7667 13.1406C21.2704 13.6361 18.2002 16.7062 15.2733 19.6331L15.2704 19.636C12.5071 22.3992 9.87249 25.0338 9.65319 25.2524C9.20316 25.7024 7.68096 27.478 10.2774 30.0742L14.3856 34.1824L14.6177 34.4145L18.726 38.5244C21.324 41.1224 23.0996 39.5968 23.5496 39.1468C23.9996 38.6965 34.698 27.9982 35.6613 27.0348C37.6015 25.094 37.6008 24.0426 37.5998 22.5166L37.5997 22.4082ZM26.1671 25.9424L29.8324 27.6831L28.4843 30.0953L25.0941 27.8814C25.0155 27.8295 24.9263 27.8027 24.8369 27.8027C24.7582 27.8027 24.68 27.8224 24.6084 27.8633C24.4566 27.9509 24.369 28.1169 24.3816 28.2917L24.6619 32.3016H21.9484H21.9358C21.9463 32.2676 22.159 28.2899 22.159 28.2899C22.1715 28.1151 22.084 27.9489 21.9321 27.8615C21.7785 27.774 21.5912 27.7812 21.4466 27.8794L18.1509 30.1182L16.6798 27.7778L20.3771 25.9422C20.536 25.8674 20.6378 25.7064 20.6378 25.5299C20.6378 25.3531 20.536 25.1924 20.3771 25.1176L16.7102 23.3768L18.058 20.9651L21.4466 23.1806C21.5912 23.2771 21.7785 23.2876 21.9321 23.1984C22.084 23.1109 22.1713 22.945 22.159 22.7699L21.8804 18.76H24.5958L24.3816 22.7699C24.369 22.9448 24.4566 23.1109 24.6084 23.1984C24.7619 23.2876 24.9512 23.2771 25.0941 23.1806L28.3899 20.9418L29.861 23.2826L26.1671 25.1178C26.0082 25.1928 25.9064 25.3533 25.9064 25.5301C25.9064 25.7069 26.0082 25.8676 26.1671 25.9424ZM30.7017 16.5175C30.7017 17.4755 31.4771 18.2526 32.4369 18.2526C33.3913 18.2526 34.1665 17.4755 34.1665 16.5175C34.1665 15.5595 33.3913 14.7843 32.4369 14.7843C31.4769 14.7843 30.7017 15.5595 30.7017 16.5175Z" fill="white"/>
</svg>
