<svg width="48" height="48" viewBox="0 0 48 48" fill="none" xmlns="http://www.w3.org/2000/svg">
<path fill-rule="evenodd" clip-rule="evenodd" d="M0 24C0 37.2548 10.7452 48 24 48C37.2548 48 48 37.2548 48 24C48 10.7452 37.2548 0 24 0C10.7452 0 0 10.7452 0 24ZM16.8 16V29.6H9.6V19.9654H14.0308V16H16.8ZM18.4 29.6H21.6V20H18.4V29.6ZM29.6 20V32.8H22.4V30.5735H26.8326V29.4603H22.4V20H29.6ZM18.4 19.2H21.6V16H18.4V19.2ZM38.4 20V32.8H31.2V30.5735H35.6319V29.4603H31.2V20H38.4Z" fill="black"/>
<path fill-rule="evenodd" clip-rule="evenodd" d="M25.1696 27.2351V22.2264H26.8325V27.2351H25.1696ZM33.9685 27.2351V22.2264H35.6318V27.2351H33.9685ZM12.3691 22.2329V27.3338H14.0303V22.2329H12.3691Z" fill="black"/>
</svg>
