<svg width="48" height="48" viewBox="0 0 48 48" fill="none" xmlns="http://www.w3.org/2000/svg">
<path fill-rule="evenodd" clip-rule="evenodd" d="M24 0C10.7452 0 0 10.7452 0 24C0 37.2548 10.7452 48 24 48C37.2548 48 48 37.2548 48 24C48 10.7452 37.2548 0 24 0ZM36.5388 21.4089C36.7119 22.2497 36.8 23.116 36.8 23.9823C36.8 24.8479 36.7119 25.7123 36.5388 26.555C36.37 27.3776 36.12 28.1852 35.7925 28.9572C35.4725 29.7156 35.0756 30.4464 34.6118 31.1279C34.1549 31.8052 33.6286 32.4405 33.0505 33.0197C32.4711 33.5964 31.8335 34.1212 31.1566 34.58C30.4729 35.0406 29.741 35.4369 28.9822 35.7584C28.209 36.0842 27.3995 36.3338 26.5776 36.5023C25.7339 36.6759 24.8663 36.7645 23.9994 36.7645C23.1319 36.7645 22.2643 36.6759 21.4218 36.5023C20.5987 36.3338 19.7892 36.0842 19.0167 35.7584C18.2579 35.4369 17.5253 35.0406 16.8416 34.58C16.1647 34.1213 15.5271 33.5964 14.949 33.0197C14.3702 32.4405 13.8439 31.8052 13.3864 31.1279C12.9251 30.4464 12.5276 29.7155 12.2063 28.9572C11.8788 28.1852 11.6282 27.3775 11.4588 26.555C11.2875 25.7123 11.2 24.8479 11.2 23.9823C11.2 23.116 11.2875 22.2497 11.4588 21.4089C11.6282 20.5863 11.8788 19.7774 12.2064 19.0066C12.5276 18.2477 12.9252 17.5163 13.3864 16.8347C13.844 16.1569 14.3703 15.5227 14.949 14.9429C15.5272 14.3662 16.1647 13.8426 16.8416 13.3845C17.5254 12.922 18.258 12.5257 19.0167 12.2036C19.7893 11.8771 20.5987 11.6269 21.4219 11.4596C22.2644 11.2874 23.1319 11.2 23.9995 11.2C24.8664 11.2 25.7339 11.2874 26.5777 11.4596C27.3996 11.6269 28.209 11.8772 28.9822 12.2036C29.741 12.5256 30.4729 12.922 31.1567 13.3845C31.8336 13.8426 32.4712 14.3662 33.0505 14.9429C33.6287 15.5227 34.155 16.1569 34.6119 16.8347C35.0756 17.5163 35.4725 18.2478 35.7925 19.0066C36.12 19.7774 36.37 20.5863 36.5388 21.4089Z" fill="black"/>
<path fill-rule="evenodd" clip-rule="evenodd" d="M31.2177 15.7914L31.2187 15.7899C29.2942 14.0954 26.7672 13.0675 23.9996 13.0675C23.1114 13.0675 22.2495 13.1749 21.4238 13.3733L21.4416 13.3971C21.7004 13.7433 23.6923 16.4073 25.5103 19.7407C29.6011 18.2092 31.1662 15.8685 31.2177 15.7914ZM32.4407 17.0491C32.3981 17.1098 30.6398 19.6184 26.3516 21.3672C26.6053 21.8877 26.851 22.4175 27.0779 22.95C27.1585 23.141 27.2373 23.3282 27.3141 23.5154C30.9974 23.0526 34.6272 23.8075 34.9141 23.8672L34.9271 23.8699C34.9021 21.2823 33.9751 18.9074 32.4413 17.0482L32.4407 17.0491ZM27.9804 25.238C29.4142 29.1726 29.9968 32.3769 30.108 33.0347C32.5625 31.3808 34.3057 28.7544 34.792 25.7123C34.567 25.6399 31.5087 24.6731 27.9804 25.238ZM25.9322 25.7436C27.4703 29.7355 28.1054 33.0784 28.2672 34.0321C26.9553 34.5893 25.5134 34.8971 23.9996 34.8971C21.4645 34.8971 19.1368 34.0277 17.2811 32.5866C17.3039 32.5372 19.4101 28.0125 25.8597 25.7673C25.8748 25.7618 25.8902 25.7569 25.9056 25.7521L25.9322 25.7436ZM24.3002 22.08C24.6133 22.6929 24.9128 23.3145 25.1871 23.9349C25.0434 23.9761 24.8983 24.0185 24.7559 24.066C18.8568 25.9708 15.8654 31.2703 15.8691 31.2759C14.1278 29.3429 13.0684 26.7865 13.0684 23.9823C13.0684 23.9014 13.071 23.8222 13.0737 23.7424C13.0749 23.7065 13.0761 23.6705 13.0771 23.6341C13.2709 23.6415 18.6718 23.7626 24.3002 22.08ZM23.3945 20.3991C21.5026 17.0425 19.4812 14.3033 19.3356 14.1091C16.2873 15.5466 14.0122 18.3514 13.3027 21.7317L13.3132 21.7318C13.6868 21.7352 18.2013 21.777 23.3945 20.3991Z" fill="black"/>
</svg>
