<svg width="48" height="48" viewBox="0 0 48 48" fill="none" xmlns="http://www.w3.org/2000/svg">
<path d="M0 24C0 10.7452 10.7452 0 24 0C37.2548 0 48 10.7452 48 24C48 37.2548 37.2548 48 24 48C10.7452 48 0 37.2548 0 24Z" fill="#2E2882"/>
<path fill-rule="evenodd" clip-rule="evenodd" d="M39.1996 16.0168L33.179 20.7799L24.3996 15.4241L30.4924 10.4L39.1996 16.0168ZM18.3068 10.4001L24.3994 15.4241L15.6203 20.7799L15.6202 20.7799L15.6202 20.7799L9.59964 16.0168L18.3068 10.4001ZM15.6202 20.7799L15.6203 20.7799L15.6203 20.7799L24.3995 26.1359L33.1791 20.7801L39.1995 25.5435L30.4923 31.1603L24.3996 26.136L18.3068 31.1603L9.59961 25.5436L15.6202 20.7799ZM30.5281 32.2264L24.4175 27.2168L18.3069 32.2264L15.692 30.5397V32.4305L24.4175 37.6L33.143 32.4305V30.5397L30.5281 32.2264Z" fill="#FEB0A5"/>
</svg>
