<svg width="48" height="48" viewBox="0 0 48 48" fill="none" xmlns="http://www.w3.org/2000/svg">
<path d="M24.1536 47.592C37.1918 47.592 47.7613 37.0224 47.7613 23.9843C47.7613 10.9461 37.1918 0.376587 24.1536 0.376587C11.1154 0.376587 0.545898 10.9461 0.545898 23.9843C0.545898 37.0224 11.1154 47.592 24.1536 47.592Z" fill="#DE5833"/>
<mask id="mask0" mask-type="alpha" maskUnits="userSpaceOnUse" x="0" y="0" width="48" height="48">
<path fill-rule="evenodd" clip-rule="evenodd" d="M47.854 23.9188C47.854 36.9877 37.2225 47.6206 24.1522 47.6206C11.0847 47.6206 0.453125 36.9872 0.453125 23.9188C0.453125 10.8512 11.0851 0.219238 24.1522 0.219238C37.222 0.219238 47.854 10.8512 47.854 23.9188Z" fill="white"/>
</mask>
<g mask="url(#mask0)">
<path d="M33.8277 59.1498C32.9965 55.3259 28.1683 46.6702 26.3369 43.0102C24.5069 39.3493 22.6732 34.1902 23.5082 30.8616C23.6595 30.2561 21.9223 25.6425 22.4217 25.3162C26.306 22.7828 27.3288 25.5927 28.8842 24.4568C29.6845 23.8693 30.7718 24.9401 31.0483 23.9676C32.0443 20.4751 29.6609 14.3861 27.0002 11.7248C26.1302 10.8576 24.7982 10.3125 23.294 10.0231C22.7152 9.23253 21.7825 8.47238 20.4611 7.7713C18.9897 6.98807 15.7898 5.95376 14.1302 5.67823C12.98 5.48899 12.7202 5.81069 12.2291 5.89099C12.6869 5.93161 14.8594 7.00515 15.2822 7.06746C14.8594 7.35315 13.6174 7.05453 12.8249 7.40992C12.4257 7.59084 12.1271 8.27623 12.1298 8.60069C14.396 8.37176 17.9332 8.5933 20.0222 9.52376C18.3597 9.71299 15.8314 9.92392 14.744 10.4953C11.5834 12.1605 10.1872 16.0499 11.0194 20.7105C11.852 25.3605 15.5138 42.3336 16.6788 48.0008C17.8442 53.6611 14.1828 57.3188 11.8534 58.3181L14.3494 58.4856L13.5182 60.3165C16.5108 60.6484 19.8389 59.6524 19.8389 59.6524C19.1752 61.4824 14.6808 62.1502 14.6808 62.1502C14.6808 62.1502 16.8458 62.8139 20.3383 61.4824C23.8358 60.1518 25.9982 59.3187 25.9982 59.3187L27.6615 63.6447L30.8249 60.4845L32.1565 63.8127C32.1629 63.8122 34.6598 62.9782 33.8277 59.1498Z" fill="#D5D7D8"/>
<path d="M34.8329 58.374C34.0045 54.5483 29.1763 45.8926 27.3431 42.2298C25.5108 38.567 23.6808 33.4089 24.5139 30.0816C24.6685 29.4775 24.6713 27.0041 25.1734 26.676C29.0554 24.1403 28.7789 26.591 30.3366 25.4552C31.1397 24.8686 31.7826 24.1601 32.0619 23.1881C33.0606 19.6933 30.6745 13.6066 28.0128 10.944C27.1456 10.0767 25.8122 9.53073 24.3099 9.24273C23.732 8.4498 22.8002 7.6915 21.4806 6.9895C18.9925 5.66857 15.908 5.14057 13.0502 5.65888C13.5071 5.70042 14.5529 6.64565 14.9739 6.70796C14.3365 7.13996 12.6417 7.08411 12.6528 8.04457C14.9217 7.81749 17.408 8.17611 19.4993 9.10473C17.8368 9.29396 16.2893 9.70473 15.2019 10.2784C12.0385 11.9413 11.2068 15.2686 12.0385 19.931C12.8725 24.5912 16.5348 41.5647 17.6951 47.22C18.8614 52.8784 15.2019 56.5375 12.8725 57.5372L15.3685 57.7029L14.5373 59.5366C17.5299 59.8693 20.858 58.8724 20.858 58.8724C20.1943 60.7066 15.6999 61.3675 15.6999 61.3675C15.6999 61.3675 17.8626 62.0316 21.3574 60.7006C24.8563 59.37 27.02 58.5369 27.02 58.5369L28.6834 62.8629L31.8463 59.7L33.1806 63.03C33.1733 63.0332 35.6674 62.2006 34.8329 58.374Z" fill="white"/>
<path d="M15.7021 20.1651C15.7021 19.1991 16.4835 18.4172 17.4509 18.4172C18.4155 18.4172 19.1978 19.1991 19.1978 20.1651C19.1978 21.1315 18.4155 21.9125 17.4509 21.9125C16.4835 21.9129 15.7021 21.1315 15.7021 20.1651Z" fill="#2D4F8E"/>
<path d="M17.7725 19.5826C17.7725 19.3311 17.976 19.1289 18.2248 19.1289C18.4754 19.1289 18.6789 19.3311 18.6789 19.5826C18.6789 19.8332 18.4754 20.0368 18.2248 20.0368C17.9765 20.0372 17.7725 19.8332 17.7725 19.5826Z" fill="white"/>
<path d="M27.6309 19.1284C27.6309 18.3009 28.3052 17.6284 29.1318 17.6284C29.963 17.6284 30.6346 18.3009 30.6346 19.1284C30.6346 19.9596 29.963 20.6321 29.1318 20.6321C28.3052 20.6321 27.6309 19.9596 27.6309 19.1284Z" fill="#2D4F8E"/>
<path d="M29.4121 18.6291C29.4121 18.4154 29.587 18.24 29.7989 18.24C30.02 18.24 30.1893 18.4154 30.1893 18.6291C30.1893 18.8455 30.02 19.0177 29.7989 19.0177C29.587 19.0177 29.4121 18.8455 29.4121 18.6291Z" fill="white"/>
<path d="M17.9475 15.1005C17.9475 15.1005 16.6303 14.5047 15.3495 15.3096C14.071 16.1136 14.1181 16.9356 14.1181 16.9356C14.1181 16.9356 13.4383 15.4204 15.2503 14.6778C17.0641 13.9352 17.9475 15.1005 17.9475 15.1005Z" fill="url(#paint0_linear)"/>
<path d="M30.0359 14.9805C30.0359 14.9805 29.0893 14.4396 28.3545 14.4489C26.8448 14.4687 26.4336 15.1356 26.4336 15.1356C26.4336 15.1356 26.687 13.5456 28.6176 13.8645C29.6644 14.0385 30.0359 14.9805 30.0359 14.9805Z" fill="url(#paint1_linear)"/>
</g>
<path d="M22.8 26.9054C22.975 25.848 25.7073 23.8477 27.642 23.7268C29.581 23.6045 30.1851 23.6322 31.8005 23.2454C33.4205 22.8587 37.5859 21.8202 38.7388 21.2876C39.8945 20.754 44.7868 21.5516 41.3377 23.4743C39.846 24.3093 35.8256 25.8425 32.9507 26.6991C30.0803 27.558 28.3399 25.8794 27.3845 27.2903C26.6248 28.4128 27.2303 29.9497 30.661 30.2687C35.2934 30.6979 39.7348 28.182 40.2236 29.5187C40.7147 30.8548 36.2428 32.5223 33.5197 32.5754C30.7999 32.6267 25.3177 30.7773 24.4943 30.2045C23.67 29.6331 22.572 28.2983 22.8 26.9054Z" fill="#FDD20A"/>
<path d="M24.897 40.8886C24.897 40.8886 18.3884 37.4174 18.2823 38.8255C18.1724 40.236 18.2823 45.9835 19.0406 46.4183C19.8003 46.8512 25.2233 43.5992 25.2233 43.5992L24.897 40.8886Z" fill="#65BC46"/>
<path d="M27.3907 40.6699C27.3907 40.6699 31.8376 37.3075 32.8156 37.5245C33.7899 37.7455 34.0073 44.6829 33.1392 45.0148C32.271 45.3332 27.1816 43.2549 27.1816 43.2549L27.3907 40.6699Z" fill="#65BC46"/>
<path d="M23.3211 41.2565C23.3211 43.5328 22.9939 44.5099 23.9719 44.7268C24.9453 44.9451 26.7891 44.7268 27.4418 44.2939C28.0925 43.861 27.5488 40.9344 27.3347 40.387C27.1145 39.8451 23.3211 40.2799 23.3211 41.2565Z" fill="#43A244"/>
<path d="M23.735 40.7501C23.735 43.0269 23.4087 44.004 24.3853 44.2204C25.3573 44.4415 27.2025 44.2204 27.8556 43.7875C28.5064 43.3532 27.9622 40.428 27.7467 39.8801C27.5284 39.3387 23.735 39.7753 23.735 40.7501Z" fill="#65BC46"/>
<defs>
<linearGradient id="paint0_linear" x1="13.9932" y1="16.9355" x2="17.9478" y2="16.9355" gradientUnits="userSpaceOnUse">
<stop offset="0.0056" stop-color="#6176B9"/>
<stop offset="0.691" stop-color="#394A9F"/>
</linearGradient>
<linearGradient id="paint1_linear" x1="26.4338" y1="15.1356" x2="30.0359" y2="15.1356" gradientUnits="userSpaceOnUse">
<stop offset="0.0056" stop-color="#6176B9"/>
<stop offset="0.691" stop-color="#394A9F"/>
</linearGradient>
</defs>
</svg>
