<svg width="48" height="48" viewBox="0 0 48 48" fill="none" xmlns="http://www.w3.org/2000/svg">
<path fill-rule="evenodd" clip-rule="evenodd" d="M0 24C0 37.2548 10.7452 48 24 48C37.2548 48 48 37.2548 48 24C48 10.7452 37.2548 0 24 0C10.7452 0 0 10.7452 0 24ZM32.8 28.6676C32.8 29.5452 32.0917 30.2566 31.218 30.2566H26.2741V36.1158C26.2741 37.3774 25.256 38.4 24 38.4C22.744 38.4 21.7258 37.3774 21.7258 36.1158V30.2566H16.782C15.9083 30.2566 15.2 29.5452 15.2 28.6676V18.3393C15.2 18.3137 15.2017 18.2885 15.2034 18.2633C15.204 18.2555 15.2045 18.2476 15.205 18.2397C15.3107 13.4505 19.2063 9.6 24 9.6C28.7937 9.6 32.6893 13.4505 32.795 18.2397C32.7955 18.2476 32.796 18.2554 32.7965 18.2633C32.7983 18.2885 32.8 18.3137 32.8 18.3393V28.6676Z" fill="black"/>
</svg>
