<svg width="48" height="48" viewBox="0 0 48 48" fill="none" xmlns="http://www.w3.org/2000/svg">
<path d="M0 24C0 10.7452 10.7452 0 24 0C37.2548 0 48 10.7452 48 24C48 37.2548 37.2548 48 24 48C10.7452 48 0 37.2548 0 24Z" fill="white"/>
<path d="M38.295 23.7986C38.295 27.2222 35.4689 29.9988 31.9762 29.9988C28.4802 29.9988 25.6523 27.2222 25.6523 23.7986C25.6523 20.3766 28.4802 17.6 31.9762 17.6C35.4689 17.6 38.295 20.3766 38.295 23.7986" fill="#FF007F"/>
<path d="M22.2406 23.7986C22.2406 27.2222 19.4128 29.9988 15.9167 29.9988C12.4258 29.9988 9.59961 27.2222 9.59961 23.7986C9.59961 20.3766 12.4258 17.6 15.9167 17.6C19.4128 17.6 22.2406 20.3766 22.2406 23.7986" fill="#0960D5"/>
</svg>
