<svg width="48" height="48" viewBox="0 0 48 48" fill="none" xmlns="http://www.w3.org/2000/svg">
<path d="M0 24C0 10.7452 10.7452 0 24 0C37.2548 0 48 10.7452 48 24C48 37.2548 37.2548 48 24 48C10.7452 48 0 37.2548 0 24Z" fill="white"/>
<path fill-rule="evenodd" clip-rule="evenodd" d="M17.6439 11.2H31.3395C33.3438 11.2 33.8888 12.3555 33.4668 14.5243C32.9042 17.3332 31.0934 26.2219 30.9352 26.8441C30.7418 27.5908 30.4078 28.8174 28.6496 28.8174H24.5357C24.4654 28.8174 24.4126 28.8174 24.3072 28.9419C24.2017 29.0663 17.6967 36.7284 17.6967 36.7284C17.1341 37.2973 16.343 37.2084 16.0441 37.0839C15.7452 36.9595 15.2002 36.6395 15.2002 35.5551V13.5466C15.2002 12.6399 15.7628 11.2 17.6439 11.2ZM29.9155 17.9554L30.5308 14.951C30.6363 14.4533 30.2495 14.0621 29.8628 14.0621H18.7691C18.3648 14.0621 18.0307 14.3999 18.0307 14.8088V32.213C18.0307 32.2663 18.0659 32.2841 18.101 32.2308C18.101 32.2308 22.1447 27.1108 22.6018 26.5419C23.0589 25.9731 23.2171 25.9553 23.9907 25.9375H27.6827C28.1046 25.9375 28.3859 25.5997 28.4211 25.3331C28.4739 25.0842 28.9485 22.7376 29.0364 22.2753C29.1243 21.8309 28.7727 21.422 28.3508 21.422H23.8324C23.2347 21.422 22.7424 20.9243 22.7424 20.3198V19.6621C22.7424 19.0576 23.2347 18.5599 23.8324 18.5599H29.1771C29.5463 18.5599 29.8452 18.2754 29.9155 17.9554Z" fill="#FA4778"/>
</svg>
