<svg width="48" height="48" viewBox="0 0 48 48" fill="none" xmlns="http://www.w3.org/2000/svg">
<path fill-rule="evenodd" clip-rule="evenodd" d="M24 0C10.7452 0 0 10.7452 0 24C0 37.2548 10.7452 48 24 48C37.2548 48 48 37.2548 48 24C48 10.7452 37.2548 0 24 0ZM34.712 20.552C35.6498 23.2816 36.1362 26.1458 36.152 29.032C36.2185 32.3615 34.9084 35.5709 32.5311 37.9029C30.1537 40.2348 26.9196 41.4827 23.592 41.352C15.52 41.352 11.2 35.84 11.2 29.12C11.2678 27.024 11.8151 24.9714 12.8 23.12C14.32 20.16 12.88 16.24 12.08 16C12.08 16 16 16.8 16.4 20.24C18.0584 19.0797 19.091 17.2211 19.2 15.2C19.68 11.52 21.12 8.48 24 7.2C24 7.2 22.952 9.672 24.392 11.592C24.8241 12.1682 25.4724 12.8308 26.2201 13.595C27.9638 15.3774 30.2482 17.7124 31.592 20.792C31.6941 19.5134 32.2637 18.3172 33.192 17.432C34.712 16.072 35.432 15.992 35.432 15.992C35.432 15.992 33.992 18.472 34.712 20.552Z" fill="black"/>
<path d="M28.0725 29.992C29.0445 29.992 29.8325 28.8816 29.8325 27.512C29.8325 26.1423 29.0445 25.032 28.0725 25.032C27.1005 25.032 26.3125 26.1423 26.3125 27.512C26.3125 28.8816 27.1005 29.992 28.0725 29.992Z" fill="black"/>
<path d="M19.1995 29.992C20.1715 29.992 20.9595 28.8816 20.9595 27.512C20.9595 26.1423 20.1715 25.032 19.1995 25.032C18.2274 25.032 17.4395 26.1423 17.4395 27.512C17.4395 28.8816 18.2274 29.992 19.1995 29.992Z" fill="black"/>
<path d="M23.5924 39.504C18.5872 39.5575 14.4793 35.5569 14.4004 30.552C14.4004 30.1102 14.7586 29.752 15.2004 29.752C15.4166 29.7377 15.6285 29.8174 15.7818 29.9706C15.935 30.1239 16.0147 30.3358 16.0004 30.552C16.0661 34.696 19.456 38.0145 23.6004 37.992C25.5955 38.0155 27.5179 37.2443 28.9437 35.8485C30.3695 34.4528 31.1814 32.5471 31.2004 30.552C31.2004 30.1102 31.5586 29.752 32.0004 29.752C32.2166 29.7377 32.4285 29.8174 32.5818 29.9706C32.735 30.1239 32.8147 30.3358 32.8004 30.552C32.7752 32.963 31.7887 35.2642 30.06 36.9449C28.3312 38.6256 26.0031 39.5468 23.5924 39.504V39.504Z" fill="black"/>
</svg>
