<svg width="48" height="48" viewBox="0 0 48 48" fill="none" xmlns="http://www.w3.org/2000/svg">
<path d="M0 24C0 10.7452 10.7452 0 24 0C37.2548 0 48 10.7452 48 24C48 37.2548 37.2548 48 24 48C10.7452 48 0 37.2548 0 24Z" fill="white"/>
<path d="M36.1522 29.032C36.1364 26.1458 35.65 23.2815 34.7122 20.552C33.9922 18.472 35.4322 15.992 35.4322 15.992C35.4322 15.992 34.7122 16.072 33.1922 17.432C32.2639 18.3171 31.6942 19.5133 31.5922 20.792C29.6722 16.392 25.8322 13.512 24.3922 11.592C22.9522 9.67195 24.0002 7.19995 24.0002 7.19995C21.1202 8.47995 19.6802 11.52 19.2002 15.2C19.0912 17.221 18.0586 19.0796 16.4002 20.24C16.0002 16.8 12.0802 16 12.0802 16C12.8802 16.24 14.3202 20.16 12.8002 23.12C11.8153 24.9714 11.268 27.024 11.2002 29.12C11.2002 35.84 15.5202 41.352 23.5922 41.352C26.9198 41.4826 30.1539 40.2348 32.5313 37.9028C34.9086 35.5709 36.2187 32.3614 36.1522 29.032Z" fill="url(#paint0_radial)"/>
<path d="M28.0725 29.992C29.0445 29.992 29.8325 28.8816 29.8325 27.512C29.8325 26.1423 29.0445 25.032 28.0725 25.032C27.1005 25.032 26.3125 26.1423 26.3125 27.512C26.3125 28.8816 27.1005 29.992 28.0725 29.992Z" fill="#333333"/>
<path d="M19.2004 29.992C20.1725 29.992 20.9604 28.8816 20.9604 27.512C20.9604 26.1423 20.1725 25.032 19.2004 25.032C18.2284 25.032 17.4404 26.1423 17.4404 27.512C17.4404 28.8816 18.2284 29.992 19.2004 29.992Z" fill="#333333"/>
<path d="M23.5924 39.504C18.5872 39.5575 14.4793 35.5569 14.4004 30.552C14.4004 30.1102 14.7586 29.752 15.2004 29.752C15.4166 29.7377 15.6285 29.8174 15.7818 29.9706C15.935 30.1239 16.0147 30.3358 16.0004 30.552C16.0661 34.696 19.456 38.0145 23.6004 37.992C25.5955 38.0155 27.5179 37.2443 28.9437 35.8485C30.3695 34.4528 31.1814 32.5471 31.2004 30.552C31.2004 30.1102 31.5586 29.752 32.0004 29.752C32.2166 29.7377 32.4285 29.8174 32.5818 29.9706C32.735 30.1239 32.8147 30.3358 32.8004 30.552C32.7752 32.963 31.7887 35.2642 30.06 36.9449C28.3312 38.6256 26.0031 39.5468 23.5924 39.504V39.504Z" fill="#333333"/>
<defs>
<radialGradient id="paint0_radial" cx="0" cy="0" r="1" gradientUnits="userSpaceOnUse" gradientTransform="translate(26.1138 37.1993) scale(37.2 50.9249)">
<stop offset="0.05" stop-color="#EFAC00"/>
<stop offset="0.17" stop-color="#EB9100"/>
<stop offset="0.4" stop-color="#E15600"/>
<stop offset="0.63" stop-color="#C82400"/>
<stop offset="0.72" stop-color="#B91200"/>
<stop offset="0.81" stop-color="#AE0500"/>
<stop offset="0.9" stop-color="#AA0000"/>
</radialGradient>
</defs>
</svg>
