<svg width="48" height="48" viewBox="0 0 48 48" fill="none" xmlns="http://www.w3.org/2000/svg">
<path d="M0 24C0 10.7452 10.7452 0 24 0C37.2548 0 48 10.7452 48 24C48 37.2548 37.2548 48 24 48C10.7452 48 0 37.2548 0 24Z" fill="white"/>
<path d="M34.9368 12H23.4102C23.4102 13.38 23.9584 14.7035 24.9342 15.6793C25.91 16.6551 27.2335 17.2033 28.6135 17.2033H30.7368V19.2533C30.7387 22.1245 33.0657 24.4515 35.9368 24.4533V13C35.9368 12.4477 35.4891 12 34.9368 12Z" fill="#2684FF"/>
<path d="M29.2337 17.7433H17.707C17.7089 20.6144 20.0359 22.9414 22.907 22.9433H25.0304V25C25.034 27.8711 27.3626 30.1966 30.2337 30.1966V18.7433C30.2337 18.191 29.786 17.7433 29.2337 17.7433Z" fill="url(#paint0_linear)"/>
<path d="M23.5267 23.4833H12C12 26.357 14.3296 28.6866 17.2033 28.6866H19.3333V30.7366C19.3352 33.6051 21.6582 35.9311 24.5267 35.9366V24.4833C24.5267 23.931 24.079 23.4833 23.5267 23.4833Z" fill="url(#paint1_linear)"/>
<defs>
<linearGradient id="paint0_linear" x1="27.4438" y1="15.326" x2="22.5703" y2="20.4112" gradientUnits="userSpaceOnUse">
<stop offset="0.18" stop-color="#0052CC"/>
<stop offset="1" stop-color="#2684FF"/>
</linearGradient>
<linearGradient id="paint1_linear" x1="376.829" y1="349.939" x2="167.455" y2="557.146" gradientUnits="userSpaceOnUse">
<stop offset="0.18" stop-color="#0052CC"/>
<stop offset="1" stop-color="#2684FF"/>
</linearGradient>
</defs>
</svg>
