<svg width="48" height="48" viewBox="0 0 48 48" fill="none" xmlns="http://www.w3.org/2000/svg">
<path d="M24 48C37.2548 48 48 37.2548 48 24C48 10.7452 37.2548 0 24 0C10.7452 0 0 10.7452 0 24C0 37.2548 10.7452 48 24 48Z" fill="white"/>
<path fill-rule="evenodd" clip-rule="evenodd" d="M37.1762 30.1801L37.1736 30.1896C37.0863 30.5087 34.9286 38.4024 26.8251 38.4C19.7078 38.3978 16.3343 32.1389 16.3343 32.1389C15.8156 32.1682 15.3151 32.0849 14.8535 31.9133C12.7654 31.1372 11.7635 28.7203 12.484 26.6926L11.3363 25.8053C6.8907 22.379 19.4843 6.70047 23.9376 10.2482C23.9601 10.2661 25.0007 11.1135 25.0007 11.1135C26.5997 10.1311 28.1832 9.60003 29.4705 9.59998C30.3846 9.59986 31.1491 9.86762 31.664 10.4317C32.8199 11.6978 32.4045 14.1157 30.8261 16.5637C31.1656 16.8897 31.4469 17.3329 31.6478 17.7728C32.1495 18.1645 32.4748 18.76 32.6364 19.5824C32.7363 20.0904 32.7923 20.718 32.8416 21.2716C32.8811 21.7148 32.9163 22.1104 32.9665 22.3593C33.073 22.4079 33.1415 22.4387 33.1914 22.4612C33.2384 22.4823 33.269 22.4961 33.2994 22.5104C33.356 22.5369 33.4119 22.5652 33.572 22.6461C33.5996 22.6601 33.6303 22.6756 33.6647 22.693C34.1378 22.9323 34.714 23.2236 35.3508 23.8435C36.4827 24.1304 36.9149 25.3479 36.2526 26.1788C36.2348 26.2011 36.1549 26.297 36.072 26.3923C36.0751 26.4004 36.0827 26.4156 36.0941 26.4381C36.1569 26.5626 36.3329 26.9118 36.4656 27.5254C36.9346 27.6374 37.3082 27.9296 37.5043 28.3533C37.8434 29.1825 37.1762 30.1801 37.1762 30.1801ZM33.9123 36.3343V36.6754H34.0414V36.3343H34.1735V36.2267H33.782V36.3343H33.9123ZM34.213 36.6754V36.2267H34.397L34.4777 36.4849L34.5572 36.2267H34.7413V36.6754H34.6236V36.3505L34.5273 36.6754H34.4269L34.3307 36.3514V36.6754H34.213Z" fill="#5B453E"/>
<path fill-rule="evenodd" clip-rule="evenodd" d="M36.453 29.6977C36.3508 30.0802 35.85 31.9548 33.8454 33.5358C31.0611 35.732 27.4028 35.5098 26.0212 34.279C25.2831 33.586 24.9636 32.5949 24.9636 32.5949C24.9636 32.5949 24.88 33.1534 24.8657 33.3728C24.309 32.4223 24.356 31.2614 24.356 31.2614C24.356 31.2614 24.059 31.8173 23.9231 32.1287C23.5133 31.0818 23.725 30.0008 23.725 30.0008L23.4008 30.4859C23.4008 30.4859 23.2488 29.301 23.622 28.3141C24.0209 27.2595 24.7943 26.4934 24.9472 26.3979C24.3604 26.2106 23.6844 25.674 23.6832 25.673C23.6832 25.673 23.952 25.6908 24.1389 25.6478C24.1389 25.6478 22.9525 24.7946 22.7445 23.4893C22.9163 23.7025 23.277 23.9434 23.277 23.9434C23.1602 23.6017 23.0896 22.8418 23.1987 22.0938L23.1991 22.093C23.4235 20.6641 24.5967 19.7337 25.9255 19.7454C26.1795 19.7476 26.4183 19.7591 26.6463 19.77C27.6883 19.8199 28.5012 19.8589 29.4743 18.9582C29.488 18.9455 29.5015 18.9329 29.515 18.9205C29.7476 18.7044 29.9448 18.5211 30.2779 18.447C30.2845 18.4455 30.2928 18.4431 30.3031 18.4401C30.3507 18.4262 30.4407 18.4 30.5963 18.4C30.7876 18.4 30.9719 18.4432 31.1405 18.544C31.7838 18.9283 31.9224 19.9306 31.9916 20.6656C32.1478 22.3318 32.17 22.7983 32.4145 23.0375C32.57 23.1897 32.8156 23.2498 33.2429 23.4684C33.2935 23.4942 33.3447 23.5199 33.3965 23.5459C33.8818 23.7893 34.4213 24.0599 35.027 24.7109C35.0304 24.7146 35.0352 24.7167 35.0401 24.7168C35.6056 24.7304 35.897 25.1773 35.6361 25.5026C33.7388 27.777 31.0888 28.8661 28.1355 28.9573C28.041 28.9597 27.8552 28.964 27.7755 28.9659C27.7523 28.9664 27.7381 28.9668 27.7377 28.9668C26.5449 29.0031 26.1566 30.552 26.905 31.4835C27.378 32.0722 28.2878 32.2657 29.0367 32.2686L29.0473 32.2648C32.2763 32.3305 35.5203 30.037 36.0805 28.7722C36.0846 28.7631 36.1188 28.6826 36.1188 28.6826C36.1188 28.6826 36.089 28.7177 36.053 28.7473C36.0513 28.7485 36.0427 28.7563 36.0276 28.7701C35.7216 29.0507 32.7187 31.8042 29.0218 31.7002C29.0218 31.7002 28.6039 31.6915 28.2105 31.5995C27.6916 31.4784 27.2974 31.2496 27.1466 30.7305C27.1017 30.6354 27.076 30.3065 27.1355 30.085C27.2978 29.5399 27.5696 29.5351 27.9901 29.5278C28.053 29.5267 28.1192 29.5255 28.189 29.5225H28.189C30.1017 29.4585 31.6451 28.9758 32.8018 28.4245C34.0353 27.8367 34.9753 27.0794 35.314 26.6971C35.7533 27.4395 35.7507 28.3929 35.7507 28.3929C35.7507 28.3929 35.923 28.3325 36.1511 28.3325C36.868 28.3325 37.0155 28.9761 36.4728 29.6295C36.4695 29.636 36.4632 29.6594 36.453 29.6977ZM18.6314 26.1978C18.6314 26.1978 18.5421 26.5687 18.365 27.0205C18.195 25.5743 17.5903 25.2683 17.5903 25.2684C17.24 25.1054 16.8527 25.015 16.4454 25.015C14.8742 25.015 13.6006 26.3609 13.6006 28.0212C13.6006 29.6815 14.8742 31.0274 16.4454 31.0274C18.2151 31.0274 19.5583 29.3361 19.2456 27.4885C19.2456 27.4885 19.0652 27.9113 18.8971 28.1357C18.9378 27.4743 18.8341 26.82 18.6314 26.1978Z" fill="#F2D8B4"/>
<path d="M12.7007 25.6C12.6894 25.597 11.62 24.8359 11.4679 24.5853C10.5682 23.1127 12.1335 20.0881 13.2474 18.3689C16.0001 14.1199 20.5821 10.7667 22.6631 11.2456L24.8002 12.3155C23.9704 12.7889 23.1679 13.3703 22.6871 13.757L22.2324 14.1269C22.2324 14.1269 20.9044 14.994 20.2439 15.5407C17.5963 17.7318 14.9894 21.1239 14.0227 24.3981C14.0227 24.398 13.2283 24.7805 12.7007 25.6" fill="#207EAC"/>
<path d="M23.2006 11.2494V11.2494C21.0793 10.7299 16.409 14.3678 13.603 18.9777C13.6022 18.979 13.6014 18.9804 13.6006 18.9817L13.6119 18.9829L15.8477 20.8C18.3026 16.7774 21.388 14.7032 21.475 14.6423L21.1205 12.1802L21.7846 11.852L23.1174 12.2975L23.0154 11.8379L23.2006 11.2494" fill="#4FB1D3"/>
<path d="M26.4006 11.847L23.9728 13.4734L23.8029 13.6L21.65 11.9247L21.6006 11.6079L22.3491 11.2666C22.3876 11.2784 23.7921 11.7116 23.8514 11.7299L23.8765 10.8416L23.9452 10.64L24.6028 10.4C24.6037 10.4006 26.3981 11.845 26.4006 11.847" fill="#FACD55"/>
<path d="M29.0703 10.4C27.6988 10.4 26.159 11.1606 24.9778 11.9084C24.8121 12.0112 24.6477 12.1188 24.4867 12.2284L23.8686 11.6822L24.0931 12.5047C24.0082 12.5662 23.9254 12.6275 23.8443 12.6884L22.5672 12.2772L23.4122 13.023C23.2193 13.1772 23.047 13.3215 22.904 13.4465L20.8776 11.6823L20.9849 12.473L22.4577 13.8412C22.4577 13.8412 21.1543 14.7663 20.5062 15.3496C17.9077 17.6874 15.3492 21.3066 14.4004 24.8L14.4543 24.7681C14.4616 24.7638 14.469 24.7602 14.4764 24.756C14.5028 24.741 14.529 24.7267 14.5554 24.7127C14.5724 24.7037 14.5892 24.6946 14.6062 24.6861C14.6333 24.6723 14.6605 24.6595 14.6877 24.6469C14.7037 24.6394 14.7198 24.6316 14.7358 24.6246C14.7653 24.6115 14.7946 24.5997 14.8241 24.588C14.8376 24.5826 14.8512 24.5766 14.8648 24.5715C14.9077 24.5553 14.9504 24.5404 14.9929 24.527C15.638 24.3241 16.5156 24.1937 17.5429 24.6536C18.0588 23.2816 18.6752 21.8857 19.6465 20.5445C20.4341 19.4569 21.1912 18.486 22.0998 17.952C23.8203 16.2479 28.4575 14.4409 29.9432 16.0072C30.2944 15.4013 30.5993 14.8278 30.8505 14.1088C31.4703 12.3797 31.4816 10.4 29.0703 10.4" fill="#131B23"/>
<path d="M24.0002 12L23.4964 11.2L23.2002 11.5985L23.3775 11.9118L24.0002 12" fill="#131B23"/>
<path fill-rule="evenodd" clip-rule="evenodd" d="M28.6595 10.4C27.9065 10.479 27.1213 10.753 26.3888 11.0998C23.9159 12.2906 22.1899 14.0474 21.9829 14.2581C21.974 14.2671 21.9679 14.2733 21.9647 14.2765C21.7593 14.4788 21.5545 14.6884 21.3514 14.9041C20.7472 15.5455 20.1568 16.2403 19.6037 16.9547C18.6255 18.2178 18.2185 18.8072 17.6006 20.0078C17.6005 20.008 17.6047 20.0028 17.613 19.9926C17.8359 19.7185 21.0087 15.8179 21.8206 14.991C23.3655 13.4175 25.8942 11.665 25.9205 11.6494C27.0003 10.971 27.9116 10.5728 28.6595 10.4ZM34.7749 26.2386C35.2005 26.9744 35.1979 27.9193 35.1979 27.9193C35.2053 28.1905 35.1966 28.34 35.1818 28.5498C34.3186 29.2981 31.745 31.2855 28.6786 31.1972C28.6786 31.1972 28.2737 31.1886 27.8925 31.0975C27.3926 30.9781 27.0121 30.753 26.8641 30.2444L26.8618 30.2361L26.8615 30.2355C26.8592 30.2303 26.8401 30.1845 26.8279 30.0858L26.8274 30.0819L26.827 30.0782C26.8242 30.0536 26.8219 30.0274 26.8203 30.0001L26.8198 29.9906L26.8196 29.9874C26.8174 29.9438 26.8169 29.8938 26.8187 29.837C26.8195 29.8171 26.8207 29.7972 26.8223 29.7774L26.8225 29.7775L26.8227 29.7712C26.8279 29.7099 26.837 29.6499 26.8511 29.5964C27.0083 29.0561 27.2717 29.0514 27.679 29.0441C27.74 29.043 27.8042 29.0418 27.8717 29.0388H27.8718C29.7249 28.9755 31.2203 28.497 32.341 27.9507C33.536 27.3681 34.4467 26.6175 34.7749 26.2386Z" fill="#FFFFFE"/>
<path fill-rule="evenodd" clip-rule="evenodd" d="M31.6062 21.489C31.7407 22.922 31.7726 23.2624 32.0566 23.4643C32.0645 23.4719 32.0724 23.4785 32.0805 23.4838C31.8898 23.5394 31.7191 23.5918 31.5677 23.6396C31.2889 23.2615 30.9016 22.908 30.1056 22.9655C29.0507 23.0561 28.2123 23.9992 28.3641 24.9357C27.8628 25.1886 27.3959 25.4508 26.9617 25.7178C26.2452 25.7946 25.3724 26.042 24.6026 26.6865C24.0224 26.5038 23.3539 25.98 23.3527 25.979C23.3527 25.979 23.6186 25.9964 23.8033 25.9544C23.8033 25.9544 23.7905 25.9453 23.7674 25.9276C23.7664 25.9263 23.7652 25.925 23.7638 25.924C23.7481 25.9116 23.732 25.8994 23.7157 25.887C23.4397 25.6651 22.596 24.9097 22.4245 23.8477C22.5944 24.0558 22.9511 24.2908 22.9511 24.2908C22.9468 24.2786 22.9426 24.2657 22.9385 24.2524L22.9391 24.25C22.9393 24.2488 22.9395 24.2475 22.9395 24.2463C22.9395 24.2463 22.8899 24.1051 22.8552 23.833C22.8457 23.7566 22.8378 23.6752 22.8319 23.5899C22.8282 23.5324 22.8253 23.4714 22.8236 23.4067C22.8673 22.8698 23.0042 22.4187 23.3452 21.992C23.8426 21.3699 24.525 21.117 25.3123 21.1292C25.529 21.1319 25.748 21.1543 25.9763 21.1776C26.1955 21.2 26.4232 21.2233 26.6657 21.2309C27.3419 21.252 27.9932 21.1405 28.6786 20.8332C29.3558 20.5134 29.7387 20.1444 30.1394 19.5713C30.2806 19.4168 30.5297 19.1906 30.75 19.2002C30.8961 19.2002 30.9975 19.272 31.0696 19.3344C31.4184 19.801 31.5149 20.5272 31.5688 21.0919C31.5819 21.2306 31.5942 21.3609 31.6056 21.4832L31.606 21.4873L31.6062 21.489ZM29.5474 24.2533C29.7102 23.7336 30.4484 23.4836 30.8941 23.7977C30.695 23.9124 30.6336 24.2452 30.7551 24.4382C30.5032 24.4336 30.2442 24.5322 30.0621 24.7068C30.079 24.4595 29.8054 24.2662 29.5474 24.2533ZM32.2389 34.4C32.6373 34.1923 33.0276 33.9446 33.402 33.6532C35.384 32.1104 35.8794 30.2809 35.9805 29.9073L35.9806 29.9072L35.9806 29.9071L35.9807 29.9068L35.9807 29.9068C35.9908 29.8696 35.9969 29.8469 36.0002 29.8405C35.0826 31.0159 33.8823 31.95 32.598 32.5966C31.542 33.1287 30.7519 33.3137 30.7519 33.3137C30.7519 33.3137 31.3174 34.053 32.2389 34.4ZM26.2176 30.1399C26.358 29.6222 26.7545 29.2121 27.3623 29.1938L27.4002 29.1929L27.4028 29.1929C27.4833 29.191 27.6634 29.1868 27.7557 29.1845C30.6761 29.0956 33.2965 28.0326 35.1727 25.8128C35.4307 25.4953 35.1425 25.0591 34.5834 25.0458H34.5754C34.5271 25.0965 34.499 25.1686 34.4622 25.263C34.4271 25.3533 34.3839 25.4641 34.3075 25.5962C33.7368 26.5785 32.9475 27.0277 31.8949 27.5488C30.1839 28.3928 28.9096 28.581 27.9899 28.7169C27.1749 28.8373 26.6383 28.9166 26.3228 29.3745C26.1276 29.6613 26.1239 29.9816 26.2176 30.1399ZM32.4375 29.7721C32.4294 29.7723 32.4211 29.774 32.4078 29.777C32.3662 29.7865 32.2739 29.8164 32.1402 29.8596C31.2521 30.1468 28.5392 31.0241 26.7374 30.4634C26.7281 30.5758 26.7311 30.812 26.7775 30.9146L26.7778 30.9152C27.0914 30.9775 27.4883 31.0173 27.9489 31.0173C30.6769 31.0173 32.6428 29.7885 32.4375 29.7721ZM17.1781 29.5182L17.1757 29.5198C15.8938 29.6134 14.7085 27.9904 15.4083 27.0954C15.5042 27.0239 15.5862 26.9828 15.6186 26.9666C15.6243 26.9637 15.6284 26.9617 15.6309 26.9603C15.6496 26.9505 15.6687 26.9425 15.6887 26.9342C15.7025 26.9284 15.7166 26.9225 15.7312 26.9157C15.7452 26.9099 15.7613 26.9051 15.7791 26.9001C15.8359 26.8842 15.8482 26.8797 15.8606 26.8762C15.8731 26.8726 15.8858 26.87 15.9432 26.858H15.9431C16.5657 26.7273 17.0049 27.0002 17.1961 27.2686C17.2842 27.3921 17.3031 27.485 17.3168 27.5523C17.3213 27.5742 17.3252 27.5934 17.3308 27.6101L17.3309 27.6109C17.1818 27.4049 16.9893 27.3598 16.9893 27.3598C16.827 27.2957 16.5152 27.3936 16.4948 27.7415C16.4854 27.8753 16.5257 28.0252 16.6412 28.157L16.6421 28.158C16.6462 28.1627 16.6504 28.1674 16.6547 28.172C16.6587 28.1763 16.6628 28.1806 16.6668 28.1848C16.7616 28.282 16.8741 28.3528 16.9816 28.4203C17.1661 28.5363 17.3357 28.6429 17.3744 28.8577C17.4139 29.0941 17.3442 29.3413 17.1781 29.5182Z" fill="#E2B986"/>
<path fill-rule="evenodd" clip-rule="evenodd" d="M29.8608 15.8486C28.8292 15.042 25.8181 15.2704 22.8035 17.2573C21.4233 18.1669 20.4111 19.162 19.631 20.1957C19.631 20.1957 20.8353 17.8678 23.4815 16.328C23.297 16.2978 22.8632 16.3506 22.7388 16.3657C22.7303 16.3668 22.7232 16.3676 22.7178 16.3683C23.1985 15.9478 24.0916 15.6671 24.7087 15.5395C24.5281 15.4227 24.0979 15.3932 23.8844 15.3874C23.8262 15.3858 23.8223 15.386 23.7634 15.3885C23.7585 15.3887 23.7531 15.389 23.7473 15.3892C24.3278 15.0592 25.404 14.8655 26.3824 15.0405C26.2594 14.8745 25.9806 14.7534 25.7851 14.6945C25.768 14.6893 25.6913 14.6699 25.6913 14.6699C25.6913 14.6699 25.7567 14.6542 25.765 14.6526C26.3544 14.5372 27.0428 14.6618 27.5875 14.8842C27.5256 14.7382 27.3744 14.5682 27.2608 14.4606C27.2492 14.4496 27.1814 14.4 27.1814 14.4C27.7512 14.5201 28.2972 14.7728 28.7081 15.0598C28.6522 14.9501 28.514 14.7654 28.4185 14.6645C28.963 14.8229 29.5742 15.2177 29.8361 15.7837C29.8422 15.7957 29.8572 15.8377 29.8605 15.8469L29.861 15.8483L29.8608 15.8486ZM27.4443 23.403C27.5031 23.4904 27.5188 23.5564 27.4951 23.5839C27.4525 23.6346 27.3111 23.578 27.101 23.494L27.0286 23.4652C26.389 23.2226 25.9178 23.1856 25.0837 23.5066L25.0171 23.5326C24.8412 23.6013 24.7154 23.6505 24.6515 23.6408C24.5345 23.6231 24.6478 23.4054 24.9034 23.1941C25.4178 22.7769 26.1243 22.6473 26.728 22.8758C26.9922 22.9747 27.289 23.1721 27.4443 23.403ZM27.3176 24.0683C27.1422 23.9321 26.8194 23.8407 26.4841 23.8987C26.4318 23.9068 26.3824 23.9211 26.3342 23.9351L26.3342 23.9351L26.3342 23.9351L26.3342 23.9351L26.3342 23.9351L26.3342 23.9351C26.3176 23.94 26.3012 23.9447 26.2848 23.9492C26.2614 23.9551 26.239 23.9635 26.2171 23.9728C26.0785 24.0322 25.9586 24.0962 25.8421 24.2097C25.7085 24.3409 25.6706 24.4628 25.7092 24.4928C25.7423 24.5197 25.8167 24.4885 25.9298 24.4412L25.9298 24.4412L25.9825 24.4193C26.4612 24.2169 26.8 24.2115 27.1227 24.2344L27.1457 24.236C27.2886 24.2459 27.3837 24.2524 27.4067 24.2115C27.4237 24.1822 27.3928 24.1266 27.3176 24.0683ZM17.0093 26.5649L17.0092 26.5647C16.7476 26.3502 16.3769 26.2487 15.946 26.3415H15.9461L15.9382 26.3432C15.8878 26.3541 15.8758 26.3567 15.864 26.3601L15.8518 26.3639L15.8517 26.3639C15.8403 26.3675 15.8225 26.3732 15.7828 26.3846C15.765 26.3896 15.749 26.3946 15.7351 26.4005C15.7206 26.4074 15.7066 26.4134 15.693 26.4192C15.6731 26.4278 15.6539 26.436 15.6352 26.4461L15.6231 26.4525C15.568 26.4808 15.3672 26.5838 15.2011 26.7906C15.1122 26.9026 15.044 27.0272 14.9942 27.1553C14.9042 27.392 14.8706 27.6515 14.8802 27.9007C14.8934 28.241 14.9825 28.4453 15.0158 28.5217L15.0158 28.5217L15.0158 28.5217C15.0198 28.5308 15.0229 28.5381 15.0251 28.5436C15.1102 28.7295 14.9109 28.7677 14.7291 28.5679L14.7287 28.5675C14.5832 28.4109 14.4901 28.1725 14.4445 27.9608V27.9606C14.4176 27.8348 14.4004 27.6936 14.4004 27.5416C14.4004 27.3653 14.4236 27.1746 14.4819 26.9769L14.482 26.9767L14.482 26.9765C14.6397 26.4574 14.994 26.0653 15.5325 25.8518C15.5667 25.8382 15.6047 25.8281 15.6404 25.8186L15.6404 25.8186L15.6405 25.8186L15.6405 25.8186L15.6406 25.8185C15.6566 25.8143 15.6722 25.8101 15.6867 25.8058L15.6862 25.806C15.7769 25.7784 16.1017 25.7116 16.4319 25.7638C16.6229 25.7939 16.7967 25.8582 16.9465 25.9431C17.096 26.0277 17.2217 26.1328 17.3172 26.2456L17.3176 26.2461C17.4736 26.4265 17.5914 26.6811 17.5704 26.9077L17.5704 26.9082C17.5625 27.0024 17.5215 27.1374 17.4381 27.1725C17.407 27.1854 17.3759 27.1785 17.3541 27.1568C17.3297 27.1324 17.3228 27.0977 17.3135 27.051C17.2998 26.9822 17.281 26.8873 17.1932 26.7611C17.1483 26.6963 17.0881 26.6285 17.0095 26.565L17.0093 26.5649ZM16.9173 27.4107C16.8578 27.3627 16.8302 27.3218 16.8137 27.2589C16.7894 27.1442 16.8021 27.0775 16.8985 27.0086C16.9194 26.9941 16.9392 26.9816 16.9568 26.9706C17.0017 26.9423 17.0326 26.9229 17.0327 26.8995C17.0361 26.838 16.7877 26.7747 16.614 26.9486C16.4699 27.1048 16.4244 27.4304 16.6544 27.6842C16.7512 27.7904 16.8684 27.866 16.98 27.938C17.1636 28.0563 17.3322 28.165 17.3708 28.3848C17.3789 28.4348 17.385 28.4906 17.3807 28.5456C17.3815 28.6021 17.365 28.6807 17.3607 28.7009L17.3598 28.7054C17.2828 29.0467 16.9643 29.3723 16.4391 29.2894L16.4163 29.2859C16.3325 29.2733 16.2781 29.2651 16.261 29.2901C16.2205 29.3474 16.4455 29.6093 16.8576 29.5998C17.2607 29.5911 17.6606 29.2842 17.7888 28.8228L17.7897 28.8195C17.7957 28.7976 17.8284 28.6774 17.8312 28.5689C17.8385 28.4821 17.8323 28.3928 17.8164 28.2994C17.738 27.857 17.3952 27.6771 17.1371 27.5416C17.0496 27.4957 16.9718 27.4549 16.9173 27.4107ZM30.6169 23.5381C30.651 23.316 30.8077 23.1564 30.9671 23.1816C31.1263 23.207 31.2279 23.4075 31.1938 23.6297C31.1597 23.8518 31.0029 24.0114 30.8436 23.9862C30.6843 23.9608 30.5828 23.7603 30.6169 23.5381ZM29.2167 23.8297C29.1291 23.9921 29.2357 24.2229 29.4549 24.3449C29.674 24.4671 29.9226 24.4344 30.0102 24.2718C30.0977 24.1094 29.9911 23.8786 29.7719 23.7565C29.5528 23.6345 29.3042 23.6672 29.2167 23.8297Z" fill="#916D53"/>
<path d="M29.6008 22.2625C29.5976 22.0425 29.6233 21.679 29.7764 21.6113C29.7766 21.6113 29.7765 21.6113 29.7767 21.6112C30.0383 21.4884 30.3847 22.395 30.4006 23.2C30.1939 23.0599 29.951 23.0005 29.7012 23.0298C29.6384 22.7706 29.6083 22.5265 29.6008 22.2625" fill="#5B453E"/>
</svg>
