<svg width="48" height="48" viewBox="0 0 48 48" fill="none" xmlns="http://www.w3.org/2000/svg">
<path d="M24 48C37.2548 48 48 37.2548 48 24C48 10.7452 37.2548 0 24 0C10.7452 0 0 10.7452 0 24C0 37.2548 10.7452 48 24 48Z" fill="#1FB6FF"/>
<path d="M21.8178 19.0739C23.4673 19.0917 20.5633 27.6061 20.875 31.3077C21.1895 35.0421 25.3449 33.9669 25.0811 31.817C24.6324 28.1623 27.0807 16.7101 29.5636 16.7101C31.3058 16.7101 27.6341 24.605 28.3566 29.6606C28.8346 33.0054 33.1731 31.8451 32.7322 29.8619C31.2738 23.2984 35.7925 16.9904 35.2861 12.5212C35.0646 10.5657 33.882 9.60942 32.699 9.60006C28.5572 9.56838 25.3579 18.0146 25.3579 18.0146C25.3579 18.0146 25.691 13.2141 22.472 13.0378C17.5435 12.7678 12.6645 25.0332 12.8027 35.9851C12.8467 39.479 17.2197 38.8839 16.9897 36.0983C16.5621 30.9178 19.4667 19.0488 21.8178 19.0739V19.0739Z" fill="white"/>
</svg>
