<svg width="48" height="48" viewBox="0 0 48 48" fill="none" xmlns="http://www.w3.org/2000/svg">
<path d="M0 24C0 10.7452 10.7452 0 24 0C37.2548 0 48 10.7452 48 24C48 37.2548 37.2548 48 24 48C10.7452 48 0 37.2548 0 24Z" fill="#FF6700"/>
<path fill-rule="evenodd" clip-rule="evenodd" d="M24.6846 16H11.4693C11.3204 16 11.2002 16.1176 11.2002 16.2612V31.9086C11.2002 32.0522 11.3204 32.1698 11.4693 32.1698H14.9383C15.0872 32.1698 15.2074 32.0522 15.2074 31.9086V19.6284C15.2074 19.4873 15.3275 19.3698 15.4764 19.3698H22.9527C25.0555 19.3698 25.6511 20.9607 25.6511 21.9873V31.9086C25.6511 32.0522 25.7713 32.1698 25.9202 32.1698H29.3866C29.5355 32.1698 29.6557 32.0522 29.6557 31.9086V20.8091C29.6557 19.8922 29.5434 18.5757 28.3496 17.4184C27.1009 16.209 25.9594 16 24.6846 16ZM36.5311 16H33.0621C32.9132 16 32.793 16.1176 32.793 16.2612V31.9086C32.793 32.0522 32.9132 32.1698 33.0621 32.1698H36.5311C36.68 32.1698 36.8002 32.0522 36.8002 31.9086V16.2612C36.8002 16.1176 36.6774 16 36.5311 16ZM18.6111 22.2328H22.2552C22.4041 22.2328 22.5243 22.3504 22.5243 22.4914V31.9112C22.5243 32.0549 22.4015 32.1724 22.2552 32.1724H18.6111C18.4648 32.1724 18.3421 32.0549 18.3421 31.9112V22.494C18.3421 22.3504 18.4622 22.2328 18.6111 22.2328Z" fill="white"/>
</svg>
