<svg width="48" height="48" viewBox="0 0 48 48" fill="none" xmlns="http://www.w3.org/2000/svg">
<path d="M0 24C0 10.7452 10.7452 0 24 0C37.2548 0 48 10.7452 48 24C48 37.2548 37.2548 48 24 48C10.7452 48 0 37.2548 0 24Z" fill="white"/>
<path d="M38.4 22.6604C38.4 16.7734 32.491 12 25.2004 12C17.9106 12 12 16.7734 12 22.6604C12 28.5474 17.9106 33.3208 25.2004 33.3208C25.8921 33.3208 26.5659 33.2641 27.2293 33.1815C28.426 35.2045 30.7231 36.6251 33.4073 36.8C32.71 35.8484 32.3012 34.7113 32.3012 33.4876C32.3012 32.7336 32.4353 32.0809 32.7157 31.4176C36.1489 29.4933 38.4 26.2902 38.4 22.6604" fill="#4CB350"/>
<path d="M25.7243 19.2H25.6637H23.5695H22.0321H19.9378H18.4004V20.7752V26.4H19.9378V20.7752H21.1826C21.6368 20.7752 21.9994 21.144 22.0235 21.6056L22.0321 21.6504V26.4H23.5695V20.7752H24.8142C25.2685 20.7752 25.6311 21.144 25.6552 21.6056L25.6637 21.6504V26.4H27.2004V20.7176C27.1981 19.8792 26.5388 19.2 25.7243 19.2" fill="white"/>
<path d="M31.2006 19.7657C31.2006 20.3378 30.8425 20.8 30.4006 20.8C29.9586 20.8 29.6006 20.3378 29.6006 19.7657V19.4343C29.6006 18.8632 29.9586 18.4 30.4006 18.4C30.8425 18.4 31.2006 18.8632 31.2006 19.4343V19.7657Z" fill="white"/>
<path d="M29.6006 26.4H31.2006V21.6H29.6006V26.4Z" fill="white"/>
<path d="M11.5002 23.2077C11.5002 22.9358 11.5261 22.6679 11.5512 22.4C10.8186 23.5211 10.4004 24.7961 10.4004 26.1517C10.4004 28.9167 12.125 31.3543 14.7524 32.8011C14.7905 33.0267 14.8197 33.2546 14.8197 33.5021C14.8197 34.4246 14.5117 35.2819 13.9866 36C15.6739 35.8893 17.1586 35.1232 18.1271 33.9849C18.837 34.1144 19.5721 34.1901 20.3306 34.1901C21.3283 34.1901 22.2903 34.068 23.2004 33.8457C16.6148 33.2278 11.5002 28.7034 11.5002 23.2077" fill="#4CB351"/>
</svg>
