<svg width="48" height="48" viewBox="0 0 48 48" fill="none" xmlns="http://www.w3.org/2000/svg">
<path d="M0 24C0 10.7452 10.7452 0 24 0C37.2548 0 48 10.7452 48 24C48 37.2548 37.2548 48 24 48C10.7452 48 0 37.2548 0 24Z" fill="#03214F"/>
<path d="M16.4233 13.9852C15.5714 12.8345 13.8977 12.6552 12.8068 13.6415C11.8653 14.5082 11.7906 15.9728 12.5527 17.0039L17.4694 23.5943L12.5228 30.2445C11.7607 31.2757 11.8204 32.7402 12.7769 33.607C13.8678 34.5933 15.5416 34.414 16.3934 33.2633L23.2976 23.9829C23.462 23.7587 23.462 23.4449 23.2976 23.2207L16.4233 13.9852Z" fill="white"/>
<path d="M31.5764 13.9852C32.4283 12.8345 34.102 12.6552 35.193 13.6415C36.1344 14.5082 36.2092 15.9728 35.447 17.0039L30.5303 23.5943L35.4769 30.2445C36.239 31.2757 36.1793 32.7402 35.2228 33.607C34.1319 34.5933 32.4582 34.414 31.6063 33.2633L24.717 23.968C24.5527 23.7438 24.5527 23.43 24.717 23.2058L31.5764 13.9852Z" fill="#1FBAED"/>
</svg>
