<svg width="48" height="48" viewBox="0 0 48 48" fill="none" xmlns="http://www.w3.org/2000/svg">
<path fill-rule="evenodd" clip-rule="evenodd" d="M0 24C0 10.7452 10.7452 0 24 0C37.2548 0 48 10.7452 48 24C48 37.2548 37.2548 48 24 48C10.7452 48 0 37.2548 0 24ZM17.2828 12.0817C14.8253 12.5211 12.8481 14.34 12.2248 16.731C12 17.5944 11.9847 18.1002 12.0102 24.7982C12.0255 30.9496 12.0307 31.0926 12.1328 31.5678C12.6999 34.1274 14.5188 35.9514 17.104 36.5542C17.4412 36.6309 17.8703 36.6462 20.6343 36.6615C23.4954 36.682 23.7918 36.6769 23.8684 36.6002C23.945 36.5236 23.9501 35.5375 23.9501 24.3589C23.9501 16.0719 23.9348 12.1686 23.899 12.0971C23.848 12.0051 23.7611 12 20.7672 12.0051C18.3353 12.0102 17.6047 12.0255 17.2828 12.0817ZM26.4025 24.3435C26.4025 17.5893 26.4178 12.0511 26.4383 12.0358C26.4536 12.0153 27.4754 12 28.7016 12C30.4795 12 31.0313 12.0153 31.389 12.0766C34.0559 12.5365 36.0842 14.5443 36.59 17.2062C36.6615 17.5791 36.6717 18.4528 36.6717 24.3129C36.6717 30.5732 36.6792 31.3096 36.4818 31.9862C36.4477 32.1031 36.4075 32.2182 36.3601 32.3597C36.2732 32.61 36.1046 33.0136 35.9769 33.2538C34.9806 35.1288 33.1516 36.3907 31.0773 36.6258C30.5868 36.6769 26.6222 36.6973 26.4842 36.6462C26.4076 36.6155 26.4025 35.4864 26.4025 24.3435Z" fill="black"/>
<path fill-rule="evenodd" clip-rule="evenodd" d="M31.894 23.1634C32.691 23.3729 33.345 23.9808 33.6107 24.7574C33.7793 25.2377 33.7742 25.9427 33.6056 26.3821C33.2939 27.1893 32.6808 27.7565 31.894 27.9659C30.6167 28.298 29.2577 27.5265 28.8848 26.2595C28.7724 25.8712 28.7775 25.2172 28.9052 24.8187C29.2884 23.567 30.6167 22.8313 31.894 23.1634Z" fill="black"/>
<path fill-rule="evenodd" clip-rule="evenodd" d="M21.9056 34.6945V24.3435V13.9926L19.9284 13.9977C17.7417 14.0028 17.43 14.0334 16.7556 14.3042C15.412 14.8407 14.4157 16.0311 14.1091 17.4667C14.0018 17.9725 14.0018 30.6839 14.1142 31.1999C14.4566 32.8502 15.6776 34.1172 17.3227 34.5413C17.7059 34.6383 17.9103 34.6486 19.8262 34.669L21.9056 34.6945ZM16.6483 17.6507C16.9089 17.4207 17.3994 17.1755 17.7213 17.1142C19.0087 16.8587 20.2554 17.7375 20.4751 19.0505C20.6641 20.1541 19.9948 21.2321 18.8861 21.6051C18.6153 21.697 18.4723 21.7124 18.0687 21.697C17.6242 21.6817 17.5373 21.6613 17.195 21.4927C16.6994 21.2474 16.3367 20.8847 16.0966 20.3891C15.9331 20.0621 15.9075 19.9548 15.8871 19.5512C15.8462 18.7747 16.1119 18.1156 16.6483 17.6507Z" fill="black"/>
</svg>
