<svg width="48" height="48" viewBox="0 0 48 48" fill="none" xmlns="http://www.w3.org/2000/svg">
<path fill-rule="evenodd" clip-rule="evenodd" d="M0 24C0 37.2548 10.7452 48 24 48C37.2548 48 48 37.2548 48 24C48 10.7452 37.2548 0 24 0C10.7452 0 0 10.7452 0 24ZM36 24.12C36 30.7253 30.6274 36.08 24 36.08C17.3726 36.08 12 30.7253 12 24.12C12 17.5147 17.3726 12.16 24 12.16C30.6274 12.16 36 17.5147 36 24.12Z" fill="white"/>
<path d="M24.0798 32.96C27.5702 32.96 30.3998 28.9842 30.3998 24.08C30.3998 19.1757 27.5702 15.2 24.0798 15.2C20.5893 15.2 17.7598 19.1757 17.7598 24.08C17.7598 28.9842 20.5893 32.96 24.0798 32.96Z" fill="white"/>
</svg>
