<svg width="48" height="48" viewBox="0 0 48 48" fill="none" xmlns="http://www.w3.org/2000/svg">
<path fill-rule="evenodd" clip-rule="evenodd" d="M24 0C10.7452 0 0 10.7452 0 24C0 37.2548 10.7452 48 24 48C37.2548 48 48 37.2548 48 24C48 10.7452 37.2548 0 24 0ZM28 23.5142H28.0011L29.7539 24.7532C29.9778 24.9225 30.2433 24.7848 30.2909 24.7576C30.2498 24.7705 38.4 19.2 38.4 19.2V29.594C38.4 30.7255 37.6961 31.2 36.9046 31.2H28V23.5142ZM28 16V21.8913L29.921 23.1877C29.9717 23.2035 30.0815 23.2047 30.1321 23.1877L38.4 17.2138C38.4 16.5068 37.7846 16 37.4374 16H28ZM10.4 34.8845V12.8451L27.2 9.6V38.4L10.4 34.8845Z" fill="white"/>
<path fill-rule="evenodd" clip-rule="evenodd" d="M18.8637 28.9904C20.0061 28.9904 20.9317 28.5231 21.6416 27.5907C22.3516 26.6583 22.7071 25.4295 22.706 23.9054C22.706 22.4224 22.3635 21.2282 21.6785 20.3217C20.9946 19.4153 20.0971 18.9631 18.9883 18.9631C17.8145 18.9631 16.8715 19.4369 16.1594 20.3834C15.4473 21.3299 15.0918 22.5695 15.0918 24.1022C15.0918 25.5539 15.443 26.7308 16.1432 27.635C16.8444 28.5383 17.7505 28.9904 18.8637 28.9904ZM17.3514 21.6816C17.7189 21.0943 18.2165 20.8 18.8411 20.8C19.448 20.8 19.9258 21.0854 20.2756 21.6562C20.6254 22.228 20.7997 23.0277 20.7997 24.0553C20.7997 25.0409 20.6188 25.8118 20.259 26.3671C19.8993 26.9224 19.4116 27.2 18.797 27.2C18.2011 27.2 17.7189 26.9158 17.3514 26.3439C16.984 25.7731 16.7997 24.9966 16.7997 24.0144C16.7997 23.0466 16.984 22.2689 17.3514 21.6816Z" fill="white"/>
</svg>
