<svg width="48" height="48" viewBox="0 0 48 48" fill="none" xmlns="http://www.w3.org/2000/svg">
<path fill-rule="evenodd" clip-rule="evenodd" d="M0 24C0 37.2548 10.7452 48 24 48C37.2548 48 48 37.2548 48 24C48 10.7452 37.2548 0 24 0C10.7452 0 0 10.7452 0 24ZM9.6 23.9999C9.6 16.0473 16.0473 9.6 23.9999 9.6C31.9527 9.6 38.4 16.0473 38.4 23.9999C38.4 31.9527 31.9527 38.4 23.9999 38.4C16.0473 38.4 9.6 31.9527 9.6 23.9999Z" fill="black"/>
<path d="M24.0783 18.3945L26.7464 20.3498L29.4144 22.314L28.3801 25.4683L27.3373 28.6058L24.0263 28.5969L20.7154 28.5796L19.6984 25.425L18.6992 22.2703L21.3845 20.3237L24.0783 18.3945Z" fill="black"/>
<path d="M22.5234 29.6001C21.7969 29.6001 21.4154 30.0772 21.6876 30.8252L23.5616 35.9836C23.7533 35.9918 23.9481 36.0001 24.142 36.0001C28.9616 36.0001 33.1396 33.4001 35.1996 29.6001H22.5234" fill="black"/>
<path d="M28.8667 26.8317C28.6475 27.4984 28.9815 28.0046 29.7679 27.9999L35.1898 27.9713C35.2555 27.7981 35.322 27.622 35.3806 27.4439C36.8351 23.0215 35.6477 18.3359 32.692 15.2L28.8667 26.8317" fill="black"/>
<path d="M17.8752 23.8794C17.6619 23.1846 17.0879 22.9741 16.4438 23.4763L12 26.9361C12.0483 27.122 12.0976 27.3111 12.1545 27.4965C13.5708 32.1049 17.3157 35.2589 21.6 36L17.8752 23.8794" fill="black"/>
<path d="M21.9889 18.2278C22.5514 17.8054 22.555 17.1926 21.8859 16.7379L17.275 13.6001C17.1213 13.7047 16.9652 13.8112 16.8151 13.924C13.082 16.727 11.4384 21.2875 12.1701 25.6001L21.9889 18.2278" fill="black"/>
<path d="M28.2167 20.5817C28.7794 20.9984 29.3577 20.8192 29.5907 20.039L31.2004 14.661C31.0568 14.5441 30.9108 14.4254 30.7608 14.314C27.0285 11.5495 22.2504 11.3222 18.4004 13.3105L28.2167 20.5817" fill="black"/>
</svg>
