<svg width="48" height="48" viewBox="0 0 48 48" fill="none" xmlns="http://www.w3.org/2000/svg">
<path d="M24 48C37.2548 48 48 37.2548 48 24C48 10.7452 37.2548 0 24 0C10.7452 0 0 10.7452 0 24C0 37.2548 10.7452 48 24 48Z" fill="white"/>
<path fill-rule="evenodd" clip-rule="evenodd" d="M9.59961 23.9998C9.59961 16.0473 16.0469 9.59998 23.9995 9.59998C31.9523 9.59998 38.3996 16.0473 38.3996 23.9998C38.3996 31.9527 31.9523 38.4 23.9995 38.4C16.0469 38.4 9.59961 31.9527 9.59961 23.9998ZM26.7456 20.3499L24.0776 18.3946L21.3837 20.3237L18.6985 22.2704L19.6977 25.4251L20.7147 28.5797L24.0256 28.597L27.3366 28.6059L28.3794 25.4684L29.4136 22.314L26.7456 20.3499Z" fill="#E9EAE7"/>
<path d="M22.5234 29.6C21.7969 29.6 21.4154 30.077 21.6876 30.825L23.5616 35.9834C23.7533 35.9917 23.9481 36 24.142 36C28.9616 36 33.1396 33.4 35.1996 29.6H22.5234" fill="#09A15D"/>
<path d="M28.8658 26.8317C28.6466 27.4984 28.9805 28.0046 29.7669 27.9999L35.1888 27.9713C35.2545 27.7981 35.321 27.622 35.3796 27.4439C36.8341 23.0215 35.6468 18.3359 32.6911 15.2L28.8658 26.8317" fill="#FACF54"/>
<path d="M17.8752 23.8794C17.6619 23.1846 17.0879 22.9741 16.4438 23.4763L12 26.9361C12.0483 27.122 12.0976 27.3111 12.1545 27.4965C13.5708 32.1049 17.3157 35.2589 21.6 36L17.8752 23.8794" fill="#5777AD"/>
<path d="M21.9889 18.2277C22.5514 17.8052 22.555 17.1925 21.8859 16.7378L17.275 13.6C17.1213 13.7046 16.9652 13.8111 16.8151 13.9238C13.082 16.7269 11.4384 21.2874 12.1701 25.6L21.9889 18.2277" fill="#8D458A"/>
<path d="M28.2157 20.5817C28.7784 20.9984 29.3567 20.8192 29.5897 20.039L31.1994 14.661C31.0558 14.5441 30.9099 14.4254 30.7598 14.314C27.0276 11.5495 22.2494 11.3222 18.3994 13.3105L28.2157 20.5817" fill="#D0463F"/>
</svg>
