<svg width="48" height="48" viewBox="0 0 48 48" fill="none" xmlns="http://www.w3.org/2000/svg">
<path fill-rule="evenodd" clip-rule="evenodd" d="M24 48C10.7452 48 0 37.2548 0 24C0 10.7452 10.7452 0 24 0C37.2548 0 48 10.7452 48 24C48 37.2548 37.2548 48 24 48ZM26.1136 18.202L24.8 23.2H26.1827C30.8839 23.2 32.4049 20.701 34.0642 16.7443L36 12.0934C29.4321 11.6075 27.4963 12.9264 26.1136 18.202ZM14.7358 16.758L12.8 12.1169C19.3679 11.5628 21.3037 12.8789 22.6864 18.2126L24 23.2H22.6173C17.916 23.2 16.3951 20.7063 14.7358 16.758ZM22.6864 29.798L24 24.8H22.6173C17.916 24.8 16.3951 27.299 14.7358 31.2557L12.8 35.9066C19.3679 36.3925 21.3037 35.0736 22.6864 29.798ZM34.0642 31.242L36 35.8831C29.4321 36.4372 27.4963 35.1211 26.1136 29.7874L24.8 24.8H26.1827C30.8839 24.8 32.4049 27.2937 34.0642 31.242Z" fill="black"/>
</svg>
