<svg width="48" height="48" viewBox="0 0 48 48" fill="none" xmlns="http://www.w3.org/2000/svg">
<path d="M0 24C0 10.7452 10.7452 0 24 0C37.2548 0 48 10.7452 48 24C48 37.2548 37.2548 48 24 48C10.7452 48 0 37.2548 0 24Z" fill="#B92B27"/>
<path fill-rule="evenodd" clip-rule="evenodd" d="M22.6495 35.4966C23.791 35.4966 24.9436 35.3359 26.0297 35.0459L26.026 35.0477C27.319 37.2643 29.0461 39.1557 32.3062 39.1557C37.6943 39.1557 38.2909 34.1925 38.1801 32.9974H36.2517C36.1519 33.8951 35.5535 35.0367 34.0758 35.0367C32.72 35.0367 31.7447 34.0946 30.8027 32.6779C33.7304 30.4096 35.7437 26.9019 35.7437 22.5852C35.7437 14.8236 29.3527 9.59998 22.6477 9.59998C16.0534 9.59998 9.59961 14.8643 9.59961 22.5852C9.59961 30.236 16.0553 35.4966 22.6495 35.4966ZM20.2335 28.5939C22.5775 28.5939 23.7781 30.6313 24.8014 32.6446C24.1475 32.8367 23.4345 32.9217 22.6477 32.9217C17.6974 32.9217 15.5547 29.427 15.5547 22.5852C15.5547 15.7066 17.6974 12.1749 22.6477 12.1749C27.6718 12.1749 29.8219 15.7066 29.8219 22.5852C29.8219 25.3393 29.4635 27.5632 28.7062 29.2071C27.428 27.2824 25.8192 25.7678 22.6846 25.7678C20.6694 25.7678 19.1012 26.4291 18.1333 27.264L18.9276 28.8525C19.3376 28.6678 19.7865 28.5939 20.2335 28.5939Z" fill="white"/>
</svg>
