<svg width="48" height="48" viewBox="0 0 48 48" fill="none" xmlns="http://www.w3.org/2000/svg">
<path fill-rule="evenodd" clip-rule="evenodd" d="M0 24C0 37.2548 10.7452 48 24 48C37.2548 48 48 37.2548 48 24C48 10.7452 37.2548 0 24 0C10.7452 0 0 10.7452 0 24ZM18.8993 12.8H29.4884L34.5957 15.0468L38.8085 19.7796L24.2043 39.2L9.6 19.7796L13.8232 15.0884L18.8993 12.8Z" fill="black"/>
<path d="M26.3223 35.961L33.0777 24.8442L35.9171 22.4502L26.3223 35.961V35.961Z" fill="black"/>
<path d="M17.2539 25.4695H30.9428L24.204 37.8893L17.2539 25.4695V25.4695Z" fill="black"/>
<path d="M12.4824 22.4502L15.3219 24.8442L22.0773 35.961L12.4824 22.4502V22.4502Z" fill="black"/>
<path d="M14.0625 16.2534L18.4203 18.4378L15.2998 23.2643L10.8066 19.9056L14.0625 16.2534V16.2534Z" fill="black"/>
<path d="M19.8457 13.5605H28.6425L32.9735 15.4705L28.624 17.3651H19.8271L15.5215 15.4721L19.8457 13.5605V13.5605Z" fill="black"/>
<path d="M31.2783 23.8885H16.8613L19.7306 18.7915L28.3242 18.8123L31.2783 23.8885V23.8885Z" fill="black"/>
<path d="M37.5923 19.9056L32.9739 23.3616L29.6895 18.4404L34.3365 16.2534L37.5923 19.9056V19.9056Z" fill="black"/>
</svg>
