<svg width="48" height="48" viewBox="0 0 48 48" fill="none" xmlns="http://www.w3.org/2000/svg">
<path fill-rule="evenodd" clip-rule="evenodd" d="M24 0C10.7452 0 0 10.7452 0 24C0 37.2548 10.7452 48 24 48C37.2548 48 48 37.2548 48 24C48 10.7452 37.2548 0 24 0ZM17.3482 15.5804C17.3482 16.8868 16.1642 17.9516 14.7018 17.9516C13.2418 17.9516 12.0578 16.8868 12.0578 15.5804C12.0578 14.274 13.2418 13.2076 14.7018 13.2076C16.1642 13.2076 17.3482 14.274 17.3482 15.5804ZM12.5088 18.9094L10.8488 21.4694L13.9224 23.3862C13.9224 23.3862 15.9688 24.4318 14.9968 26.3958C14.076 28.2566 9.6 32.3294 9.6 32.3294L13.6136 34.8326C14.672 32.5337 15.3009 31.2298 15.7128 30.3758C16.3793 28.9939 16.4776 28.7899 16.9088 27.4534C17.6248 25.2422 17.7768 23.5566 16.5672 22.3422C15.0016 20.775 14.828 20.6302 12.5088 18.9094ZM22.8315 15.6608C37.6675 11.46 38.5283 18.2368 38.5283 18.2368C38.5283 18.2368 39.5059 22.9184 38.7259 30.2608C37.9435 37.6032 28.3915 34.8768 28.3915 34.8768L28.9099 32.7736L31.1203 33.2504C35.2139 33.5104 34.8147 29.9336 34.8147 29.9336V19.54C34.8491 15.5944 31.1043 15.1848 24.3835 17.588L25.9491 18.0112C25.8115 18.4736 25.3035 19.192 24.6571 19.9824H33.6483V21.8H28.5867V24.0768H33.6267V25.8944H28.5867V29.7104C29.3395 29.4568 30.0451 29.1168 30.6571 28.6632L30.2107 26.9984L32.5923 26.2592L34.5699 31.1136L31.6419 32.3296L31.1203 30.3952C29.8155 31.3968 27.0939 32.8456 22.3499 32.7176C17.2779 32.8472 18.5779 26.9984 18.5779 26.9984L18.7083 26.9304H22.2723C22.2661 27.1248 22.2413 27.3502 22.215 27.5891C22.1389 28.2794 22.0503 29.0828 22.3635 29.5784C22.7059 30.1256 23.5995 30.22 24.1683 30.2464C24.2169 30.2526 24.2683 30.254 24.3197 30.2554C24.3351 30.2558 24.3506 30.2562 24.3659 30.2568V25.8944H19.1939V24.0768H24.3659V21.8H23.0379C21.8739 23.0344 20.8131 24.056 20.8131 24.056L19.2523 22.6912C20.3611 21.5248 21.4707 19.6808 22.1523 18.4448C21.5955 18.6728 21.0227 18.9128 20.4339 19.1736C19.8523 19.9008 19.1939 20.6536 18.4563 21.3904C18.4835 21.432 15.9067 19.9472 15.9067 19.9472C18.5707 17.6712 20.0643 12.8 20.0643 12.8L23.7723 13.836C23.7723 13.836 23.4603 14.5584 22.8315 15.6608Z" fill="black"/>
</svg>
