<svg width="48" height="48" viewBox="0 0 48 48" fill="none" xmlns="http://www.w3.org/2000/svg">
<path d="M0 24C0 10.7452 10.7452 0 24 0C37.2548 0 48 10.7452 48 24C48 37.2548 37.2548 48 24 48C10.7452 48 0 37.2548 0 24Z" fill="#DE572C"/>
<path d="M14.7016 17.9516C16.164 17.9516 17.348 16.8868 17.348 15.5804C17.348 14.274 16.164 13.2076 14.7016 13.2076C13.2416 13.2076 12.0576 14.274 12.0576 15.5804C12.0576 16.8868 13.2416 17.9516 14.7016 17.9516" fill="white"/>
<path d="M12.5084 18.9095L10.8484 21.4695L13.922 23.3863C13.922 23.3863 15.9684 24.4319 14.9964 26.3959C14.0756 28.2567 9.59961 32.3295 9.59961 32.3295L13.6132 34.8327C16.3844 28.8135 16.2108 29.6159 16.9084 27.4535C17.6244 25.2423 17.7764 23.5567 16.5668 22.3423C15.0012 20.7751 14.8276 20.6303 12.5084 18.9095" fill="white"/>
<path d="M38.5278 18.2368C38.5278 18.2368 37.6671 11.46 22.831 15.6608C23.4598 14.5584 23.7719 13.836 23.7719 13.836L20.0638 12.8C20.0638 12.8 18.5703 17.6712 15.9062 19.9472C15.9062 19.9472 18.483 21.432 18.4558 21.3904C19.1934 20.6536 19.8519 19.9008 20.4335 19.1736C21.0223 18.9128 21.5951 18.6728 22.1519 18.4448C21.4703 19.6808 20.3606 21.5248 19.2518 22.6912L20.8127 24.056C20.8127 24.056 21.8734 23.0344 23.0374 21.8H24.3654V24.0768H19.1934V25.8944H24.3654V30.2568C24.299 30.2544 24.231 30.2544 24.1678 30.2464C23.599 30.22 22.7054 30.1256 22.363 29.5784C21.9414 28.9112 22.2479 27.6864 22.2719 26.9304H18.7078L18.5775 26.9984C18.5775 26.9984 17.2775 32.8472 22.3495 32.7176C27.0935 32.8456 29.8151 31.3968 31.1199 30.3952L31.6414 32.3296L34.5695 31.1136L32.5919 26.2592L30.2102 26.9984L30.6566 28.6632C30.0446 29.1168 29.3391 29.4568 28.5863 29.7104V25.8944H33.6262V24.0768H28.5863V21.8H33.6479V19.9824H24.6566C25.303 19.192 25.8111 18.4736 25.9487 18.0112L24.383 17.588C31.1038 15.1848 34.8487 15.5944 34.8143 19.54V29.9336C34.8143 29.9336 35.2134 33.5104 31.1199 33.2504L28.9094 32.7736L28.3911 34.8768C28.3911 34.8768 37.9431 37.6032 38.7255 30.2608C39.5055 22.9184 38.5278 18.2368 38.5278 18.2368" fill="white"/>
</svg>
