<svg width="48" height="48" viewBox="0 0 48 48" fill="none" xmlns="http://www.w3.org/2000/svg">
<path d="M0 24C0 10.7452 10.7452 0 24 0C37.2548 0 48 10.7452 48 24C48 37.2548 37.2548 48 24 48C10.7452 48 0 37.2548 0 24Z" fill="white"/>
<path fill-rule="evenodd" clip-rule="evenodd" d="M12.5753 9.59998H35.3902C36.1913 9.60144 36.9589 9.91752 37.5235 10.4784C38.0882 11.0394 38.4034 11.799 38.3996 12.5897V35.4103C38.4075 37.0505 37.069 38.3878 35.4071 38.4H12.5921C10.9302 38.3878 9.59174 37.0505 9.59965 35.4103V12.5897C9.59168 10.9559 10.92 9.62129 12.5753 9.59998ZM12.0943 24C12.0501 30.5282 17.3732 35.8577 23.9884 35.9081C30.6068 35.8623 35.9351 30.5315 35.8908 24C35.9351 17.4685 30.6068 12.1377 23.9884 12.0919C17.3732 12.1423 12.0501 17.4717 12.0943 24Z" fill="url(#paint0_linear)"/>
<path d="M35.1998 23.9985L26.8252 20L27.498 22.5621H20.5016L21.1744 20L12.7998 24.0015L21.1801 28L20.5073 25.4379H27.5037L26.8309 28L35.1998 24.0015" fill="url(#paint1_linear)"/>
<defs>
<linearGradient id="paint0_linear" x1="38.434" y1="38.4815" x2="38.434" y2="9.59086" gradientUnits="userSpaceOnUse">
<stop stop-color="#096FD2"/>
<stop offset="1" stop-color="#0E8EE9"/>
</linearGradient>
<linearGradient id="paint1_linear" x1="32.388" y1="28.0078" x2="32.3877" y2="20.004" gradientUnits="userSpaceOnUse">
<stop stop-color="#096FD2"/>
<stop offset="1" stop-color="#0E8EE9"/>
</linearGradient>
</defs>
</svg>
