<svg width="48" height="48" viewBox="0 0 48 48" fill="none" xmlns="http://www.w3.org/2000/svg">
<path d="M24 48C37.2548 48 48 37.2548 48 24C48 10.7452 37.2548 0 24 0C10.7452 0 0 10.7452 0 24C0 37.2548 10.7452 48 24 48Z" fill="url(#paint0_linear)"/>
<path d="M8.93862 25.174C11.7442 23.6286 14.876 22.3388 17.8022 21.0424C22.8364 18.919 27.8906 16.8324 32.9958 14.8898C33.9891 14.5588 35.7738 14.2351 35.9488 15.7071C35.8529 17.7907 35.4588 19.8621 35.1884 21.9335C34.5021 26.4887 33.7089 31.0283 32.9354 35.5685C32.6689 37.0808 30.7744 37.8637 29.5622 36.8959C26.649 34.9281 23.7134 32.9795 20.8374 30.9661C19.8953 30.0088 20.7689 28.6341 21.6103 27.9505C24.0097 25.5859 26.5543 23.5769 28.8283 21.0901C29.4417 19.6088 27.6293 20.8572 27.0315 21.2397C23.7467 23.5033 20.5423 25.9051 17.0791 27.8945C15.3101 28.8683 13.2483 28.0361 11.4801 27.4927C9.89468 26.8363 7.57146 26.175 8.93846 25.1741L8.93862 25.174Z" fill="white"/>
<defs>
<linearGradient id="paint0_linear" x1="32.002" y1="8.0016" x2="20.002" y2="36" gradientUnits="userSpaceOnUse">
<stop stop-color="#37AEE2"/>
<stop offset="1" stop-color="#1E96C8"/>
</linearGradient>
</defs>
</svg>
