<svg width="48" height="48" viewBox="0 0 48 48" fill="none" xmlns="http://www.w3.org/2000/svg">
<path d="M24 48C37.2548 48 48 37.2548 48 24C48 10.7452 37.2548 0 24 0C10.7452 0 0 10.7452 0 24C0 37.2548 10.7452 48 24 48Z" fill="white"/>
<path fill-rule="evenodd" clip-rule="evenodd" d="M14.3523 16.8H14.4117C14.7016 17.1326 15.0156 17.4408 15.3306 17.75L15.3307 17.75C15.5081 17.9241 15.6859 18.0986 15.8598 18.2778L19.1421 21.5601V21.6196C18.3503 22.4078 17.5602 23.1996 16.7701 23.9915C15.9747 24.7888 15.1793 25.5861 14.382 26.3796C13.5837 25.5851 12.7872 24.7886 11.9908 23.9922C11.1944 23.1957 10.3979 22.3993 9.59961 21.6047C9.65532 21.4985 9.74531 21.4165 9.83458 21.3351L9.83459 21.335C9.87644 21.2969 9.91813 21.2588 9.95606 21.2185C10.5413 20.6274 11.13 20.0398 11.7186 19.4525L11.7186 19.4524C12.6013 18.5715 13.4835 17.6911 14.3523 16.8ZM28.7895 21.4988C29.2509 21.0487 29.7054 20.5916 30.1599 20.1346C30.4784 19.8144 30.7968 19.4942 31.1175 19.1764C31.3986 18.8926 31.6816 18.6117 31.9645 18.331L31.9647 18.3307L31.9648 18.3306C32.4739 17.8253 32.9826 17.3203 33.479 16.8H33.5384C33.7275 17.0269 33.9375 17.2327 34.1476 17.4384C34.2677 17.556 34.3877 17.6736 34.5038 17.7951L35.7026 18.9938L38.1055 21.3968C38.1223 21.4156 38.142 21.4339 38.1622 21.4526C38.2136 21.5001 38.2678 21.5502 38.2837 21.6196C37.504 22.3776 36.7366 23.1496 35.9687 23.9221L35.9686 23.9221L35.9686 23.9221C35.1493 24.7462 34.3295 25.5709 33.4939 26.3796L28.9269 21.8126C28.9045 21.788 28.8801 21.7655 28.856 21.7431L28.8559 21.7431C28.8319 21.7208 28.808 21.6986 28.7865 21.6749C28.7661 21.6967 28.744 21.7172 28.722 21.7376C28.7057 21.7526 28.6896 21.7676 28.6742 21.7829C27.9097 22.5439 27.1469 23.3066 26.3841 24.0694L26.3838 24.0697C25.6132 24.8403 24.8425 25.6109 24.0701 26.3796C23.3572 25.6767 22.6502 24.9678 21.9431 24.2589L21.9431 24.2589C21.0593 23.3728 20.1755 22.4867 19.2803 21.6121C20.1033 20.7538 20.9491 19.912 21.7948 19.0704L21.7948 19.0704C22.5514 18.3174 23.3079 17.5645 24.0478 16.8H24.1072C24.1519 16.8669 24.1963 16.9263 24.2557 16.9857C24.871 17.595 25.4827 18.2079 26.0946 18.821C26.9885 19.7166 27.8829 20.6126 28.7895 21.4988ZM20.893 29.6224C20.3698 30.1447 19.8469 30.6668 19.3248 31.1888C19.3174 31.2037 19.31 31.2223 19.3026 31.2408C19.2951 31.2594 19.2877 31.2779 19.2803 31.2928C20.0918 32.0931 20.8949 32.8977 21.699 33.7032C21.9618 33.9666 22.2248 34.23 22.4882 34.4934C22.7081 34.704 22.9229 34.9224 23.1379 35.1409C23.4383 35.4464 23.7392 35.7523 24.0552 36.038C24.2822 35.8377 24.5013 35.6133 24.7203 35.3889C24.8666 35.239 25.0129 35.0891 25.1616 34.9464C25.7363 34.3754 26.3111 33.8006 26.8859 33.2258C27.4548 32.657 28.0236 32.0882 28.5924 31.523C28.6208 31.4895 28.6528 31.4595 28.6847 31.4297C28.7445 31.3737 28.8036 31.3183 28.8375 31.2408C27.2483 29.6739 25.674 28.0922 24.0996 26.5104L24.033 26.4807C22.9881 27.5305 21.94 28.577 20.893 29.6224Z" fill="black"/>
</svg>
