<svg width="48" height="48" viewBox="0 0 48 48" fill="none" xmlns="http://www.w3.org/2000/svg">
<g opacity="0.3">
<path d="M21.5996 38.4387H25.0835V21.2516L21.5996 20.0903V38.4387Z" fill="black"/>
<path d="M31.8194 13.6646C31.7807 15.9872 31.0452 17.1872 29.4968 17.1872C27.9098 17.1872 26.2839 16.3356 24.1162 15.2904C21.1743 13.8969 19.7807 13.5098 17.9614 13.5098C14.9807 13.5098 12.6581 15.9872 12.813 20.2452H15.4065C15.4452 17.5356 16.413 16.3356 17.9614 16.3356C19.5098 16.3356 21.1356 17.1485 23.1485 18.1549C26.1291 19.5098 27.6775 20.1291 29.4194 20.1291C32.0904 20.1291 34.5678 18.6969 34.3743 13.6646H31.8194Z" fill="black"/>
<path fill-rule="evenodd" clip-rule="evenodd" d="M0 23.9613C0 10.7613 10.7613 0 23.9613 0C37.2 0 47.9226 10.7613 47.9226 23.9613C47.9226 37.1613 37.1613 47.9226 23.9613 47.9226C10.7613 47.9226 0 37.1613 0 23.9613ZM1.54839 23.9613C1.54839 36.3484 11.6129 46.3742 23.9613 46.3742C36.3097 46.3742 46.3742 36.3097 46.3742 23.9613C46.3742 11.6129 36.3097 1.54839 23.9613 1.54839C11.6129 1.54839 1.54839 11.5742 1.54839 23.9613Z" fill="black"/>
</g>
</svg>
