<svg width="48" height="48" viewBox="0 0 48 48" fill="none" xmlns="http://www.w3.org/2000/svg">
<path fill-rule="evenodd" clip-rule="evenodd" d="M0 24C0 37.2548 10.7452 48 24 48C37.2548 48 48 37.2548 48 24C48 10.7452 37.2548 0 24 0C10.7452 0 0 10.7452 0 24ZM26.0157 10.5114C26.1529 10.6625 26.2906 10.8141 26.4374 10.9547C26.8577 11.3212 27.2216 11.7499 27.5852 12.1785C27.9141 12.5661 28.2429 12.9535 28.6133 13.2947C29.2481 13.9024 29.7317 14.6167 30.2164 15.3325C30.4683 15.7046 30.7205 16.0771 30.9944 16.4352C32.3901 18.5494 33.6217 20.8072 34.258 23.2704C34.9148 24.9535 35.0175 26.7803 34.9764 28.5866C35.0175 30.2287 34.5659 31.8502 33.8268 33.3281C32.5543 35.5655 30.2554 37.0639 27.8537 37.8644C24.8569 38.5828 21.5522 38.7059 18.658 37.4333C18.3738 37.2773 18.079 37.1349 17.7836 36.9922C16.9905 36.6091 16.1922 36.2235 15.5791 35.5655C13.6291 33.9644 12.5002 31.3576 12.8697 28.8329C13.4444 24.3377 16.1333 20.4788 19.0069 17.1536C19.1524 17.4222 19.1514 17.7153 19.1504 18.0094C19.1495 18.2547 19.1486 18.5008 19.2327 18.7341C19.479 19.822 19.869 20.9714 20.6901 21.7514C20.8363 21.6172 20.9837 21.4829 21.1317 21.3483C22.0018 20.5562 22.8887 19.749 23.6255 18.8367C24.4055 17.6873 25.0416 16.4146 25.3084 15.0599C25.3151 14.8731 25.323 14.6853 25.331 14.4968C25.3962 12.9462 25.4632 11.3515 24.8774 9.88737L24.939 9.6C25.3713 9.80175 25.6923 10.1553 26.0157 10.5114Z" fill="black"/>
</svg>
