<svg width="48" height="48" viewBox="0 0 48 48" fill="none" xmlns="http://www.w3.org/2000/svg">
<path fill-rule="evenodd" clip-rule="evenodd" d="M24 0C10.7452 0 0 10.7452 0 24C0 37.2548 10.7452 48 24 48C37.2548 48 48 37.2548 48 24C48 10.7452 37.2548 0 24 0ZM25.0102 17.7306C27.0036 14.6886 29.5976 11.6654 32.8451 8.84334C30.3428 9.67323 28.1241 10.9305 26.4729 13.1938C27.4533 11.2072 29.0528 9.22044 30.8071 7.23384C28.4076 8.91884 26.318 10.8299 25.0023 13.3697L25.9311 9.77376C24.5408 12.1886 23.5863 14.6854 23.2816 17.1271L21.4168 15.9096L21.0813 16.1611C22.7583 19.1032 21.8813 20.6624 21.0556 21.2158C20.6162 21.5123 20.1237 21.8277 19.6142 22.1541L19.6142 22.1541C18.1792 23.0733 16.6099 24.0785 15.7151 24.9879C13.3673 27.3266 12.6965 29.5647 12.903 32.5069C13.1351 36.2793 15.9473 39.4226 19.7138 40.6548C21.3648 41.1831 22.887 41.2584 24.5898 41.2584C27.3245 41.2584 30.1365 40.5543 32.1745 38.8945C34.3416 37.1342 35.6316 34.4937 35.6316 31.7527C35.6316 28.9865 34.445 26.3711 32.3551 24.5103C31.2457 23.5296 29.8526 22.7249 28.4078 21.9453C27.7629 21.593 25.7762 20.0843 26.447 17.9216L25.0102 17.7306ZM21.0822 39.2217C21.7626 39.7903 22.8999 40.1343 23.8922 40.3406V40.2759C23.6019 40.1515 23.1482 39.8211 22.7823 39.2965C22.5421 38.9773 22.3784 38.5694 22.2086 38.1465C22.1779 38.0699 22.1469 37.9927 22.1152 37.9155C21.9345 37.4379 21.7492 36.9355 21.7492 36.4827C21.7492 35.4015 21.8823 34.068 22.6819 33.1626C22.8216 33.0023 22.9428 32.8692 23.0498 32.7518C23.4647 32.2965 23.6656 32.076 23.8922 31.4136V17.5514H23.9077L23.2636 17.278L23.2639 17.2758L21.8038 16.6892C21.9844 16.9408 22.4746 18.0724 22.5779 18.3993C22.8101 19.3297 22.707 20.2353 22.5005 20.6374C21.7804 21.9045 20.7134 22.542 19.6905 23.1532C19.211 23.4397 18.7411 23.7204 18.3212 24.0575C18.1246 24.215 17.9265 24.3699 17.7288 24.5245C15.5912 26.1956 13.495 27.8343 13.7547 32.5069C13.8837 35.0216 15.8961 38.0897 18.9144 39.5231C19.5089 39.8041 20.1348 40.0268 20.7823 40.202C20.0381 39.8883 19.4053 39.4976 18.914 38.945C18.914 38.9199 18.7334 38.7437 18.7334 38.7437C17.6499 37.5365 16.334 35.5249 15.844 33.6388L15.8231 33.5519C15.6519 32.8392 15.5167 32.2759 15.7149 31.5263C16.5724 28.5272 18.4162 27.3063 20.3062 26.0549L20.4362 25.9688C20.5854 25.8747 20.7436 25.7835 20.9036 25.6912C21.2139 25.5122 21.5311 25.3293 21.8034 25.1137C22.5066 24.6052 22.9305 23.1825 23.3209 21.872L23.321 21.8717C23.3745 21.692 23.4274 21.5145 23.4803 21.3417C23.4512 21.4869 23.4216 21.6468 23.3902 21.817L23.3901 21.8174L23.3901 21.8176L23.3901 21.8177C23.1711 23.0027 22.8604 24.6838 21.9582 25.3654L21.9319 25.3834C21.502 25.679 21.0716 25.975 20.6166 26.2706L20.4508 26.3804C18.6494 27.5734 16.8761 28.7478 16.0502 31.627C15.8697 32.2558 16.0246 32.9347 16.1795 33.5633C16.6438 35.3739 17.9595 37.3355 18.9915 38.4924C18.9915 38.5175 19.0431 38.5615 19.0947 38.6055C19.1463 38.6495 19.1979 38.6935 19.1979 38.7187C20.0106 39.6549 20.2826 39.9495 23.11 40.5865C22.3366 40.3371 21.4852 39.9593 20.9523 39.5957C19.1207 38.3633 18.1908 36.8298 18.0361 34.5666C17.933 32.8063 19.045 30.9489 21.212 29.8425C22.7083 29.0881 23.1444 27.9075 23.6087 26.4993C23.2734 28.1088 22.9134 29.1119 21.3655 29.9921C19.5339 31.023 18.2202 33.0628 18.349 34.4458C18.5039 36.1308 19.7149 38.065 21.0822 39.2217ZM24.2068 40.1144V40.2182C25.0691 39.5946 25.5916 38.592 25.8283 37.4379C26.1636 35.929 26.212 34.5214 26.212 33.7668C26.2381 33.1129 25.9291 32.0317 25.6453 31.0508C25.5279 30.6359 25.2516 30.2128 24.9973 29.8233C24.8046 29.5282 24.6245 29.2523 24.5355 29.0139C24.2875 28.3255 24.2946 27.7875 24.3046 27.0248C24.3082 26.7563 24.3121 26.46 24.3053 26.1195C24.3475 26.4485 24.3784 26.7645 24.4073 27.0597L24.4073 27.0599L24.4073 27.0604L24.4073 27.0605V27.0605C24.4843 27.8479 24.5468 28.4878 24.7717 28.8355C24.8187 28.9147 24.87 28.9995 24.924 29.0888L24.9245 29.0895L24.9247 29.0899L24.9247 29.09L24.9248 29.09L24.9248 29.0901C25.1966 29.5395 25.5387 30.1053 25.7752 30.6711C26.2913 31.9033 26.5758 33.2647 26.6017 33.8934C26.6277 34.9748 26.4751 36.6806 26.0881 38.0133C25.8012 38.9767 25.3266 39.7769 24.8415 40.2537L24.8749 40.2303C25.6535 39.4944 26.286 38.2748 26.4984 37.26C27.0145 34.9716 27.4016 32.5574 27.0919 31.1239C27.0742 31.0489 27.055 30.9327 27.0305 30.7837C26.9481 30.2836 26.8047 29.4134 26.4468 28.4835C26.0044 27.3388 25.4385 26.3254 25.0749 25.6744L25.0749 25.6744L25.0748 25.6743C24.8873 25.3386 24.7537 25.0993 24.7186 24.9881C24.3574 24.0326 24.2543 21.593 24.2284 20.2855C24.28 21.8446 24.5896 24.133 24.8219 24.6609C24.8644 24.7687 25.0051 25.016 25.2006 25.3596L25.2006 25.3596L25.2006 25.3597C25.5978 26.0577 26.221 27.153 26.7051 28.2822C27.1472 29.2802 27.2955 30.2165 27.3582 30.6122C27.365 30.6553 27.3708 30.692 27.3759 30.7216C27.7627 33.8399 27.4274 35.1476 26.6017 37.9641C26.4879 38.3495 26.3254 38.7174 26.1358 39.0553C26.6736 38.4145 27.0756 37.7132 27.221 37.1342C28.0467 33.6388 28.3304 29.1625 27.1953 25.7425C26.8771 24.7848 26.3139 23.8924 25.8163 23.1038L25.8163 23.1038L25.8163 23.1038L25.8162 23.1037L25.8162 23.1037C25.386 22.422 25.0049 21.8179 24.8733 21.3165C24.6154 20.3358 24.6359 19.8409 24.7124 18.4971C24.7098 18.6024 24.7096 18.7058 24.7117 18.8073C24.7144 18.5094 24.7166 18.2036 24.7077 17.8909L24.2068 17.6783V31.2775C24.2898 31.5992 24.4026 31.9645 24.523 32.3545C24.697 32.9178 24.8869 33.5325 25.0255 34.1408C25.2061 35.046 25.2621 35.9267 25.1849 36.5805C25.1639 36.7921 25.1464 36.9944 25.1294 37.1901L25.1294 37.1902L25.1294 37.1902C25.084 37.7157 25.0428 38.1929 24.9487 38.6693C24.8587 39.1522 24.6113 39.6322 24.2068 40.1144ZM23.8922 31.4923V39.8262C23.5973 39.6703 23.4534 39.488 23.238 39.2151L23.225 39.1987C22.9156 38.7711 22.7054 38.3436 22.4989 37.8407L22.4859 37.809C22.3342 37.4393 22.1612 37.0176 22.0857 36.5288C21.9826 35.7744 22.0115 34.5942 22.8885 33.387C22.9905 33.2418 23.0805 33.117 23.1606 33.0058C23.5669 32.4422 23.72 32.2298 23.8922 31.4923ZM24.2068 31.6307V39.4361C24.5112 38.6134 24.721 37.41 24.7421 36.6841C24.7454 36.5906 24.749 36.4955 24.7528 36.3989V36.3989C24.7791 35.7167 24.8081 34.9647 24.6949 34.2156C24.6284 33.7184 24.5235 33.2266 24.4235 32.7574C24.3392 32.3623 24.2583 31.9832 24.2068 31.6307Z" fill="black"/>
</svg>
