<svg width="48" height="48" viewBox="0 0 48 48" fill="none" xmlns="http://www.w3.org/2000/svg">
<path fill-rule="evenodd" clip-rule="evenodd" d="M24 0C10.7452 0 0 10.7452 0 24C0 37.2548 10.7452 48 24 48C37.2548 48 48 37.2548 48 24C48 10.7452 37.2548 0 24 0ZM35.741 16.4499C35.8478 16.5011 35.9389 16.5448 36.0112 16.581C36.7975 17.0178 37.409 17.9788 37.409 18.8524V29.9476C37.409 30.8212 36.7975 31.7822 36.0112 32.219L25.7897 38.0724C25.0034 38.5092 23.7803 38.5092 22.9941 38.0724L12.5978 32.3064C11.8115 31.8696 11.2 30.9086 11.2 30.0349V18.8524C11.2 17.9788 11.8115 16.8431 12.5978 16.4062L22.9067 10.7276C23.693 10.2908 24.9161 10.2908 25.7023 10.7276L27.1875 11.6012C27.9738 12.1254 28.0612 13.5232 27.2749 14.8337C26.4886 16.0568 25.8771 17.1925 25.8771 17.1925C25.2655 18.4156 23.693 19.464 22.3825 19.7261L22.0331 19.8134C21.105 19.999 20.0454 19.8779 19.2889 19.7914C18.9772 19.7558 18.717 19.7261 18.5385 19.7261C18.1891 19.7261 17.8396 19.8134 17.4028 20.0755C16.7039 20.5997 16.5292 21.5607 17.0534 22.347C17.6649 23.0459 18.7133 23.2206 19.4122 22.8711C19.534 22.8102 19.6133 22.7068 19.6798 22.6202C19.7087 22.5826 19.7352 22.5481 19.7616 22.5217C19.9231 22.2795 20.6812 22.1865 21.3468 22.1049C21.4016 22.0982 21.4558 22.0915 21.5089 22.0849H22.0331L24.3045 20.8618L21.771 22.6964C21.6836 22.7838 21.5089 22.9585 21.3342 23.0459C20.3732 23.6574 18.7133 24.7058 18.2764 24.7931C18.0144 24.7931 17.7523 24.9679 17.4902 25.1426C16.7039 25.7541 16.5292 26.8025 17.1407 27.5888C17.7523 28.375 18.9754 28.5498 19.7616 27.8509C19.9363 27.6761 20.1111 27.5014 20.1984 27.2393C20.3732 26.8899 20.7226 26.2783 21.1594 25.9289C21.3342 25.7541 21.8583 25.3173 22.1204 25.1426C22.6446 24.7931 22.8193 24.7931 22.9941 25.23L24.0424 23.0459L22.9941 26.7151C22.9067 26.7151 22.9067 26.8025 22.9067 26.8899C22.9067 26.8899 22.732 27.414 22.5573 28.0256C22.4571 28.2592 22.3698 28.4928 22.2952 28.6923C22.1744 29.0151 22.0871 29.2487 22.0331 29.2487C21.9894 29.2487 21.9676 29.2705 21.9457 29.2924C21.9239 29.3142 21.902 29.336 21.8583 29.336C20.81 29.8602 20.4605 31.0833 20.9847 32.1317C21.5089 33.18 22.8193 33.5295 23.8677 33.0053C24.9161 32.4811 25.2655 31.258 24.7413 30.2097C24.7413 30.2097 24.654 30.1223 24.654 30.0349C24.5666 29.9476 24.8287 28.8992 25.1782 27.5888V27.5014C25.5276 26.2783 26.7507 24.9679 27.3622 25.6668C27.9738 26.191 28.1485 26.8899 28.0612 27.3267C28.0612 27.5888 28.0612 27.8509 28.1485 28.1129C28.498 29.0739 29.5463 29.6855 30.5073 29.4234C31.5557 29.1613 32.0799 28.2003 31.8178 27.1519C31.7304 26.8899 31.5557 26.5404 31.381 26.3657C31.2951 26.2512 31.1248 26.071 30.907 25.8406C30.46 25.3677 29.8129 24.6831 29.2842 23.9195L29.1969 23.8321C28.4106 22.6964 28.3232 21.386 28.9348 20.1629L30.5947 17.3672C31.5557 15.8821 33.0409 15.0084 34.0019 15.5326C34.6946 15.9482 35.3324 16.254 35.741 16.4499Z" fill="black"/>
</svg>
