<svg width="48" height="48" viewBox="0 0 48 48" fill="none" xmlns="http://www.w3.org/2000/svg">
<path fill-rule="evenodd" clip-rule="evenodd" d="M0 24C0 37.2548 10.7452 48 24 48C37.2548 48 48 37.2548 48 24C48 10.7452 37.2548 0 24 0C10.7452 0 0 10.7452 0 24ZM14.4043 38.4C11.7509 38.4 9.6 36.2588 9.6 33.5957V14.4043C9.6 11.7509 11.7412 9.6 14.4043 9.6H33.5957C36.2491 9.6 38.4 11.7412 38.4 14.4043V33.5957C38.4 36.2491 36.2588 38.4 33.5957 38.4H14.4043Z" fill="white"/>
<path d="M13.3438 15.0708C13.3438 14.1171 14.1175 13.344 15.0713 13.344H20.4002C21.3543 13.344 22.1278 14.1171 22.1278 15.0708V31.4172C22.1278 32.3709 21.354 33.144 20.4002 33.144H15.0713C14.1172 33.144 13.3438 32.3709 13.3438 31.4172V15.0708Z" fill="white"/>
<path d="M25.8711 15.0728C25.8711 14.118 26.6448 13.344 27.5987 13.344H32.9275C33.8816 13.344 34.6551 14.1179 34.6551 15.0728V24.2151C34.6551 25.17 33.8813 25.944 32.9275 25.944H27.5987C26.6446 25.944 25.8711 25.1701 25.8711 24.2151V15.0728Z" fill="white"/>
</svg>
