<svg width="48" height="48" viewBox="0 0 48 48" fill="none" xmlns="http://www.w3.org/2000/svg">
<path fill-rule="evenodd" clip-rule="evenodd" d="M24 0C10.7452 0 0 10.7452 0 24C0 37.2548 10.7452 48 24 48C37.2548 48 48 37.2548 48 24C48 10.7452 37.2548 0 24 0ZM33.2395 18.1363L37.9851 18.1395C37.9851 18.1395 36.9269 19.5888 36.5941 21.0359C36.9845 21.5717 37.3109 22.167 37.5499 22.824C38.9099 26.5505 37.0219 30.71 33.344 32.0911C31.5637 32.7578 29.6299 32.6799 27.904 31.8746C26.8661 31.3854 25.9808 30.6678 25.2949 29.7824L23.7696 32.103L22.256 29.803C20.9525 31.4492 18.9547 32.5089 16.7136 32.5089C12.7936 32.5089 9.60427 29.2737 9.60427 25.2971C9.60427 23.705 10.1184 22.2373 10.9835 21.0446C10.6453 19.6072 9.6 18.1742 9.6 18.1742L14.048 18.1709C16.6944 16.4153 20.0501 15.4683 23.7664 15.4683C27.3472 15.4683 30.5781 16.3926 33.2395 18.1363Z" fill="white"/>
<path fill-rule="evenodd" clip-rule="evenodd" d="M16.7109 31.0541C18.6629 31.0541 20.3888 30.0475 21.4096 28.5203C21.9258 27.7486 22.2341 26.8362 22.329 25.8621C22.3353 25.8011 22.3434 25.7406 22.3516 25.6801C22.3686 25.5546 22.3856 25.4288 22.3856 25.2982C22.3856 22.1215 19.8394 19.54 16.7109 19.54C13.5824 19.54 11.0352 22.1215 11.0352 25.2982C11.0352 28.4684 13.5813 31.0541 16.7109 31.0541ZM16.6213 28.792C14.6842 28.792 13.1077 27.1955 13.1077 25.2289C13.1077 23.2666 14.6842 21.6712 16.6213 21.6701C18.553 21.6701 20.1296 23.2677 20.1296 25.2289C20.1296 27.1955 18.5541 28.792 16.6213 28.792Z" fill="white"/>
<path fill-rule="evenodd" clip-rule="evenodd" d="M28.505 30.5531C29.882 31.1982 31.4244 31.2577 32.8463 30.7262C35.7818 29.6222 37.289 26.307 36.2052 23.3294C35.1204 20.3508 31.8522 18.8225 28.9156 19.9211C27.4938 20.4536 26.361 21.5176 25.7252 22.9149C25.3007 23.8501 25.1578 24.8621 25.2527 25.8611C25.2996 26.3535 25.386 26.8428 25.5588 27.3168C25.7103 27.7357 25.9172 28.1199 26.1519 28.4814C26.7279 29.3744 27.5279 30.0942 28.505 30.5531ZM30.8655 28.7921C28.9284 28.7921 27.354 27.1956 27.354 25.229C27.354 23.2667 28.9295 21.6713 30.8655 21.6702C32.7994 21.6702 34.3727 23.2678 34.3727 25.229C34.3727 27.1956 32.7994 28.7921 30.8655 28.7921Z" fill="white"/>
<path fill-rule="evenodd" clip-rule="evenodd" d="M16.6234 22.8965C15.3541 22.8965 14.3184 23.9431 14.3184 25.229C14.3184 26.5202 15.3541 27.5679 16.6234 27.5668C17.8906 27.5668 18.921 26.5191 18.921 25.229C18.921 23.9442 17.8906 22.8965 16.6234 22.8965ZM16.6192 24.034C17.2709 24.033 17.8 24.5687 17.8 25.229C17.8 25.8903 17.2709 26.4314 16.6192 26.4314C15.9653 26.4314 15.4373 25.8903 15.4373 25.229C15.4373 24.5687 15.9653 24.034 16.6192 24.034Z" fill="white"/>
<path fill-rule="evenodd" clip-rule="evenodd" d="M30.8674 22.8965C29.597 22.8965 28.5645 23.9431 28.5645 25.229C28.5645 26.5202 29.5959 27.5679 30.8674 27.5668C32.1346 27.5668 33.1639 26.5191 33.1639 25.229C33.1639 23.9442 32.1346 22.8965 30.8674 22.8965ZM30.8663 24.034C31.5181 24.033 32.045 24.5687 32.045 25.229C32.045 25.8903 31.5181 26.4314 30.8663 26.4314C30.2103 26.4314 29.6845 25.8903 29.6845 25.229C29.6845 24.5687 30.2103 24.034 30.8663 24.034Z" fill="white"/>
<path d="M28.4172 18.5541C29.1575 18.277 29.9148 18.1428 30.6626 18.1222C28.6252 17.1957 26.3191 16.7271 23.7644 16.7271C21.229 16.7271 18.8898 17.2076 16.8535 18.0897C20.5388 18.1644 23.5351 21.0933 23.7932 24.7841C23.8562 23.9366 24.0599 23.0989 24.4204 22.3055C25.2151 20.5521 26.6359 19.2208 28.4172 18.5541Z" fill="white"/>
</svg>
