<svg width="48" height="48" viewBox="0 0 48 48" fill="none" xmlns="http://www.w3.org/2000/svg">
<path d="M0 24C0 10.7452 10.7452 0 24 0C37.2548 0 48 10.7452 48 24C48 37.2548 37.2548 48 24 48C10.7452 48 0 37.2548 0 24Z" fill="#323E4D"/>
<path fill-rule="evenodd" clip-rule="evenodd" d="M27.1077 16.1035H29.4578V12.6945H26.9934V15.9885C26.9934 16.052 27.0446 16.1035 27.1077 16.1035ZM27.1595 29.6745C27.1082 29.6745 27.0618 29.6416 27.0488 29.5917C27.0047 29.423 26.9783 29.2168 26.9743 28.962V22.7766C26.9743 22.713 27.0255 22.6615 27.0886 22.6615H31.5443C31.6074 22.6615 31.6586 22.61 31.6586 22.5464V19.0923H34.123V24.5235H29.4387V29.6745H27.1595ZM29.9932 39.0918H29.9928C27.5064 39.0917 25.7801 38.2925 24.6123 37.1638C25.13 37.1983 25.6692 37.2154 26.2296 37.2154C28.9644 37.2154 31.6742 36.2354 32.5705 35.048L32.7501 34.8101L32.2109 33.2016C32.7228 33.088 33.2314 32.8976 33.6509 32.6631L35.1489 37.1325C34.2889 38.2719 32.1489 39.0566 30.1904 39.0902C30.124 39.0913 30.0587 39.0918 29.9932 39.0918Z" fill="#2A323B"/>
<path fill-rule="evenodd" clip-rule="evenodd" d="M32.5703 35.0481C31.6739 36.2354 28.9642 37.2154 26.2294 37.2154C19.433 37.2154 15.757 34.6955 15.757 29.3535V22.6616H12.9727C12.9096 22.6616 12.8584 22.61 12.8584 22.5465V17.1132C12.8584 17.0636 12.8898 17.0197 12.9365 17.004L13.2407 16.9018C15.9669 15.9848 17.4176 14.0747 17.806 10.8909C17.8999 10.121 18.542 9.70569 19.0983 9.70569H26.8788C26.942 9.70569 26.9931 9.75721 26.9931 9.82078V15.9885C26.9931 16.0521 27.0444 16.1036 27.1075 16.1036H31.544C31.6072 16.1036 31.6584 16.1551 31.6584 16.2187V22.5465C31.6584 22.61 31.6072 22.6616 31.544 22.6616H27.0884C27.0252 22.6616 26.974 22.7131 26.974 22.7767V28.9621C26.9781 29.2169 27.0045 29.4231 27.0486 29.5917C27.0616 29.6416 27.1079 29.6745 27.1592 29.6745H30.9463C30.9954 29.6745 31.039 29.706 31.0547 29.7528L32.7498 34.8101L32.5703 35.0481ZM27.1569 36.1016C28.8356 36.073 30.5871 35.4594 31.4406 34.6335C31.4728 34.6023 31.4828 34.5551 31.4685 34.5125L30.3351 31.1307C30.3144 31.0689 30.2476 31.038 30.187 31.0612C29.5394 31.3102 28.83 31.4552 28.2107 31.4552C26.6737 31.4552 25.8811 30.6196 25.8548 28.9712L25.8547 21.65C25.8547 21.5865 25.9059 21.5349 25.9691 21.5349H30.4247C30.4879 21.5349 30.539 21.4834 30.539 21.4198V17.3453C30.539 17.2818 30.4879 17.2302 30.4247 17.2302H25.9882C25.925 17.2302 25.8738 17.1787 25.8738 17.1152V10.9474C25.8738 10.8838 25.8226 10.8323 25.7595 10.8323H22.1954C22.1938 10.8323 22.0373 10.8376 22.014 11.0285C21.5948 14.4649 20.0011 16.6866 17.1474 17.8048C17.104 17.8218 17.0748 17.8636 17.0748 17.9106V21.4198C17.0748 21.4834 17.126 21.5349 17.1891 21.5349H19.8591C19.9223 21.5349 19.9734 21.5865 19.9734 21.65V29.3535C19.9734 31.8604 21.4466 36.1029 26.9683 36.1032H26.9688C27.0313 36.1032 27.0935 36.1027 27.1569 36.1016Z" fill="#FFFFFE"/>
<path d="M18.8539 24.4621H15.7568V22.6616H18.753C18.8087 22.6616 18.8539 22.7071 18.8539 22.7632V24.4621" fill="#83838D"/>
</svg>
