<svg width="48" height="48" viewBox="0 0 48 48" fill="none" xmlns="http://www.w3.org/2000/svg">
<path fill-rule="evenodd" clip-rule="evenodd" d="M24 0C10.7452 0 0 10.7452 0 24C0 37.2548 10.7452 48 24 48C37.2548 48 48 37.2548 48 24C48 10.7452 37.2548 0 24 0ZM32.5701 35.0481C31.6738 36.2354 28.964 37.2154 26.2293 37.2154C19.4329 37.2154 15.7569 34.6955 15.7569 29.3535V22.6615H12.9726C12.9094 22.6615 12.8583 22.61 12.8583 22.5465V17.1132C12.8583 17.0636 12.8897 17.0197 12.9364 17.004L13.2406 16.9018C15.9667 15.9847 17.4174 14.0747 17.8059 10.8909C17.8998 10.121 18.5418 9.70566 19.0982 9.70566H26.8787C26.9418 9.70566 26.993 9.75718 26.993 9.82075V15.9885C26.993 16.052 27.0442 16.1036 27.1073 16.1036H31.5439C31.607 16.1036 31.6582 16.1551 31.6582 16.2186V22.5465C31.6582 22.61 31.607 22.6615 31.5439 22.6615H27.0882C27.0251 22.6615 26.9739 22.7131 26.9739 22.7766V28.9621C26.978 29.2168 27.0043 29.423 27.0484 29.5917C27.0614 29.6416 27.1078 29.6745 27.1591 29.6745H30.9462C30.9952 29.6745 31.0388 29.706 31.0545 29.7528L32.7497 34.8101L32.5701 35.0481Z" fill="black"/>
<path d="M31.44 34.6335C30.5866 35.4594 28.835 36.0729 27.1563 36.1015C27.0929 36.1026 27.0307 36.1032 26.9683 36.1032H26.9677C21.4461 36.1029 19.9729 31.8604 19.9729 29.3535V21.6499C19.9729 21.5864 19.9217 21.5349 19.8585 21.5349H17.1886C17.1254 21.5349 17.0742 21.4834 17.0742 21.4198V17.9105C17.0742 17.8636 17.1034 17.8218 17.1469 17.8047C20.0006 16.6866 21.5942 14.4648 22.0134 11.0284C22.0368 10.8375 22.1932 10.8323 22.1948 10.8323H25.7589C25.8221 10.8323 25.8732 10.8838 25.8732 10.9474V17.1151C25.8732 17.1786 25.9244 17.2302 25.9876 17.2302H30.4241C30.4873 17.2302 30.5385 17.2817 30.5385 17.3453V21.4198C30.5385 21.4834 30.4873 21.5349 30.4241 21.5349H25.9685C25.9053 21.5349 25.8541 21.5864 25.8541 21.65L25.8543 28.9711C25.8805 30.6196 26.6731 31.4552 28.2101 31.4552C28.8295 31.4552 29.5388 31.3102 30.1865 31.0612C30.247 31.0379 30.3138 31.0689 30.3345 31.1307L31.4679 34.5124C31.4822 34.5551 31.4722 34.6023 31.44 34.6335" fill="black"/>
<path d="M18.8549 24.4621H15.7578V22.6616H18.754C18.8097 22.6616 18.8549 22.7071 18.8549 22.7632V24.4621" fill="black"/>
</svg>
