<svg width="48" height="48" viewBox="0 0 48 48" fill="none" xmlns="http://www.w3.org/2000/svg">
<path fill-rule="evenodd" clip-rule="evenodd" d="M0 24C0 37.2548 10.7452 48 24 48C37.2548 48 48 37.2548 48 24C48 10.7452 37.2548 0 24 0C10.7452 0 0 10.7452 0 24ZM10.4529 16.2088L12.3312 11.2H37.9951V28.7317L30.4825 36.2416H24.8493L21.0948 40H17.3366V36.2416H10.4529V16.2088Z" fill="white"/>
<path fill-rule="evenodd" clip-rule="evenodd" d="M14.834 13.7029H35.4922V27.4771L31.1092 31.8603H24.2245L20.4711 35.6135V31.8603H14.834V13.7029ZM21.7204 26.2265H24.2245V18.7143H21.7204V26.2265ZM31.1092 26.2265H28.6056V18.7143H31.1092V26.2265Z" fill="white"/>
</svg>
