<svg width="48" height="48" viewBox="0 0 48 48" fill="none" xmlns="http://www.w3.org/2000/svg">
<path d="M24 48C37.2548 48 48 37.2548 48 24C48 10.7452 37.2548 0 24 0C10.7452 0 0 10.7452 0 24C0 37.2548 10.7452 48 24 48Z" fill="#DD4814"/>
<path fill-rule="evenodd" clip-rule="evenodd" d="M34.8 11.8992C35.6567 10.4012 35.1492 8.48533 33.6667 7.61996C32.1852 6.75517 30.2893 7.26866 29.4326 8.76672C28.5771 10.2648 29.0851 12.1812 30.5671 13.046C32.0491 13.9119 33.9456 13.3979 34.8 11.8992ZM8.69971 27.1326C10.4113 27.1326 11.7987 25.7308 11.7987 24C11.7987 22.2699 10.4108 20.867 8.69971 20.867C6.98751 20.867 5.59961 22.2699 5.59961 24C5.59961 25.7302 6.98751 27.1326 8.69971 27.1326ZM33.6667 40.3795C32.1835 41.2449 30.2893 40.7314 29.4326 39.2334C28.5771 37.7353 29.0851 35.82 30.5671 34.9541C32.0491 34.0887 33.9445 34.6016 34.8 36.1003C35.6567 37.5989 35.1475 39.5147 33.6667 40.3795ZM33.1144 23.208C32.7187 18.6445 28.9292 15.0656 24.3102 15.0656C22.9807 15.0656 21.7187 15.363 20.5865 15.896L18.4043 11.9342C20.1851 11.0419 22.1904 10.5404 24.3102 10.5404C25.5212 10.5404 26.6926 10.7043 27.8072 11.0098C28.0039 12.2826 28.7466 13.458 29.9361 14.152C31.1244 14.8461 32.5016 14.9091 33.6899 14.4455C35.9322 16.6943 37.387 19.7448 37.5996 23.1375L33.1144 23.208ZM15.472 24C15.472 20.977 16.9568 18.3052 19.2297 16.6885L16.9268 12.7978C14.2593 14.5985 12.2715 17.3459 11.4336 20.5655C12.4257 21.3736 13.0607 22.6114 13.0607 24C13.0607 25.3886 12.4257 26.6265 11.4336 27.4346C12.2721 30.6548 14.2593 33.4016 16.9268 35.2028L19.2297 31.3121C16.9568 29.6954 15.472 27.0231 15.472 24ZM20.5865 32.1053C21.7187 32.6371 22.9807 32.9351 24.3102 32.9351C28.9292 32.9351 32.7187 29.3556 33.1144 24.7915L37.5996 24.8631C37.387 28.2541 35.9322 31.3052 33.6899 33.5552C32.5016 33.0921 31.1244 33.1546 29.9361 33.8486C28.7466 34.5426 28.0039 35.7174 27.8072 36.9909C26.6926 37.2969 25.5212 37.4602 24.3102 37.4602C22.1904 37.4602 20.1851 36.9593 18.4043 36.067L20.5865 32.1053Z" fill="white"/>
</svg>
