<svg width="48" height="48" viewBox="0 0 48 48" fill="none" xmlns="http://www.w3.org/2000/svg">
<path d="M17.0571 11.958V21.7064C17.0571 23.2833 16.7663 24.4302 16.0391 25.147C15.4573 25.8638 14.2938 26.2938 12.8394 26.2938C11.3849 26.2938 10.3669 26.0071 9.63965 25.2903C9.05788 24.5735 8.62156 23.4267 8.62156 21.7064V11.958H3.24023V21.7064C3.24023 24.5735 3.822 26.7239 4.98553 28.3009C5.13097 28.4442 5.27641 28.7309 5.56729 28.8743C7.16715 30.4512 9.4942 31.168 12.8394 31.168C16.0391 31.168 18.5116 30.4512 19.966 28.8743C20.1114 28.7309 20.2569 28.4442 20.5477 28.3009C21.7113 26.7239 22.293 24.5735 22.293 21.7064V11.958H17.0571Z" fill="black"/>
<path fill-rule="evenodd" clip-rule="evenodd" d="M25.7832 11.958V36.3289V36.4722H31.31V31.3113V29.4477C31.31 29.1404 31.2682 28.8331 31.2294 28.5478C31.1959 28.3008 31.1645 28.0703 31.1645 27.8707C31.8917 29.0176 32.7644 29.8778 33.7825 30.4512C34.8006 31.0246 36.1095 31.3113 37.5639 31.3113C40.0364 31.3113 42.0726 30.4512 43.527 28.5875C45.1269 26.7239 45.8541 24.2868 45.8541 21.2763C45.8541 18.1224 44.9814 15.6853 43.527 13.965C42.0726 12.2447 39.891 11.3845 37.2731 11.3845C35.8186 11.3845 34.6551 11.6712 33.637 12.2447C32.6189 12.8181 31.7463 13.6783 31.0191 14.9685V11.958H25.7832ZM32.1826 25.0036C31.31 24.1434 30.8736 22.8532 30.8736 21.1329C30.8736 19.4126 31.1645 18.1224 32.1826 17.1189C33.0553 16.1153 34.2188 15.6853 35.6732 15.6853C37.1276 15.6853 38.2911 16.1153 39.1638 17.1189C40.0364 18.1224 40.4728 19.4126 40.4728 21.1329C40.4728 22.7098 40.0364 24.0001 39.1638 25.0036C38.2911 26.0071 37.1276 26.4372 35.6732 26.4372C34.2188 26.4372 33.0553 26.0071 32.1826 25.0036Z" fill="black"/>
<path d="M20.8396 36.1855C20.6941 36.0422 20.5487 35.7555 20.2578 35.6121C18.6579 34.0352 16.3309 33.3184 12.9857 33.3184C9.78602 33.3184 7.31352 34.0352 5.85911 35.6121C5.71367 35.7555 5.56823 36.0422 5.27734 36.1855H20.8396Z" fill="black"/>
</svg>
