<svg width="48" height="48" viewBox="0 0 48 48" fill="none" xmlns="http://www.w3.org/2000/svg">
<path d="M24 48C37.2548 48 48 37.2548 48 24C48 10.7452 37.2548 0 24 0C10.7452 0 0 10.7452 0 24C0 37.2548 10.7452 48 24 48Z" fill="white"/>
<path d="M9.62161 23.2346C9.923 15.7332 17.0225 9.14265 24.5641 9.62488C32.5879 9.93298 39.5133 18.0506 37.9662 26.0744C36.6735 26.061 35.3876 25.5854 34.6843 24.4401C32.8157 21.6204 31.9584 18.2783 30.2571 15.3648C29.0382 15.559 27.8259 15.7934 26.6203 16.0613C27.0824 19.3365 29.1386 22.0759 29.8955 25.2573C29.5472 28.0368 26.051 29.5974 23.6398 28.3047C21.6372 27.5345 20.8134 25.3979 20.1169 23.5493C19.4471 21.6204 18.6903 19.7183 17.6722 17.9434C16.125 17.9099 14.531 17.9568 13.1312 18.7069C14.3904 25.1568 17.92 30.9034 19.3801 37.2997C13.5531 35.4377 9.25324 29.383 9.62161 23.2346Z" fill="#00853E"/>
<path d="M27.94 31.2517C29.4402 30.448 30.5587 29.1219 31.838 28.0302C33.6397 28.4655 35.4748 28.7267 37.3234 28.8473C35.2739 33.5557 30.9807 37.206 25.8972 38.1838C24.5308 36.1879 23.6668 33.9174 22.9971 31.6067C24.6447 31.6 26.3593 31.8143 27.94 31.2517Z" fill="#00853E"/>
</svg>
