<svg width="48" height="48" viewBox="0 0 48 48" fill="none" xmlns="http://www.w3.org/2000/svg">
<path d="M0 24C0 10.7452 10.7452 0 24 0C37.2548 0 48 10.7452 48 24C48 37.2548 37.2548 48 24 48C10.7452 48 0 37.2548 0 24Z" fill="#1A1919"/>
<path fill-rule="evenodd" clip-rule="evenodd" d="M28.1553 17.3007C27.8618 16.4409 26.5626 12.8264 24.1673 8.80005C24.1673 8.80005 27.5672 11.0581 28.1528 17.2654C28.1528 17.2654 28.1539 17.2787 28.1553 17.3007ZM28.1553 17.3007C28.1984 17.4267 28.2201 17.4945 28.2201 17.4945C32.5889 29.1767 23.0656 35.1935 23.0656 35.1935C22.2886 35.23 21.5996 35.1015 21.5996 35.1015C29.0895 32.2577 28.2092 18.0774 28.1553 17.3007ZM36.1246 9.45462C34.9083 12.0431 32.6566 12.5239 32.6566 12.5239C30.4045 13.0968 29.6162 13.9672 29.6162 13.9672C27.3645 16.2347 29.1384 18.9848 29.1384 18.9848C34.0001 17.8767 35.7775 13.8744 35.7775 13.8744C35.5614 16.563 29.774 19.7395 29.774 19.7395C31.6881 21.6174 33.5181 21.391 34.7259 20.671C36.3272 19.7163 37.095 17.6254 37.095 17.6254C38.6466 12.9823 36.1246 9.45462 36.1246 9.45462Z" fill="#E2652C"/>
<path d="M30.2976 27.3091C30.2976 28.7394 29.9615 30.0728 29.2899 31.3091C28.6176 32.5454 27.7101 33.5001 26.5664 34.1729C25.4227 34.8455 24.1672 35.1818 22.7997 35.1818C21.4324 35.1818 20.1769 34.8455 19.0332 34.1729C17.8895 33.5001 16.982 32.5454 16.3101 31.3091C15.6381 30.0728 15.3018 28.7394 15.3018 27.3091C15.3018 25.0909 16.039 23.1998 17.5126 21.6364C18.9858 20.0726 20.7485 19.291 22.7997 19.291C23.7757 19.291 24.6862 19.472 25.534 19.8297C25.6187 18.9238 25.9317 18.0806 26.2783 17.3922C25.2116 16.9989 24.0559 16.8 22.8087 16.8C19.8432 16.8 17.3895 17.9091 15.4479 20.1273C13.6823 22.1395 12.7998 24.5153 12.7998 27.2547C12.7998 30.0183 13.7324 32.4337 15.5975 34.5C17.4628 36.5667 19.8664 37.6 22.8087 37.6C25.7387 37.6 28.1368 36.5667 30.0019 34.5C31.867 32.4337 32.7998 30.0183 32.7998 27.2547C32.7998 25.7757 32.5425 24.4046 32.0324 23.1392C31.1761 23.6745 30.3622 23.9546 29.6883 24.0975C30.0933 25.0787 30.2976 26.1487 30.2976 27.3091" fill="#FFFFFE"/>
</svg>
