<svg width="48" height="48" viewBox="0 0 48 48" fill="none" xmlns="http://www.w3.org/2000/svg">
<path d="M0 24C0 10.7452 10.7452 0 24 0C37.2548 0 48 10.7452 48 24C48 37.2548 37.2548 48 24 48C10.7452 48 0 37.2548 0 24Z" fill="#31AFD8"/>
<path d="M37.5858 19.3621C37.4576 22.1654 35.4998 26.0033 31.7121 30.8757C27.7965 35.9633 24.4834 38.5083 21.7744 38.5083C20.0949 38.5083 18.6744 36.9596 17.5137 33.8601C16.7389 31.0188 15.9648 28.178 15.1896 25.3368C14.3274 22.2388 13.4035 20.6882 12.4145 20.6882C12.199 20.6882 11.4451 21.1416 10.1542 22.0442L8.7998 20.2993C10.2212 19.0509 11.6231 17.8022 13.0023 16.5518C14.898 14.9145 16.3221 14.0527 17.2706 13.966C19.511 13.7504 20.8906 15.2821 21.4084 18.5611C21.968 22.0994 22.3556 24.2996 22.5728 25.1608C23.2197 28.0963 23.9308 29.5625 24.7069 29.5625C25.309 29.5625 26.215 28.6107 27.4226 26.7057C28.6278 24.8021 29.2741 23.3534 29.3611 22.3577C29.5335 20.7148 28.8872 19.8912 27.4226 19.8912C26.7331 19.8912 26.0221 20.0499 25.2907 20.3634C26.7065 15.7282 29.4106 13.4768 33.4019 13.6053C36.361 13.692 37.7568 15.6109 37.5858 19.3621" fill="#FFFFFE"/>
</svg>
