<svg width="48" height="48" viewBox="0 0 48 48" fill="none" xmlns="http://www.w3.org/2000/svg">
<path d="M0 24C0 10.7452 10.7452 0 24 0C37.2548 0 48 10.7452 48 24C48 37.2548 37.2548 48 24 48C10.7452 48 0 37.2548 0 24Z" fill="#00B488"/>
<path d="M23.3907 39.0155C22.2326 38.8313 21.2573 37.9715 19.9164 36.6205C15.8935 32.8131 11.7488 22.619 11.2002 14.0217H16.0764C17.3563 23.0489 19.3678 29.1899 23.6954 34.1641C25.8287 32.1376 27.5963 29.3127 28.8154 27.0405C26.4383 25.9352 25.0974 23.8472 24.366 21.9435C22.1107 16.0481 24.0612 9.7843 30.4612 9.6001C35.1545 9.6001 36.7393 13.1619 36.8002 16.5394C36.7393 18.5659 36.4345 19.9784 35.825 21.6979C34.484 22.0049 33.0821 21.6365 32.2288 21.0224C31.5583 20.5311 31.3145 20.7767 31.7412 19.4257C32.2288 17.7062 32.4116 13.9602 30.0955 13.8988C28.5107 14.0216 28.0841 15.9867 28.0841 17.3378C28.5107 22.8646 32.046 25.321 36.7393 24.0929V27.6546C35.2155 28.0231 35.1545 28.0231 33.265 28.0845C32.1679 30.6637 26.1945 39.5682 23.3298 39.0155H23.3907V39.0155Z" fill="white"/>
</svg>
