<svg width="48" height="48" viewBox="0 0 48 48" fill="none" xmlns="http://www.w3.org/2000/svg">
<path fill-rule="evenodd" clip-rule="evenodd" d="M24 0C10.7452 0 0 10.7452 0 24C0 37.2548 10.7452 48 24 48C37.2548 48 48 37.2548 48 24C48 10.7452 37.2548 0 24 0ZM23.3296 39.0154H23.3905C22.2324 38.8312 21.2572 37.9714 19.9162 36.6204C15.8934 32.813 11.7486 22.6189 11.2 14.0216H16.0762C17.3561 23.0488 19.3676 29.1898 23.6952 34.164C25.8286 32.1375 27.5961 29.3126 28.8152 27.0405C26.4381 25.9351 25.0972 23.8471 24.3658 21.9434C22.1105 16.048 24.061 9.78421 30.461 9.6C35.1543 9.6 36.7391 13.1618 36.8 16.5393C36.7391 18.5658 36.4343 19.9783 35.8248 21.6978C34.4838 22.0048 33.082 21.6364 32.2286 21.0223C32.0975 20.9262 31.9827 20.8583 31.886 20.8012C31.4884 20.566 31.3978 20.5124 31.741 19.4256C32.2286 17.7061 32.4114 13.9601 30.0953 13.8987C28.5105 14.0215 28.0839 15.9866 28.0839 17.3377C28.5106 22.8645 32.0458 25.3209 36.7391 24.0928V27.6545C35.2247 28.0207 35.1551 28.023 33.2996 28.0833L33.2648 28.0844C32.1677 30.6636 26.1943 39.5681 23.3296 39.0154Z" fill="black"/>
</svg>
