<svg width="49" height="49" viewBox="0 0 49 49" fill="none" xmlns="http://www.w3.org/2000/svg">
<path fill-rule="evenodd" clip-rule="evenodd" d="M32.2681 0.899902H17.5327C4.08458 0.899902 0.900391 4.08409 0.900391 17.5322V32.2676C0.900391 45.7157 4.08458 48.8999 17.5327 48.8999H32.2681C45.7162 48.8999 48.9004 45.7157 48.9004 32.2676V17.5322C48.9004 4.08409 45.7162 0.899902 32.2681 0.899902ZM39.1446 16.1434C40.1947 16.1434 40.4318 16.6854 40.1947 17.4306C39.8246 19.1385 36.7516 23.6691 35.7998 25.0723C35.6189 25.339 35.5146 25.4927 35.52 25.4927C35.1474 26.1024 35.0119 26.3734 35.52 27.0509C35.7037 27.3014 36.0932 27.6836 36.5384 28.1204C36.9962 28.5697 37.5129 29.0767 37.9251 29.5576C39.4156 31.2513 40.5673 32.6741 40.8722 33.6564C41.1432 34.6388 40.6689 35.1469 39.6527 35.1469H36.1637C35.239 35.1469 34.7624 34.6159 33.7466 33.4842C33.3111 32.999 32.7764 32.4033 32.0649 31.6917C29.9985 29.6931 29.0839 29.4221 28.5758 29.4221C27.8644 29.4221 27.6612 29.5915 27.6612 30.6077V33.758C27.6612 34.6049 27.3902 35.113 25.1545 35.113C21.4622 35.113 17.3634 32.8773 14.484 28.7108C10.1481 22.6134 8.96252 18.0065 8.96252 17.0919C8.96252 16.5837 9.1319 16.1095 10.1481 16.1095H13.6711C14.5518 16.1095 14.8905 16.4821 15.2293 17.4645C16.9569 22.444 19.8362 26.8138 21.0218 26.8138C21.4622 26.8138 21.6654 26.6106 21.6654 25.4927V20.3438C21.5818 18.8803 21.0723 18.2426 20.6945 17.7698C20.4602 17.4765 20.2766 17.2467 20.2766 16.9225C20.2766 16.516 20.6153 16.1095 21.1573 16.1095H26.645C27.3902 16.1095 27.6612 16.516 27.6612 17.3967V24.341C27.6612 25.0862 27.9661 25.3572 28.2032 25.3572C28.6435 25.3572 29.0162 25.0862 29.8291 24.2732C32.3358 21.4616 34.1312 17.1257 34.1312 17.1257C34.3683 16.6176 34.7748 16.1434 35.6555 16.1434H39.1446Z" fill="white"/>
</svg>
