<svg width="48" height="48" viewBox="0 0 48 48" fill="none" xmlns="http://www.w3.org/2000/svg">
<path d="M24 48C37.2548 48 48 37.2548 48 24C48 10.7452 37.2548 0 24 0C10.7452 0 0 10.7452 0 24C0 37.2548 10.7452 48 24 48Z" fill="white"/>
<path d="M12 28.4001C12 31.7143 16.2993 34.4001 21.6 34.4001C26.9007 34.4001 31.2 31.7143 31.2 28.4001C31.2 25.086 26.9007 22.4001 21.6 22.4001C16.2993 22.4001 12 25.086 12 28.4001" fill="white"/>
<path fill-rule="evenodd" clip-rule="evenodd" d="M30.9454 23.9201L30.9554 23.9232C32.5873 24.4348 34.4035 25.6722 34.3996 27.8536C34.3996 31.4588 29.2568 36 21.5249 36C15.629 36 9.59961 33.1087 9.59961 28.3573C9.59961 25.8705 11.157 22.9951 13.8362 20.2863C17.4178 16.6652 21.5956 15.0153 23.1647 16.6057C23.8551 17.3077 23.9218 18.5174 23.4785 19.965C23.2431 20.6908 24.1532 20.2902 24.1532 20.2902C27.0483 19.0647 29.5745 18.9933 30.4964 20.3259C30.9907 21.0398 30.9436 22.0353 30.4886 23.1895C30.2824 23.7165 30.5507 23.7989 30.9454 23.9201ZM12.4672 29.4916C12.7732 32.6129 16.8372 34.7665 21.5446 34.2946C26.248 33.8266 29.8178 30.9115 29.5079 27.7862C29.2058 24.6649 25.1418 22.5113 20.4344 22.9832C15.731 23.4552 12.1612 26.3663 12.4672 29.4916Z" fill="#E6162D"/>
<path d="M36.3756 15.2385C34.4263 13.2053 31.5514 12.4313 28.8977 12.9627V12.9627C28.2834 13.0859 27.8943 13.6558 28.0254 14.2296C28.1564 14.8072 28.7584 15.1731 29.3727 15.0498C31.2606 14.6725 33.3042 15.2231 34.6884 16.6672C36.0725 18.1113 36.4493 20.0791 35.8555 21.8042V21.8042C35.663 22.3665 35.9906 22.9672 36.5885 23.1482C37.1865 23.3292 37.8253 23.0211 38.0178 22.4627V22.4589C38.8532 20.0367 38.3249 17.2679 36.3756 15.2385" fill="#FF9933"/>
<path d="M33.3788 18.043C32.3935 17.0057 30.941 16.6101 29.6031 16.8846C29.0552 16.9936 28.707 17.5102 28.8216 18.0309C28.9406 18.5516 29.4799 18.8826 30.0236 18.7696V18.7696C30.6776 18.6364 31.3911 18.8301 31.8711 19.3347C32.351 19.8432 32.4827 20.5334 32.2745 21.1389V21.1389C32.1047 21.6434 32.3935 22.1883 32.9286 22.3538C33.4637 22.5153 34.0329 22.2408 34.207 21.7322C34.6275 20.4931 34.3641 19.0804 33.3788 18.043" fill="#FF9933"/>
<path fill-rule="evenodd" clip-rule="evenodd" d="M16.4149 28.3053C17.4509 26.2999 20.1453 25.1637 22.5305 25.7577C24.9993 26.3677 26.2609 28.5884 25.25 30.7493C24.2265 32.954 21.2857 34.1341 18.7876 33.3647C16.3815 32.6231 15.3581 30.3506 16.4149 28.3053ZM22.3091 29.027C22.1337 29.314 21.7452 29.4496 21.4444 29.33C21.1437 29.2143 21.0518 28.8914 21.223 28.6123C21.3985 28.3332 21.7703 28.1977 22.0668 28.3093C22.3676 28.413 22.4762 28.7359 22.3091 29.027ZM20.7092 30.9805C20.2246 31.7181 19.1845 32.041 18.4033 31.7021C17.6347 31.3672 17.405 30.5101 17.8895 29.7884C18.3699 29.0708 19.3725 28.7519 20.1495 29.0628C20.9348 29.3858 21.1854 30.235 20.7092 30.9805Z" fill="black"/>
</svg>
