<svg width="48" height="48" viewBox="0 0 48 48" fill="none" xmlns="http://www.w3.org/2000/svg">
<path fill-rule="evenodd" clip-rule="evenodd" d="M0 24C0 37.2548 10.7452 48 24 48C37.2548 48 48 37.2548 48 24C48 10.7452 37.2548 0 24 0C10.7452 0 0 10.7452 0 24ZM30.9457 23.9201L30.9558 23.9232C32.5877 24.4348 34.4039 25.6722 34.4 27.8536C34.4 31.4588 29.2572 36 21.5253 36C15.6294 36 9.6 33.1087 9.6 28.3573C9.6 25.8705 11.1574 22.9951 13.8366 20.2863C17.4182 16.6652 21.5959 15.0153 23.1651 16.6057C23.8555 17.3077 23.9222 18.5174 23.4789 19.965C23.2435 20.6908 24.1536 20.2902 24.1536 20.2902C27.0487 19.0647 29.5749 18.9933 30.4968 20.3259C30.9911 21.0398 30.944 22.0353 30.489 23.1895C30.2828 23.7165 30.5511 23.7989 30.9457 23.9201ZM36.3756 15.2385C34.4263 13.2052 31.5514 12.4312 28.8977 12.9626C28.2834 13.0859 27.8943 13.6558 28.0254 14.2296C28.1564 14.8072 28.7584 15.173 29.3727 15.0498C31.2606 14.6724 33.3042 15.2231 34.6884 16.6672C36.0725 18.1112 36.4493 20.079 35.8555 21.8042C35.663 22.3664 35.9906 22.9671 36.5885 23.1481C37.1865 23.3291 37.8253 23.0211 38.0178 22.4627V22.4588C38.8532 20.0367 38.3249 17.2679 36.3756 15.2385ZM29.6033 16.8846C30.9411 16.6101 32.3937 17.0057 33.379 18.043C34.3643 19.0803 34.6277 20.493 34.2072 21.7322C34.0331 22.2408 33.4639 22.5152 32.9288 22.3538C32.3937 22.1883 32.1049 21.6434 32.2747 21.1388C32.4829 20.5334 32.3512 19.8432 31.8713 19.3346C31.3913 18.8301 30.6778 18.6363 30.0238 18.7695C29.4801 18.8825 28.9408 18.5516 28.8218 18.0309C28.7072 17.5102 29.0554 16.9935 29.6033 16.8846Z" fill="white"/>
<path fill-rule="evenodd" clip-rule="evenodd" d="M12.4675 29.4915C12.7735 32.6128 16.8375 34.7664 21.5449 34.2945C26.2483 33.8265 29.8181 30.9114 29.5082 27.7861C29.2061 24.6647 25.1421 22.5111 20.4347 22.9831C15.7313 23.4551 12.1615 26.3662 12.4675 29.4915ZM16.4149 28.3051C17.4508 26.2997 20.1452 25.1635 22.5305 25.7575C24.9993 26.3675 26.2608 28.5882 25.2499 30.7491C24.2265 32.9538 21.2856 34.1339 18.7876 33.3644C16.3814 32.6229 15.358 30.3504 16.4149 28.3051Z" fill="white"/>
<path d="M22.3084 29.0268C22.1329 29.3138 21.7445 29.4494 21.4437 29.3298C21.1429 29.2141 21.051 28.8912 21.2223 28.6121C21.3977 28.333 21.7695 28.1975 22.0661 28.3091C22.3669 28.4128 22.4755 28.7357 22.3084 29.0268Z" fill="white"/>
<path d="M20.7083 30.9804C20.2237 31.718 19.1836 32.0409 18.4024 31.702C17.6338 31.3671 17.404 30.51 17.8886 29.7883C18.369 29.0707 19.3716 28.7517 20.1485 29.0627C20.9339 29.3857 21.1845 30.2349 20.7083 30.9804Z" fill="white"/>
</svg>
