<svg width="48" height="48" viewBox="0 0 48 48" fill="none" xmlns="http://www.w3.org/2000/svg">
<path fill-rule="evenodd" clip-rule="evenodd" d="M24 0C10.7452 0 0 10.7452 0 24C0 37.2548 10.7452 48 24 48C37.2548 48 48 37.2548 48 24C48 10.7452 37.2548 0 24 0ZM9.6 23.9996C9.6 16.0595 16.0597 9.6 23.9999 9.6C31.9401 9.6 38.4 16.0595 38.4 23.9996C38.4 31.9402 31.9401 38.4 23.9999 38.4C16.0597 38.4 9.6 31.9402 9.6 23.9996Z" fill="white"/>
<path fill-rule="evenodd" clip-rule="evenodd" d="M23.9992 37.7399C16.4234 37.7399 10.2598 31.5758 10.2598 23.9998C10.2598 16.4239 16.4234 10.2605 23.9992 10.2605C31.5751 10.2605 37.7389 16.4239 37.7389 23.9998C37.7389 31.5758 31.5751 37.7399 23.9992 37.7399ZM11.9994 24.1825C11.9994 29.028 14.9377 33.2162 19.1994 35.2001L13.1056 19.2001C12.3968 20.7226 11.9994 22.4076 11.9994 24.1825ZM30.9927 20.3474C31.456 21.1725 31.9968 22.2325 31.9968 23.7641C31.9968 24.756 31.6459 25.8969 31.1701 27.4436L31.0701 27.7691L29.8551 31.8979L25.4537 18.5804C26.1868 18.5411 26.8474 18.4627 26.8474 18.4627C27.5037 18.3837 27.4263 17.4026 26.7698 17.4417C26.7698 17.4417 24.797 17.5992 23.5237 17.5992C22.3271 17.5992 20.3161 17.4417 20.3161 17.4417C19.6594 17.4026 19.5825 18.4232 20.2388 18.4627C20.2388 18.4627 20.8601 18.5411 21.5163 18.5804L23.4136 23.869L20.748 32.0001L16.3132 18.5804C17.047 18.5411 17.7071 18.4627 17.7071 18.4627C18.3629 18.3837 18.2853 17.4026 17.6291 17.4417C17.6291 17.4417 15.6568 17.5992 14.3832 17.5992C14.1547 17.5992 13.8854 17.5935 13.5994 17.5842C15.7771 14.221 19.5201 12.0001 23.7751 12.0001C26.9458 12.0001 29.8326 13.2333 31.9994 15.2528C31.9821 15.2517 31.965 15.2503 31.9478 15.2488C31.9128 15.2459 31.8779 15.2429 31.8416 15.2429C30.6452 15.2429 29.7963 16.303 29.7963 17.4417C29.7963 18.3823 30.2878 19.1894 30.8479 20.109L30.8483 20.1096C30.896 20.188 30.9442 20.2672 30.9927 20.3474ZM24.3147 24.8001L20.7994 35.5C21.8492 35.8235 22.9592 36.0001 24.109 36.0001C25.4732 36.0001 26.7817 35.7534 27.9994 35.3045C27.9682 35.2517 27.9391 35.196 27.9154 35.1353L24.3147 24.8001ZM35.3095 19.6854C35.3095 19.2253 35.2782 18.7982 35.2229 18.4001C36.2277 20.1803 36.7994 22.2233 36.7994 24.3964C36.7994 29.0077 34.226 33.0336 30.3994 35.2001L34.3307 24.1622C35.0649 22.3791 35.3095 20.9533 35.3095 19.6854Z" fill="white"/>
</svg>
