<svg width="48" height="48" viewBox="0 0 48 48" fill="none" xmlns="http://www.w3.org/2000/svg">
<path d="M0 24C0 10.7452 10.7452 0 24 0C37.2548 0 48 10.7452 48 24C48 37.2548 37.2548 48 24 48C10.7452 48 0 37.2548 0 24Z" fill="black"/>
<path d="M23.9996 37.6C31.9525 37.6 38.3996 31.1529 38.3996 23.2C38.3996 15.2471 31.9525 8.80005 23.9996 8.80005C16.0467 8.80005 9.59961 15.2471 9.59961 23.2C9.59961 31.1529 16.0467 37.6 23.9996 37.6Z" fill="white"/>
<path d="M21.0561 38.1688C19.2077 37.0556 18.0278 34.6082 17.5136 32.6055C17.0295 30.7268 16.8057 28.3278 16.8722 25.106C14.3371 22.8219 12.1105 20.5651 11.1576 18.4324C10.244 16.3843 10.6917 13.589 12.5401 12.1762C13.2329 11.6468 14.1798 11.2959 15.4776 11.2929C15.3263 14.2243 17.4591 16.1362 20.2877 18.505C22.1421 16.5114 24.4806 14.545 26.8312 13.1836C28.6645 12.1218 30.4675 11.432 32.0013 11.2687C33.6047 11.0962 35.2413 11.6105 36.2941 12.8811C36.9778 13.707 37.3499 14.8868 36.8114 16.5204C35.4863 16.708 34.3428 17.0014 33.3415 17.3735C31.7956 17.9514 30.7337 18.871 29.6235 19.7604C27.5905 21.391 25.8752 23.0428 24.4443 24.7339C24.3899 27.4566 24.405 31.2199 25.1552 33.867C25.5667 35.3191 26.329 36.4959 27.769 37.1493C25.5062 39.4666 22.841 39.2428 21.0561 38.1688Z" fill="#EC1A23"/>
</svg>
