<svg width="48" height="48" viewBox="0 0 48 48" fill="none" xmlns="http://www.w3.org/2000/svg">
<path d="M0 24C0 10.7452 10.7452 0 24 0C37.2548 0 48 10.7452 48 24C48 37.2548 37.2548 48 24 48C10.7452 48 0 37.2548 0 24Z" fill="white"/>
<path fill-rule="evenodd" clip-rule="evenodd" d="M15.448 18.6532C19.4972 18.6532 22.7797 15.278 22.7797 11.1145H8.11621C8.11621 15.278 11.3987 18.6532 15.448 18.6532ZM22.7797 35.8515V17.6483L8.11621 35.8515H22.7797ZM25.1954 35.8516C25.1954 31.6881 28.478 28.3129 32.5272 28.3129C36.5764 28.3129 39.8589 31.6881 39.8589 35.8516H25.1954ZM25.1954 11.1145V29.3177L39.8605 11.1145H25.1954Z" fill="#03363D"/>
</svg>
