<svg width="48" height="48" viewBox="0 0 48 48" fill="none" xmlns="http://www.w3.org/2000/svg">
<path fill-rule="evenodd" clip-rule="evenodd" d="M24 0C10.7452 0 0 10.7452 0 24C0 37.2548 10.7452 48 24 48C37.2548 48 48 37.2548 48 24C48 10.7452 37.2548 0 24 0ZM13.6037 28.5968C13.6037 28.5968 13.6383 28.2044 13.8495 27.964C13.8495 27.9636 13.8495 27.9635 13.8496 27.9633C13.8497 27.9632 13.8499 27.9632 13.8501 27.963C15.3872 26.2156 16.9244 24.4682 18.4615 22.7208C20.7151 20.159 22.9687 17.5972 25.2222 15.0351C19.3969 16.16 17.9052 14.8629 17.5813 14.4319C17.5768 14.4269 17.5731 14.4212 17.5693 14.4154C17.5665 14.4111 17.5636 14.4067 17.5604 14.4026C17.5175 14.341 17.502 14.3023 17.502 14.3023L17.5029 14.302C17.3601 13.9841 17.3921 13.4559 17.4183 13.2055C17.5337 12.0828 18.1665 11.0317 18.8469 10.1372C18.9143 10.0489 18.9871 9.96434 19.06 9.87965C19.0984 9.83503 19.1368 9.79039 19.1745 9.74515C19.3126 9.63241 19.574 9.5069 19.9632 9.70124C20.2316 9.84294 20.5179 9.98371 20.5667 10.0024C21.9185 10.5203 23.4339 10.6527 24.8737 10.7159C27.4619 10.8302 30.0708 10.5708 32.6101 10.0734L32.6111 10.0762C32.6111 10.0762 33.204 9.94416 33.1375 10.4945C33.0442 11.2696 32.9512 12.0448 32.8583 12.82L32.8516 12.876C32.8314 13.0436 32.5347 13.3161 32.3163 13.5167C32.234 13.5923 32.1628 13.6578 32.1217 13.7035C30.5562 15.4518 28.9907 17.1996 27.4248 18.9477C26.602 19.8666 25.7789 20.7853 24.9559 21.7041C23.939 22.8393 22.9221 23.9745 21.9054 25.11C21.707 25.3314 21.5086 25.5529 21.3103 25.7744C20.9239 26.2057 20.5375 26.6371 20.1511 27.068C19.7261 27.5435 19.7059 27.5691 19.7059 28.243C21.254 28.1754 22.7961 28.8282 24.1087 29.6186V29.6177C24.1087 29.6177 27.036 31.4533 28.8759 32.0447C30.8306 32.5604 32.9636 32.5909 34.4927 31.4037C35.0639 33.9958 33.6844 37.993 30.2519 37.6022C28.5467 37.4079 26.8844 36.5427 25.4284 35.7183C24.7354 35.3258 24.0898 34.8557 23.4451 34.3863C22.6613 33.8155 21.8787 33.2457 21.0138 32.8173C18.9617 31.8002 17.0683 31.742 14.8472 31.742H13.9531C13.8514 31.7292 13.674 31.6516 13.6 31.267C13.6008 31.1545 13.602 31.0467 13.6029 30.9747C13.6034 30.9308 13.6037 30.9002 13.6037 30.8899V28.5968Z" fill="black"/>
</svg>
