<svg width="48" height="48" viewBox="0 0 48 48" fill="none" xmlns="http://www.w3.org/2000/svg">
<path d="M24 48C37.2548 48 48 37.2548 48 24C48 10.7452 37.2548 0 24 0C10.7452 0 0 10.7452 0 24C0 37.2548 10.7452 48 24 48Z" fill="#2D8CFF"/>
<path fill-rule="evenodd" clip-rule="evenodd" d="M38.0868 15.9353L31.3042 20.8839V27.1349L38.0868 32.0836C38.5667 32.4503 39.1303 32.5636 39.1303 31.5627V16.4562C39.1303 15.5638 38.6781 15.4516 38.0868 15.9353ZM8.34766 27.7566V16.4872C8.34766 16.0262 8.72474 15.6521 9.1899 15.6521H25.6252C28.1844 15.6521 30.2607 17.7076 30.2607 20.2433V31.5127C30.2607 31.9737 29.8836 32.3478 29.4185 32.3478H12.9831C10.424 32.3478 8.34766 30.2922 8.34766 27.7566Z" fill="white"/>
</svg>
