<svg width="48" height="48" viewBox="0 0 48 48" fill="none" xmlns="http://www.w3.org/2000/svg">
<path fill-rule="evenodd" clip-rule="evenodd" d="M24 48C10.7452 48 0 37.2548 0 24C0 10.7452 10.7452 0 24 0C37.2548 0 48 10.7452 48 24C48 37.2548 37.2548 48 24 48ZM8.34783 16.4873V27.7567C8.34783 30.2923 10.4242 32.3478 12.9833 32.3478H29.4186C29.8838 32.3478 30.2609 31.9737 30.2609 31.5127V20.2433C30.2609 17.7077 28.1845 15.6522 25.6254 15.6522H9.19007C8.72491 15.6522 8.34783 16.0263 8.34783 16.4873ZM31.3043 27.135V20.884L38.087 15.9353C38.6782 15.4517 39.1304 15.5638 39.1304 16.4563V31.5628C39.1304 32.5637 38.5669 32.4503 38.087 32.0837L31.3043 27.135Z" fill="black"/>
</svg>
