<svg width="48" height="48" viewBox="0 0 48 48" fill="none" xmlns="http://www.w3.org/2000/svg">
<path fill-rule="evenodd" clip-rule="evenodd" d="M0 24C0 37.2548 10.7452 48 24 48C37.2548 48 48 37.2548 48 24C48 10.7452 37.2548 0 24 0C10.7452 0 0 10.7452 0 24ZM38.4 23.2814V36.2656C38.4 37.4395 37.4398 38.4 36.2663 38.4H23.9976C15.0717 38.4 8.04827 30.2715 9.89747 21.0225C11.0354 15.3308 15.5695 10.902 21.2771 9.85256C30.1675 8.2162 37.9555 14.7439 38.3822 23.2814H38.4Z" fill="white"/>
<path d="M30.6631 31.1313C30.6631 31.1313 31.2008 31.4514 31.2008 30.7105V23.8756C31.1367 19.9579 27.9378 16.8 24.0008 16.8C20.0243 16.8 16.8008 20.0216 16.8008 23.9955C16.8008 27.9695 20.0243 31.191 24.0008 31.191C25.8263 31.191 27.4931 30.5121 28.7622 29.3931L30.6631 31.1313Z" fill="white"/>
</svg>
