<svg width="48" height="48" viewBox="0 0 48 48" fill="none" xmlns="http://www.w3.org/2000/svg">
<path fill-rule="evenodd" clip-rule="evenodd" d="M0 24C0 37.2548 10.7452 48 24 48C37.2548 48 48 37.2548 48 24C48 10.7452 37.2548 0 24 0C10.7452 0 0 10.7452 0 24ZM30.6732 13.3079L35.76 12.24V36.5021H30.8342V34.5448C29.321 36.0454 27.7756 36.6 25.7152 36.6C23.6225 36.6 21.8195 35.9149 20.3063 34.5448C18.3102 32.7506 17.28 30.4019 17.28 27.6616C17.28 25.1497 18.2459 22.8988 20.0488 21.1372C21.6586 19.5388 23.6225 18.7232 25.8117 18.7232C27.9044 18.7232 29.5142 19.4409 30.6732 20.9415V13.3079Z" fill="white"/>
<path d="M26.8423 31.9351C24.2345 31.9351 22.3672 30.0757 22.3672 27.629C22.3672 25.2802 24.2345 23.2903 26.6492 23.2903C29.0316 23.2903 30.8667 25.1824 30.8667 27.6942C30.8667 30.1083 29.0316 31.9351 26.8423 31.9351Z" fill="white"/>
</svg>
