<svg width="48" height="48" viewBox="0 0 48 48" fill="none" xmlns="http://www.w3.org/2000/svg">
<path fill-rule="evenodd" clip-rule="evenodd" d="M24 0C10.7452 0 0 10.7452 0 24C0 37.2548 10.7452 48 24 48C37.2548 48 48 37.2548 48 24C48 10.7452 37.2548 0 24 0ZM29.0364 16.5435C29.2428 17.4307 30.054 19.3187 34.8948 19.2563C34.8948 19.2563 42.1884 19.4851 36.7924 24.9731C36.7924 24.9731 34.794 27.4123 31.1356 28.1355C31.1356 28.1355 32.1772 32.3339 32.2884 34.3475C32.426 36.8163 31.2132 39.8347 25.4516 36.3819C22.2348 34.4547 20.9772 32.8339 20.9772 32.8339C20.9772 32.8339 18.6804 35.2323 17.6516 35.9875C16.6228 36.7411 13.6284 38.9315 12.526 34.1187C11.946 31.5883 11.7028 28.9971 12.678 24.8507C11.0324 23.2755 9.478 21.3139 8.81 16.8123C8.81 16.8123 8.3188 10.8571 14.2332 14.1195C16.862 15.343 17.3772 14.7587 18.1476 13.8849C18.2794 13.7354 18.4186 13.5775 18.5772 13.4187C19.3004 12.3331 22.4876 9.26992 24.6596 8.90672C24.6596 8.90672 27.5028 7.82752 28.226 12.5339C28.427 13.5543 28.5572 14.2243 28.6488 14.6959C28.8501 15.7318 28.8654 15.8107 29.0364 16.5435Z" fill="white"/>
<path d="M15.6895 23.795C15.6895 23.795 16.5423 27.5158 20.1647 28.8638C23.7087 30.183 27.6455 26.6494 27.6455 26.6494C27.6455 26.6494 24.3039 31.6006 19.7047 29.9726C16.1503 28.7142 15.6895 23.795 15.6895 23.795Z" fill="white"/>
<path fill-rule="evenodd" clip-rule="evenodd" d="M19.5722 23.4659C20.8778 23.8155 22.405 22.3483 22.9826 20.1891C23.5618 18.0299 22.9714 15.9971 21.6658 15.6467C20.3602 15.2971 18.8322 16.7651 18.2554 18.9235C17.677 21.0827 18.2666 23.1163 19.5722 23.4659ZM21.7569 16.585C22.3969 16.6898 22.7713 17.6626 22.5913 18.7602C22.4121 19.857 21.7481 20.661 21.1081 20.557C20.4689 20.4522 20.0953 19.4786 20.2745 18.3818C20.4537 17.285 21.1177 16.4802 21.7569 16.585Z" fill="white"/>
<path fill-rule="evenodd" clip-rule="evenodd" d="M24.1765 24.6246C25.4821 24.9742 27.0085 23.507 27.5869 21.3478C28.1653 19.1886 27.5749 17.1558 26.2693 16.8054C24.9637 16.4558 23.4365 17.9238 22.8589 20.0822C22.2805 22.2414 22.8701 24.275 24.1765 24.6246ZM26.4627 17.5604C27.1027 17.6652 27.4763 18.638 27.2971 19.7356C27.1171 20.8324 26.4531 21.6364 25.8139 21.5316C25.1747 21.4276 24.8011 20.454 24.9803 19.3564C25.1595 18.2596 25.8227 17.4556 26.4627 17.5604Z" fill="white"/>
<path d="M22.3868 18.2048C22.3868 18.5072 22.1724 18.7536 21.9084 18.7536C21.6452 18.7536 21.4316 18.5072 21.4316 18.2048C21.4316 17.9016 21.6452 17.656 21.9084 17.656C22.1724 17.656 22.3868 17.9016 22.3868 18.2048Z" fill="white"/>
<path d="M27.0939 19.1196C27.0939 19.4228 26.8795 19.6684 26.6163 19.6684C26.3523 19.6684 26.1387 19.4228 26.1387 19.1196C26.1387 18.8172 26.3523 18.5708 26.6163 18.5708C26.8795 18.5708 27.0939 18.8172 27.0939 19.1196Z" fill="white"/>
<path d="M16.7321 20.7505C16.7321 21.8529 15.8993 22.7473 14.8729 22.7473C13.8457 22.7473 13.0137 21.8529 13.0137 20.7505C13.0137 19.6473 13.8457 18.7537 14.8729 18.7537C15.8993 18.7537 16.7321 19.6473 16.7321 20.7505Z" fill="white"/>
<path d="M31.7321 24.4848C31.7321 25.5872 30.8993 26.4816 29.8729 26.4816C28.8457 26.4816 28.0137 25.5872 28.0137 24.4848C28.0137 23.3816 28.8457 22.488 29.8729 22.488C30.8993 22.488 31.7321 23.3816 31.7321 24.4848Z" fill="white"/>
</svg>
