<svg width="48" height="48" viewBox="0 0 48 48" fill="none" xmlns="http://www.w3.org/2000/svg">
<path fill-rule="evenodd" clip-rule="evenodd" d="M48 24C48 37.2548 37.2548 48 24 48C10.7452 48 0 37.2548 0 24C0 10.7452 10.7452 0 24 0C37.2548 0 48 10.7452 48 24ZM28.4602 9.06842L11.8104 10.2936C10.4679 10.4098 10 11.285 10 12.3342V30.5316C10 31.3492 10.2916 32.048 10.993 32.982L14.9069 38.0563C15.5498 38.8734 16.134 39.0482 17.3616 38.9897L36.6969 37.823C38.3322 37.7069 38.8 36.9481 38.8 35.665V15.1925C38.8 14.5292 38.5374 14.3376 37.7632 13.7728C37.7206 13.7418 37.6765 13.7096 37.6307 13.6761L32.3159 9.94338C31.0308 9.01056 30.5048 8.89318 28.4602 9.06842Z" fill="white"/>
<path fill-rule="evenodd" clip-rule="evenodd" d="M14.966 14.2596C15.8999 15.0176 16.2502 14.9598 18.0036 14.8429L34.5345 13.851C34.8852 13.851 34.5936 13.5015 34.4767 13.4434L31.7312 11.4601C31.2052 11.0521 30.5043 10.5847 29.1611 10.7016L13.1542 11.8682C12.5704 11.9261 12.4538 12.2177 12.6863 12.4515L14.966 14.2596Z" fill="white"/>
<path fill-rule="evenodd" clip-rule="evenodd" d="M15.959 35.4897V18.1093C15.959 17.3512 16.1927 17.001 16.8933 16.9422L35.8785 15.8344C36.5224 15.776 36.814 16.1846 36.814 16.9422V34.206C36.814 34.9648 36.6969 35.6073 35.645 35.6651L17.4775 36.7155C16.4261 36.7733 15.959 36.4239 15.959 35.4897ZM33.3671 20.1511C33.8938 20.092 34.0103 19.5671 33.8938 19.0416L29.8619 19.2761C29.2777 19.334 28.811 19.8004 28.9276 20.4428L30.4468 20.617V28.6662L24.4881 19.5673L20.165 19.8585C19.3466 19.9173 19.055 20.6749 19.172 21.2003L20.6321 21.3172V32.8075L19.5805 33.0987C19.1718 33.2155 19.0547 33.7983 19.1718 34.0319L23.2016 33.7983C24.6634 33.7983 24.6634 32.7489 24.6634 32.7489L22.8515 32.3404V23.65L28.5773 32.632C29.2777 33.5064 29.5118 33.7983 30.4468 33.7983C31.0308 33.7983 31.7317 33.5649 32.4917 33.1568V20.3254L33.3671 20.1511Z" fill="white"/>
</svg>
