<svg width="48" height="48" viewBox="0 0 48 48" fill="none" xmlns="http://www.w3.org/2000/svg">
<path fill-rule="evenodd" clip-rule="evenodd" d="M24 0C10.7452 0 0 10.7452 0 24C0 37.2548 10.7452 48 24 48C37.2548 48 48 37.2548 48 24C48 10.7452 37.2548 0 24 0ZM19.6768 34.264L19.8057 33.4465L19.6992 33.444H15.2488L18.3416 13.8336C18.3512 13.7744 18.3824 13.7192 18.428 13.68C18.4736 13.6408 18.532 13.6192 18.5928 13.6192H26.0968C28.588 13.6192 30.3072 14.1376 31.2048 15.1608C31.6256 15.6408 31.8936 16.1424 32.0232 16.6944C32.1592 17.2736 32.1616 17.9656 32.0288 18.8096L32.0192 18.8712V19.412L32.44 19.6504C32.522 19.6939 32.6002 19.7389 32.6745 19.7854C32.7053 19.6506 32.7344 19.5134 32.7616 19.3736C32.7904 19.2232 32.816 19.0768 32.8384 18.9336C33.2584 19.156 33.6176 19.4288 33.9072 19.7576C34.864 20.848 35.0512 22.3984 34.6896 24.2552C33.824 28.7 30.8624 30.236 27.0792 30.236H26.4952C26.0328 30.236 25.6392 30.572 25.5672 31.0296L25.52 31.2856L24.7848 35.9512L24.7464 36.1496C24.6736 36.6056 24.2808 36.9416 23.8184 36.9416H19.9136C19.568 36.9416 19.304 36.6328 19.3576 36.2904L19.6768 34.264Z" fill="white"/>
<path d="M31.8039 18.5208C31.6527 18.4768 31.4967 18.4368 31.3367 18.4008C31.1759 18.3656 31.0111 18.3344 30.8415 18.3072C30.2479 18.2112 29.5975 18.1656 28.9007 18.1656H23.0191C22.8743 18.1656 22.7367 18.1984 22.6135 18.2576C22.3423 18.388 22.1407 18.6448 22.0919 18.9592L20.8407 26.884L20.8047 27.1152C20.8871 26.5936 21.3327 26.2096 21.8615 26.2096H24.0631C28.3871 26.2096 31.7727 24.4536 32.7623 19.3736C32.7919 19.2232 32.8167 19.0768 32.8391 18.9336C32.5887 18.8008 32.3175 18.6872 32.0255 18.5904C31.9535 18.5664 31.8791 18.5432 31.8039 18.5208Z" fill="white"/>
</svg>
