<svg width="48" height="48" viewBox="0 0 48 48" fill="none" xmlns="http://www.w3.org/2000/svg">
<path fill-rule="evenodd" clip-rule="evenodd" d="M24 0C10.7452 0 0 10.7452 0 24C0 37.2548 10.7452 48 24 48C37.2548 48 48 37.2548 48 24C48 10.7452 37.2548 0 24 0ZM26.0264 35.0478L26.0301 35.0459C24.944 35.3359 23.7914 35.4966 22.6499 35.4966C16.0557 35.4966 9.6 30.236 9.6 22.5852C9.6 14.8643 16.0538 9.6 22.6481 9.6C29.3531 9.6 35.7441 14.8237 35.7441 22.5852C35.7441 26.902 33.7308 30.4096 30.8031 32.6779C31.7451 34.0947 32.7204 35.0367 34.0762 35.0367C35.5539 35.0367 36.1523 33.8952 36.2521 32.9975H38.1805C38.2913 34.1925 37.6947 39.1558 32.3066 39.1558C29.0465 39.1558 27.3194 37.2643 26.0264 35.0478Z" fill="white"/>
<path d="M24.8014 32.6446C23.7781 30.6312 22.5774 28.5938 20.2334 28.5938C19.7864 28.5938 19.3376 28.6677 18.9275 28.8524L18.1333 27.2639C19.1012 26.429 20.6694 25.7678 22.6846 25.7678C25.8191 25.7678 27.428 27.2824 28.7062 29.2071C29.4635 27.5632 29.8218 25.3392 29.8218 22.5852C29.8218 15.7065 27.6718 12.1748 22.6476 12.1748C17.6973 12.1748 15.5547 15.7065 15.5547 22.5852C15.5547 29.4269 17.6973 32.9216 22.6476 32.9216C23.4345 32.9216 24.1475 32.8367 24.8014 32.6446Z" fill="white"/>
</svg>
