<svg width="48" height="48" viewBox="0 0 48 48" fill="none" xmlns="http://www.w3.org/2000/svg">
<path fill-rule="evenodd" clip-rule="evenodd" d="M0 24C0 37.2548 10.7452 48 24 48C37.2548 48 48 37.2548 48 24C48 10.7452 37.2548 0 24 0C10.7452 0 0 10.7452 0 24ZM37.6014 19.7065C39.8065 19.7065 41.6 21.4925 41.6 23.6875C41.6 25.1388 40.8127 26.4067 39.6458 27.1011C39.6939 27.4326 39.7197 27.7677 39.7197 28.1067C39.7197 33.7675 32.8155 38.3731 24.3296 38.3731C15.843 38.3731 8.93955 33.7675 8.93955 28.1067C8.93955 27.7413 8.96965 27.3801 9.02555 27.0236C7.92865 26.3137 7.2 25.0851 7.2 23.6875C7.2 21.4925 8.99349 19.7069 11.1986 19.7065C12.1782 19.7065 13.0769 20.0614 13.7731 20.6467C16.4282 18.9744 19.971 17.9244 23.8762 17.8481L26.1595 10.6629C26.2795 10.2807 26.6774 10.0561 27.0691 10.1476L32.9824 11.5327C33.5117 10.4087 34.6559 9.62608 35.9834 9.62608C37.8105 9.62608 39.2979 11.1062 39.2979 12.926C39.2979 14.7459 37.8109 16.2259 35.9834 16.2259C34.1927 16.2259 32.7334 14.8042 32.6744 13.0362L27.412 11.8024L25.4832 17.8718C29.1511 18.0544 32.4633 19.097 34.9686 20.6993C35.6726 20.0836 36.5928 19.7065 37.6014 19.7065Z" fill="white"/>
<path d="M39.2232 25.5203C38.6607 24.0783 37.6365 22.7594 36.2656 21.6358C36.6503 21.3863 37.1084 21.24 37.601 21.24C38.9566 21.24 40.0594 22.3379 40.0594 23.6876C40.0586 24.4173 39.7342 25.0719 39.2232 25.5203Z" fill="white"/>
<path d="M35.9837 11.1602C36.9622 11.1602 37.758 11.9529 37.758 12.9271C37.758 13.9012 36.9622 14.6936 35.9837 14.6936C35.0049 14.6936 34.209 13.9012 34.209 12.9271C34.209 11.9529 35.0049 11.1602 35.9837 11.1602Z" fill="white"/>
<path fill-rule="evenodd" clip-rule="evenodd" d="M24.3304 36.8401C31.9664 36.8401 38.1803 32.9221 38.1803 28.1074C38.1803 27.9451 38.1721 27.7848 38.1584 27.6241C38.1138 27.1111 37.995 26.6102 37.8156 26.1237C37.3602 24.8958 36.4966 23.7664 35.3153 22.7977C34.9236 22.4759 34.4983 22.1715 34.0406 21.8878C31.5403 20.3345 28.1101 19.374 24.3304 19.374C20.6046 19.374 17.2201 20.3081 14.7281 21.8224C14.2715 22.0999 13.845 22.3972 13.4514 22.7121C12.2212 23.6956 11.3205 24.8491 10.8511 26.1062C10.6701 26.5911 10.5512 27.0916 10.5047 27.6034C10.4899 27.7704 10.4805 27.9377 10.4805 28.1074C10.4805 32.9225 16.6932 36.8401 24.3304 36.8401ZM19.2658 23.8839C20.5648 23.8839 21.6179 24.9686 21.6179 26.2615C21.6179 27.554 20.5648 28.6021 19.2658 28.6036C17.9676 28.6036 16.8781 27.554 16.8781 26.2615C16.8781 24.9686 17.9672 23.8839 19.2658 23.8839ZM29.5713 23.8832C28.2727 23.8832 27.1801 24.9675 27.1801 26.2603C27.1801 27.5536 28.2727 28.6025 29.5713 28.6025C30.8703 28.6025 31.9242 27.5544 31.9242 26.2603C31.9234 24.9667 30.8703 23.8832 29.5713 23.8832ZM24.4187 33.2249C26.5683 33.2249 28.0354 32.8042 28.9067 31.9378C29.2081 31.6389 29.696 31.6389 29.9974 31.9386C30.298 32.2375 30.298 32.7224 29.9966 33.0225C28.8223 34.1901 26.9976 34.7587 24.4187 34.7587C24.4154 34.7587 24.4122 34.7581 24.4091 34.7575C24.406 34.7569 24.403 34.7563 24.4 34.7563C24.3969 34.7563 24.394 34.7569 24.3911 34.7575C24.388 34.7581 24.385 34.7587 24.3816 34.7587C21.8024 34.7587 19.978 34.1901 18.8049 33.0217C18.5039 32.7232 18.5039 32.2379 18.8049 31.9378C19.1055 31.6382 19.5933 31.6382 19.894 31.9378C20.7641 32.8042 22.2316 33.2249 24.3816 33.2249C24.3847 33.2249 24.3876 33.2253 24.3905 33.2258C24.3935 33.2263 24.3966 33.2268 24.4 33.2268C24.403 33.2268 24.406 33.2264 24.4091 33.2259C24.4122 33.2254 24.4154 33.2249 24.4187 33.2249Z" fill="white"/>
<path d="M8.74023 23.6876C8.74023 22.3383 9.84299 21.24 11.1983 21.24C11.656 21.24 12.0837 21.368 12.4515 21.5864C11.0798 22.6959 10.0533 24.0017 9.47436 25.4288C9.0213 24.9848 8.74023 24.3687 8.74023 23.6876Z" fill="white"/>
</svg>
