<svg width="48" height="48" viewBox="0 0 48 48" fill="none" xmlns="http://www.w3.org/2000/svg">
<path fill-rule="evenodd" clip-rule="evenodd" d="M24 0C10.7452 0 0 10.7452 0 24C0 37.2548 10.7452 48 24 48C37.2548 48 48 37.2548 48 24C48 10.7452 37.2548 0 24 0ZM32.5701 35.0481C31.6738 36.2354 28.964 37.2154 26.2293 37.2154C19.4329 37.2154 15.7569 34.6955 15.7569 29.3535V22.6615H12.9726C12.9094 22.6615 12.8583 22.61 12.8583 22.5465V17.1132C12.8583 17.0636 12.8897 17.0197 12.9364 17.004L13.2406 16.9018C15.9667 15.9847 17.4174 14.0747 17.8059 10.8909C17.8998 10.121 18.5418 9.70566 19.0982 9.70566H26.8787C26.9418 9.70566 26.993 9.75718 26.993 9.82075V15.9885C26.993 16.052 27.0442 16.1036 27.1073 16.1036H31.5439C31.607 16.1036 31.6582 16.1551 31.6582 16.2186V22.5465C31.6582 22.61 31.607 22.6615 31.5439 22.6615H27.0882C27.0251 22.6615 26.9739 22.7131 26.9739 22.7766V28.9621C26.978 29.2168 27.0043 29.423 27.0484 29.5917C27.0614 29.6416 27.1078 29.6745 27.1591 29.6745H30.9462C30.9952 29.6745 31.0388 29.706 31.0545 29.7528L32.7497 34.8101L32.5701 35.0481Z" fill="white"/>
<path d="M30.9667 34.546C30.1369 35.3631 28.4341 35.9701 26.802 35.9984C26.7403 35.9995 26.6799 36 26.6192 36H26.6186C21.2504 35.9997 19.8181 31.8027 19.8181 29.3226V21.7017C19.8181 21.6389 19.7684 21.5879 19.707 21.5879H17.1112C17.0498 21.5879 17 21.5369 17 21.474V18.0024C17 17.956 17.0284 17.9146 17.0706 17.8977C19.845 16.7916 21.3944 14.5936 21.802 11.1941C21.8247 11.0052 21.9768 11 21.9784 11H25.4434C25.5048 11 25.5546 11.051 25.5546 11.1139V17.2155C25.5546 17.2783 25.6043 17.3293 25.6657 17.3293H29.979C30.0404 17.3293 30.0902 17.3803 30.0902 17.4432V21.474C30.0902 21.5369 30.0404 21.5879 29.979 21.5879H25.6472C25.5858 21.5879 25.536 21.6389 25.536 21.7017L25.5361 28.9444C25.5616 30.5752 26.3322 31.4019 27.8265 31.4019C28.4287 31.4019 29.1183 31.2584 29.748 31.012C29.8068 30.989 29.8718 31.0197 29.8919 31.0808L30.9938 34.4263C31.0077 34.4685 30.998 34.5152 30.9667 34.546Z" fill="white"/>
<path d="M19 25H16V23H18.9023C18.9562 23 19 23.0505 19 23.1128V25Z" fill="white"/>
</svg>
