<svg width="48" height="48" viewBox="0 0 48 48" fill="none" xmlns="http://www.w3.org/2000/svg">
<path fill-rule="evenodd" clip-rule="evenodd" d="M0 24C0 10.7452 10.7452 0 24 0C37.2548 0 48 10.7452 48 24C48 37.2548 37.2548 48 24 48C10.7452 48 0 37.2548 0 24ZM30.2424 19.2856C30.404 19.2856 30.564 19.2872 30.7232 19.296C29.8816 14.7096 25.1448 11.2 19.428 11.2C13.116 11.2 8 15.4792 8 20.7576C8 23.8528 9.7584 26.604 12.4856 28.3504L12.5904 28.4168L11.4864 31.8752L15.6176 29.7712C15.6176 29.7712 15.7472 29.808 15.812 29.8272C16.9472 30.1432 18.1648 30.3144 19.428 30.3144C19.6856 30.3144 19.9416 30.304 20.196 30.2912C19.9616 29.564 19.8328 28.8 19.8328 28.0112C19.8328 23.1912 24.4952 19.2856 30.2424 19.2856ZM30.3297 36.1425C24.9969 36.1425 20.6729 32.5273 20.6729 28.0673C20.6729 23.6089 24.9969 19.9937 30.3297 19.9937C35.6601 19.9937 39.9825 23.6089 39.9825 28.0673C39.9825 30.6833 38.4961 33.0073 36.1929 34.4825L36.1041 34.5377L37.0369 37.4609L33.5481 35.6817C33.5481 35.6817 33.4385 35.7145 33.3833 35.7289C32.4249 35.9969 31.3961 36.1425 30.3297 36.1425Z" fill="white"/>
<path d="M23.4048 15.9128C24.2912 15.9128 25.0088 16.6072 25.0088 17.4656C25.0088 18.3232 24.2912 19.02 23.4048 19.02C22.5176 19.02 21.8008 18.3232 21.8008 17.4656C21.8008 16.6072 22.5176 15.9128 23.4048 15.9128Z" fill="white"/>
<path d="M32.332 25.2856C32.332 24.5624 32.9384 23.9744 33.6872 23.9744C34.4368 23.9744 35.0432 24.5624 35.0432 25.2856C35.0432 26.012 34.4368 26.6008 33.6872 26.6008C32.9384 26.6008 32.332 26.012 32.332 25.2856Z" fill="white"/>
<path d="M25.6133 25.2856C25.6133 24.5624 26.2213 23.9744 26.9693 23.9744C27.7189 23.9744 28.3261 24.5624 28.3261 25.2856C28.3261 26.012 27.7189 26.6008 26.9693 26.6008C26.2213 26.6008 25.6133 26.012 25.6133 25.2856Z" fill="white"/>
<path d="M15.4505 19.02C14.5641 19.02 13.8457 18.3232 13.8457 17.4656C13.8457 16.6072 14.5641 15.9128 15.4505 15.9128C16.3369 15.9128 17.0569 16.6072 17.0569 17.4656C17.0569 18.3232 16.3369 19.02 15.4505 19.02Z" fill="white"/>
</svg>
