<svg width="48" height="48" viewBox="0 0 48 48" fill="none" xmlns="http://www.w3.org/2000/svg">
<path d="M0 24C0 10.7452 10.7452 0 24 0C37.2548 0 48 10.7452 48 24C48 37.2548 37.2548 48 24 48C10.7452 48 0 37.2548 0 24Z" fill="#31C5F0"/>
<path d="M2.40039 24C2.40039 12.0707 12.0711 2.40002 24.0004 2.40002C35.9297 2.40002 45.6004 12.0707 45.6004 24C45.6004 35.9293 35.9297 45.6 24.0004 45.6C12.0711 45.6 2.40039 35.9293 2.40039 24Z" fill="url(#paint0_radial)"/>
<path fill-rule="evenodd" clip-rule="evenodd" d="M12 13.9136C12 13.7882 12.269 13.6941 12.4258 13.6941C13.6489 13.6313 15.4448 13.6 17.3264 13.6C22.5954 13.6 24.6475 16.4854 24.6475 20.1862C24.6475 25.0161 21.1447 27.0861 16.848 27.0861C16.4547 27.0861 16.2012 27.0767 15.9707 27.0682C15.7784 27.0611 15.6021 27.0546 15.3739 27.0546V34.3574C15.3739 34.5144 15.3112 34.5771 15.1544 34.5771H12.2195C12.0627 34.5771 12 34.5144 12 34.3574V13.9136ZM15.3739 24.0125C15.813 24.0437 16.158 24.0437 16.9107 24.0437C19.1375 24.0437 21.2289 23.2596 21.2289 20.2488C21.2289 17.8336 19.7334 16.6106 17.193 16.6106C16.4403 16.6106 15.7189 16.6418 15.3739 16.6734V24.0123V24.0125ZM29.7272 23.1344C29.7272 22.5071 30.229 21.7544 31.7344 21.7544C32.9578 21.7544 34.2034 22.068 35.05 22.5698C35.2382 22.6326 35.3323 22.5383 35.3323 22.3816V19.7779C35.3323 19.6525 35.3009 19.4959 35.1441 19.4016C34.5168 19.1195 33.3653 18.8686 31.7344 18.8686C28.4101 18.8686 26.497 20.9074 26.497 23.3537C26.497 25.5489 27.626 26.8662 30.3233 28.1523C32.2364 29.1557 32.6755 29.7518 32.6755 30.4418C32.6755 31.2886 32.0482 31.9158 30.5428 31.9158C29.2881 31.9158 27.9049 31.5707 26.7131 30.7868C26.5876 30.6929 26.4936 30.7556 26.4936 30.9438V33.7351C26.4936 33.8919 26.5249 33.986 26.6504 34.0487C27.4658 34.519 28.8806 34.8642 30.5428 34.8642C33.6791 34.8642 36 33.2333 36 30.1909C36 28.1525 35.0591 26.7725 32.0796 25.3298C30.0722 24.2946 29.7272 23.8243 29.7272 23.1344Z" fill="#31C5F0"/>
<defs>
<radialGradient id="paint0_radial" cx="0" cy="0" r="1" gradientUnits="userSpaceOnUse" gradientTransform="translate(19.6234 16.7905) scale(28.1648)">
<stop stop-color="#0E0E17" stop-opacity="0.85"/>
<stop offset="0.767" stop-color="#0E0E17"/>
</radialGradient>
</defs>
</svg>
