<svg width="48" height="48" viewBox="0 0 48 48" fill="none" xmlns="http://www.w3.org/2000/svg">
<path d="M0 24C0 10.7452 10.7452 0 24 0C37.2548 0 48 10.7452 48 24C48 37.2548 37.2548 48 24 48C10.7452 48 0 37.2548 0 24Z" fill="#FFD900"/>
<path d="M26.4619 8.80005C24.2499 8.80005 22.4004 10.5846 22.4004 12.7867C22.4004 14.9882 24.2499 16.773 26.4619 16.773C28.6724 16.773 30.5509 14.9882 30.5509 12.7867C30.5509 10.5846 28.6724 8.80005 26.4619 8.80005" fill="white"/>
<path d="M33.9281 22.9576C33.9281 22.9576 33.0016 21.2406 31.83 19.4636C29.9191 21.1734 27.9395 20.8871 27.0983 20.705C25.9892 20.4655 25.688 19.9965 25.7798 19.5841C25.1333 19.3814 22.861 18.0444 21.4871 17.6C18.8442 19.1995 17.7858 23.197 17.9127 27.2625C16.14 30.6123 14.8206 31.7412 11.2002 32.5693C11.8812 34.1589 12.1566 34.7543 13.1652 36.8612C17.6925 35.6419 20.5867 33.0019 22.365 30.7409C25.394 31.5073 27.6094 33.422 29.4385 36.896C31.3375 35.3208 31.5478 35.1595 33.1637 33.8674C31.9034 30.8673 28.8106 28.2725 25.865 26.8595C25.8927 26.1497 25.9142 25.9725 25.9434 25.4157C30.2716 26.5406 33.9281 22.9576 33.9281 22.9576" fill="white"/>
</svg>
