<svg width="48" height="48" viewBox="0 0 48 48" fill="none" xmlns="http://www.w3.org/2000/svg">
<path d="M24 48C37.2548 48 48 37.2548 48 24C48 10.7452 37.2548 0 24 0C10.7452 0 0 10.7452 0 24C0 37.2548 10.7452 48 24 48Z" fill="white"/>
<path d="M38.3996 36.2656C38.3996 37.4395 37.4394 38.4 36.2659 38.4H23.9972C15.0713 38.4 8.04788 30.2716 9.89708 21.0226C11.035 15.3309 15.5691 10.902 21.2768 9.85259C30.1671 8.21622 37.9551 14.7439 38.3818 23.2814H38.3996V36.2656V36.2656Z" fill="#F4B70A"/>
<path d="M30.6621 31.1311C30.6621 31.1311 31.1998 31.4512 31.1998 30.7104V23.8755C31.1357 19.9578 27.9368 16.7999 23.9998 16.7999C20.0234 16.7999 16.7998 20.0215 16.7998 23.9954C16.7998 27.9694 20.0234 31.1909 23.9998 31.1909C25.8253 31.1909 27.4921 30.512 28.7612 29.393L30.6621 31.1311Z" fill="white"/>
</svg>
