<svg width="48" height="48" viewBox="0 0 48 48" fill="none" xmlns="http://www.w3.org/2000/svg">
<path d="M0 24C0 10.7452 10.7452 0 24 0C37.2548 0 48 10.7452 48 24C48 37.2548 37.2548 48 24 48C10.7452 48 0 37.2548 0 24Z" fill="white"/>
<path fill-rule="evenodd" clip-rule="evenodd" d="M18.423 20.968C17.829 21.8231 17.5319 22.8528 17.5319 24.059H17.5283C17.5283 25.5783 17.9604 26.7539 18.8245 27.582C19.6886 28.4101 20.7939 28.8242 22.1369 28.8242C23.01 28.8242 23.7445 28.7377 24.3386 28.5613C25.2801 28.2985 26.2396 27.636 27.2189 26.5703C27.2891 26.6585 27.4116 26.8277 27.588 27.0833C27.7608 27.3372 27.8868 27.5046 27.966 27.5946C28.0434 27.681 28.1749 27.8214 28.3585 28.0123C28.5421 28.2049 28.7545 28.4065 28.9994 28.6153C29.2964 28.7377 29.5502 28.7197 29.759 28.5613C29.8815 28.4569 30.6664 27.7782 32.1173 26.5181C32.2578 26.4137 32.3262 26.2912 32.3262 26.1526C32.3262 26.0302 32.274 25.8898 32.1696 25.7332L31.5683 24.9339C31.4459 24.7682 31.3162 24.4982 31.1902 24.1202C31.057 23.7475 30.9922 23.3335 30.9922 22.878V16.5412C30.9922 16.4728 30.985 16.2496 30.967 15.8751C30.949 15.5007 30.9238 15.2541 30.8878 15.1406C30.8554 15.0272 30.8014 14.822 30.7294 14.5286C30.661 14.2297 30.5854 14.0029 30.4953 13.8445C30.4107 13.6861 30.2901 13.5096 30.1407 13.308C29.9913 13.1082 29.8311 12.9192 29.6582 12.7445C28.5385 11.7148 26.9849 11.2 24.9957 11.2H24.3422C22.7904 11.2864 21.4312 11.7058 20.2701 12.4565C19.1107 13.2072 18.3816 14.3593 18.0846 15.9129C18.0666 15.9831 18.0576 16.0426 18.0576 16.0966C18.0576 16.3414 18.207 16.498 18.5022 16.57L21.514 16.9373C21.7931 16.8851 21.9677 16.6834 22.0397 16.3342C22.1603 15.7761 22.4303 15.3387 22.8498 15.0236C23.2692 14.7068 23.7679 14.5268 24.344 14.4728H24.5474C25.3341 14.4728 25.9102 14.7356 26.2756 15.2613C26.5186 15.6429 26.6447 16.3954 26.6447 17.5115V17.9562C25.5789 18.0426 24.8084 18.111 24.3404 18.165C22.9614 18.3396 21.8003 18.6277 20.8587 19.0291C19.8272 19.4666 19.0171 20.1129 18.423 20.968ZM22.5455 25.1715C22.2053 24.7574 22.0361 24.2138 22.0361 23.5333L22.0343 23.5351C22.0343 22.0337 22.8012 21.0652 24.3386 20.6295C24.8606 20.4909 25.6293 20.4189 26.6429 20.4189V21.0724C26.6429 21.6305 26.6393 22.0337 26.6303 22.2785C26.6213 22.5234 26.5691 22.842 26.4736 23.2327C26.3764 23.6251 26.2324 23.9869 26.0416 24.32C25.6401 25.0707 25.0713 25.5405 24.3404 25.7332C24.3044 25.7332 24.2378 25.7422 24.1423 25.7602C24.0451 25.7764 23.9731 25.7836 23.9191 25.7836C23.343 25.7836 22.8876 25.5801 22.5455 25.1715Z" fill="#221F1F"/>
<path d="M33.0318 31.9656C33.0678 31.8936 33.1218 31.8252 33.1884 31.755C33.6258 31.4597 34.0453 31.2581 34.4485 31.1537C35.1092 30.9809 35.7555 30.8837 36.3838 30.8657C36.5584 30.8477 36.7258 30.8585 36.8806 30.8927C37.6673 30.9647 38.1408 31.0943 38.2956 31.2887C38.3676 31.3913 38.4 31.548 38.4 31.7568V31.9404C38.4 32.5525 38.2344 33.2726 37.9032 34.1007C37.5701 34.9288 37.1075 35.5985 36.517 36.1043C36.427 36.1763 36.3496 36.2087 36.2794 36.2087C36.2434 36.2087 36.2074 36.1997 36.175 36.1835C36.0669 36.1295 36.0435 36.0341 36.0957 35.8955C36.7438 34.3761 37.0643 33.3212 37.0643 32.7271C37.0643 32.5345 37.0283 32.3941 36.9599 32.3076C36.7852 32.1006 36.2974 31.9944 35.4927 31.9944C35.1974 31.9944 34.8482 32.0124 34.4485 32.0484C34.0093 32.1024 33.6078 32.1528 33.2424 32.205C33.1344 32.205 33.0678 32.187 33.0318 32.151C32.9958 32.115 32.9886 32.0826 33.0066 32.0466C33.0066 32.0286 33.0138 32.0034 33.0318 31.9692V31.9656Z" fill="#FF9900"/>
<path d="M9.65362 31.521C9.74003 31.3806 9.87864 31.3716 10.0713 31.494C14.435 34.0251 19.184 35.2924 24.3164 35.2924C27.7369 35.2924 31.1159 34.6534 34.4517 33.3788L34.8298 33.2222C34.9954 33.1502 35.1124 33.0998 35.1826 33.0656C35.4454 32.9612 35.6507 33.0116 35.8001 33.2222C35.9477 33.431 35.8991 33.6236 35.6561 33.7983C35.341 34.0251 34.9396 34.2879 34.4499 34.5832C32.9503 35.4743 31.2743 36.1638 29.4237 36.6534C27.5749 37.1395 25.7692 37.3861 24.005 37.3861C21.2813 37.3861 18.7069 36.909 16.282 35.9585C13.8517 35.008 11.6807 33.6668 9.75983 31.9386C9.65362 31.854 9.59961 31.764 9.59961 31.6776C9.59961 31.6236 9.61761 31.5732 9.65362 31.521V31.521Z" fill="#FF9900"/>
</svg>
