<svg width="48" height="48" viewBox="0 0 48 48" fill="none" xmlns="http://www.w3.org/2000/svg">
<path d="M0 24C0 10.7452 10.7452 0 24 0C37.2548 0 48 10.7452 48 24C48 37.2548 37.2548 48 24 48C10.7452 48 0 37.2548 0 24Z" fill="#1769FF"/>
<path fill-rule="evenodd" clip-rule="evenodd" d="M23.6706 20.0449C23.6706 19.1198 23.4283 18.3269 22.9451 17.6631C22.1398 16.5821 20.7746 16.0282 18.845 16H11.2002V31.6065H18.3287C19.1325 31.6065 19.876 31.5382 20.5639 31.3971C21.2518 31.2546 21.8463 30.9947 22.3506 30.6131C22.7991 30.2805 23.1724 29.8706 23.4704 29.3851C23.9415 28.6515 24.1763 27.8214 24.1763 26.8963C24.1763 25.9994 23.9701 25.2362 23.5607 24.6096C23.1468 23.9814 22.5387 23.5226 21.7319 23.2316C22.2633 22.9643 22.6651 22.6673 22.9391 22.3436C23.4283 21.7645 23.6706 20.9968 23.6706 20.0449ZM34.3378 18.6699H27.5585V16.7276H34.3378V18.6699ZM28.3487 24.6942C28.4601 23.9428 28.7325 23.3474 29.1645 22.9078C29.5965 22.4683 30.2076 22.2485 30.9903 22.2485C31.7128 22.2485 32.3163 22.4549 32.807 22.8692C33.2917 23.2865 33.5656 23.8923 33.6213 24.6942H28.3487ZM33.7402 20.3003C34.5576 20.6597 35.2304 21.2299 35.7602 22.008C36.2433 22.694 36.5534 23.4899 36.6949 24.3942C36.7777 24.9229 36.8108 25.6891 36.7973 26.6855H28.2734C28.3246 27.8422 28.728 28.6545 29.4986 29.1193C29.9653 29.4088 30.5267 29.5543 31.186 29.5543C31.8798 29.5543 32.4473 29.3776 32.8823 29.0257C33.1216 28.8342 33.3323 28.5698 33.513 28.2313H36.6362C36.5534 28.9143 36.1741 29.6108 35.5028 30.3176C34.4552 31.4387 32.9876 32 31.1017 32C29.5438 32 28.1696 31.5278 26.982 30.5804C25.7884 29.6345 25.1953 28.0932 25.1953 25.9608C25.1953 23.9606 25.7327 22.4267 26.8059 21.3591C27.8821 20.2944 29.2744 19.7583 30.9888 19.7583C32.0078 19.7583 32.9244 19.9395 33.7402 20.3003ZM14.3535 28.898V24.7358H18.2489C18.9263 24.7417 19.4546 24.8308 19.8309 25.0001C20.5037 25.3045 20.8379 25.8613 20.8379 26.6751C20.8379 27.6343 20.4917 28.2818 19.7978 28.6233C19.417 28.8059 18.8811 28.898 18.1948 28.898H14.3535ZM14.3535 18.71V22.1535H18.2008C18.8856 22.1535 19.4441 22.0243 19.8745 21.7659C20.302 21.5076 20.5172 21.0502 20.5172 20.3968C20.5172 19.6677 20.2343 19.1881 19.6683 18.9535C19.1776 18.7916 18.5545 18.71 17.7974 18.71H14.3535Z" fill="white"/>
</svg>
