<svg width="48" height="48" viewBox="0 0 48 48" fill="none" xmlns="http://www.w3.org/2000/svg">
<path d="M24 48C37.2548 48 48 37.2548 48 24C48 10.7452 37.2548 0 24 0C10.7452 0 0 10.7452 0 24C0 37.2548 10.7452 48 24 48Z" fill="#F57D00"/>
<path fill-rule="evenodd" clip-rule="evenodd" d="M25.0604 9.59998L25.123 9.59999H25.1918C29.5705 9.71934 32.769 13.2774 32.9088 17.0249H32.9214C32.9274 17.0838 32.9297 17.1459 32.932 17.2081V17.2081V17.2082C32.934 17.2607 32.9359 17.3132 32.9401 17.364C33.0275 18.4206 33.0158 19.5732 32.74 20.7373C32.876 20.7423 33.0076 20.7478 33.1402 20.7558C34.317 20.8266 35.6862 20.986 36.88 22.1125C38.0737 23.239 38.267 24.6541 38.3371 25.6831C38.382 26.3418 38.3844 26.9944 38.3871 27.7309V27.7309V27.7312C38.3886 28.1451 38.3903 28.5856 38.3996 29.0687V29.1118V29.155C38.3716 31.7408 37.5876 34.156 35.8981 35.8707C34.2086 37.5854 31.7962 38.3785 29.3317 38.3991H29.3192H29.3067H18.8442C18.8377 38.3992 18.8313 38.3991 18.8248 38.3991C18.8188 38.3991 18.8128 38.399 18.8067 38.3991C16.1704 38.4265 13.6168 37.8261 11.815 36.0064C10.0433 34.217 9.48026 31.6757 9.61997 29.007H9.6137C9.61378 28.9941 9.61531 28.9816 9.61684 28.9691C9.61831 28.9572 9.61977 28.9453 9.61997 28.933C9.62096 28.9165 9.62044 28.9004 9.61993 28.8842C9.61941 28.8677 9.61888 28.8512 9.61997 28.8343H9.63247L9.82009 17.3764H9.82635C9.88034 15.8908 10.2194 14.2705 11.3022 12.7759C12.6824 10.8709 15.2717 9.69767 18.2376 9.70481H18.3064L25.0604 9.59998ZM18.5377 26.4002C17.6352 26.388 16.7958 26.8427 16.3408 27.5902C15.8859 28.3377 15.8859 29.2622 16.3408 30.0098C16.7958 30.7573 17.6352 31.212 18.5377 31.1997H30.2615C31.164 31.212 32.0034 30.7573 32.4584 30.0098C32.9133 29.2622 32.9133 28.3377 32.4584 27.5902C32.0034 26.8427 31.164 26.388 30.2615 26.4002H18.5377ZM16.7999 18.3205C16.8213 17.0195 17.9929 15.9807 19.4168 16.0002L25.4629 16.0886C26.8868 16.1097 28.0224 17.1815 27.9993 18.4824C27.9761 19.7833 26.803 20.8208 25.3791 20.7997L19.3395 20.7113C17.9156 20.6918 16.7785 19.6214 16.7999 18.3205Z" fill="white"/>
</svg>
