<svg width="48" height="48" viewBox="0 0 48 48" fill="none" xmlns="http://www.w3.org/2000/svg">
<path d="M24 48C37.2548 48 48 37.2548 48 24C48 10.7452 37.2548 0 24 0C10.7452 0 0 10.7452 0 24C0 37.2548 10.7452 48 24 48Z" fill="#0064DD"/>
<path fill-rule="evenodd" clip-rule="evenodd" d="M30.6735 13.3079L35.7603 12.24V36.5021H30.8344V34.5448C29.3213 36.0454 27.7759 36.6 25.7154 36.6C23.6227 36.6 21.8198 35.9149 20.3066 34.5448C18.3105 32.7506 17.2803 30.4018 17.2803 27.6616C17.2803 25.1497 18.2462 22.8988 20.0491 21.1372C21.6588 19.5387 23.6227 18.7232 25.812 18.7232C27.9047 18.7232 29.5145 19.4409 30.6735 20.9415V13.3079ZM22.3671 27.629C22.3671 30.0757 24.2344 31.9351 26.8423 31.9351C29.0316 31.9351 30.8667 30.1083 30.8667 27.6942C30.8667 25.1823 29.0316 23.2903 26.6491 23.2903C24.2344 23.2903 22.3671 25.2802 22.3671 27.629Z" fill="#FFFFFE"/>
</svg>
