<svg width="48" height="48" viewBox="0 0 48 48" fill="none" xmlns="http://www.w3.org/2000/svg">
<path d="M24 48C37.2548 48 48 37.2548 48 24C48 10.7452 37.2548 0 24 0C10.7452 0 0 10.7452 0 24C0 37.2548 10.7452 48 24 48Z" fill="black"/>
<path fill-rule="evenodd" clip-rule="evenodd" d="M9.59961 29.6H16.7996V16H14.0304V19.9654H9.59961V29.6ZM14.03 27.3339H12.3688V22.2329H14.03V27.3339Z" fill="white"/>
<path d="M18.3994 29.6H21.5994V20H18.3994V29.6Z" fill="white"/>
<path fill-rule="evenodd" clip-rule="evenodd" d="M22.3994 32.8H29.5994V20H22.3994V29.4603H26.832V30.5735H22.3994V32.8ZM26.832 27.2352H25.1691V22.2265H26.832V27.2352Z" fill="white"/>
<path d="M18.3994 19.2H21.5994V16H18.3994V19.2Z" fill="white"/>
<path fill-rule="evenodd" clip-rule="evenodd" d="M31.1992 32.8H38.3992V20H31.1992V29.4603H35.6311V30.5735H31.1992V32.8ZM35.6311 27.2352H33.9678V22.2265H35.6311V27.2352Z" fill="white"/>
</svg>
