<svg width="48" height="48" viewBox="0 0 48 48" fill="none" xmlns="http://www.w3.org/2000/svg">
<path d="M24 48C37.2548 48 48 37.2548 48 24C48 10.7452 37.2548 0 24 0C10.7452 0 0 10.7452 0 24C0 37.2548 10.7452 48 24 48Z" fill="#4E99C7"/>
<path d="M31.2182 30.2565H26.2743V36.1158C26.2743 37.3773 25.2561 38.4 24.0002 38.4C22.7442 38.4 21.726 37.3773 21.726 36.1158V30.2565H16.7822C15.9085 30.2565 15.2002 29.5451 15.2002 28.6676V18.3393C15.2002 18.3057 15.2032 18.2728 15.2052 18.2397C15.3109 13.4505 19.2065 9.59998 24.0002 9.59998C28.7939 9.59998 32.6895 13.4505 32.7952 18.2397C32.7972 18.2728 32.8002 18.3057 32.8002 18.3393V28.6676C32.8002 29.5451 32.0919 30.2565 31.2182 30.2565" fill="#FFFFFE"/>
</svg>
