<svg width="48" height="48" viewBox="0 0 48 48" fill="none" xmlns="http://www.w3.org/2000/svg">
<path d="M0 24C0 10.7452 10.7452 0 24 0C37.2548 0 48 10.7452 48 24C48 37.2548 37.2548 48 24 48C10.7452 48 0 37.2548 0 24Z" fill="white"/>
<path d="M23.9997 17.6213C25.9525 17.6213 27.2699 18.4649 28.021 19.1698L30.9561 16.304C29.1534 14.6284 26.8077 13.6 23.9997 13.6C19.9321 13.6 16.4192 15.9342 14.709 19.3315L18.0717 21.9431C18.9152 19.4355 21.2494 17.6213 23.9997 17.6213V17.6213Z" fill="#EA4335"/>
<path d="M33.984 24.2311C33.984 23.376 33.9147 22.752 33.7644 22.1049H24V25.9644H29.7316C29.616 26.9235 28.992 28.368 27.6053 29.3386L30.8871 31.8809C32.8516 30.0666 33.984 27.3973 33.984 24.2311V24.2311Z" fill="#4285F4"/>
<path d="M18.0832 26.0569C17.8636 25.4098 17.7365 24.7164 17.7365 24C17.7365 23.2835 17.8636 22.5902 18.0716 21.9431L14.7089 19.3315C14.0041 20.7413 13.5996 22.3244 13.5996 24C13.5996 25.6755 14.0041 27.2587 14.7089 28.6684L18.0832 26.0569V26.0569Z" fill="#FBBC05"/>
<path d="M23.9998 34.4C26.8078 34.4 29.1651 33.4756 30.8869 31.8809L27.6051 29.3387C26.7269 29.9511 25.5483 30.3787 23.9998 30.3787C21.2496 30.3787 18.9154 28.5644 18.0834 26.0569L14.7207 28.6684C16.4309 32.0658 19.9323 34.4 23.9998 34.4V34.4Z" fill="#34A853"/>
</svg>
