<svg width="48" height="48" viewBox="0 0 48 48" fill="none" xmlns="http://www.w3.org/2000/svg">
<path d="M24 48C37.2548 48 48 37.2548 48 24C48 10.7452 37.2548 0 24 0C10.7452 0 0 10.7452 0 24C0 37.2548 10.7452 48 24 48Z" fill="white"/>
<path d="M33.6467 28.845C37.0831 26.9399 39.7075 25.4847 39.9463 25.3522C40.6584 24.9574 41.4045 23.9499 39.9463 23.1445C39.4776 22.8852 36.9237 21.4746 33.6426 19.6615L29.1299 24.2675L33.6467 28.845V28.845Z" fill="#FFE300"/>
<path d="M29.1288 24.2676L14.6953 38.9988C15.0213 39.0407 15.4133 38.9533 15.8642 38.7033C16.7978 38.1857 26.8236 32.6271 33.6458 28.8446L29.1288 24.2676V24.2676Z" fill="#FF4E54"/>
<path d="M29.1294 24.2675L33.6421 19.6616C33.6421 19.6616 16.869 10.3924 15.8648 9.83754C15.4788 9.62419 15.058 9.54974 14.6855 9.63376L29.1294 24.2675V24.2675Z" fill="#00F085"/>
<path d="M29.1292 24.2676L14.6851 9.63403C14.0885 9.76883 13.5996 10.2918 13.5996 11.3431V37.2431C13.5996 38.2331 13.9842 38.9294 14.6955 38.9988L29.1292 24.2676V24.2676Z" fill="#00E0FF"/>
</svg>
