<svg width="48" height="48" viewBox="0 0 48 48" fill="none" xmlns="http://www.w3.org/2000/svg">
<path d="M0 24C0 10.7452 10.7452 0 24 0C37.2548 0 48 10.7452 48 24C48 37.2548 37.2548 48 24 48C10.7452 48 0 37.2548 0 24Z" fill="white"/>
<path d="M13.5173 37.121L11.2002 11.2H36.6611L34.3415 37.1169L23.915 40L13.5173 37.121Z" fill="#E44D26"/>
<path d="M23.9307 37.7044L32.378 35.3804L34.3654 13.287H23.9307V37.7044Z" fill="#F16529"/>
<path d="M23.9304 22.8428H19.7454L19.4564 19.592H23.9304V16.4174H23.9195H16L16.0757 17.2691L16.853 26.0174H23.9304V22.8428Z" fill="#EBEBEB"/>
<path d="M23.9309 31.2197L23.9171 31.2235L20.4198 30.2551L20.1963 27.687H18.4968H17.0439L17.4839 32.7429L23.9164 34.574L23.9309 34.5699V31.2197Z" fill="#EBEBEB"/>
<path d="M23.9307 22.887V26.0991H27.8001L27.4354 30.2651L23.9307 31.232V34.5739L30.3727 32.7488L30.4199 32.2062L31.1583 23.7495L31.235 22.887H30.3882H23.9307Z" fill="white"/>
<path d="M23.9307 16.4174V18.3616V19.5401V19.5478H31.5675V19.5478H31.5776L31.6411 18.8442L31.7854 17.2572L31.8611 16.4174H23.9307Z" fill="white"/>
</svg>
