<svg width="48" height="48" viewBox="0 0 48 48" fill="none" xmlns="http://www.w3.org/2000/svg">
<path d="M0 24C0 10.7452 10.7452 0 24 0C37.2548 0 48 10.7452 48 24C48 37.2548 37.2548 48 24 48C10.7452 48 0 37.2548 0 24Z" fill="white"/>
<path fill-rule="evenodd" clip-rule="evenodd" d="M16.5852 17.3752C16.0459 17.3752 15.5606 16.8809 15.5606 16.3318C15.5606 15.0687 18.6882 14.1351 22.2471 14.1351C22.5707 14.1351 22.7864 14.1351 22.7864 13.8605C22.7864 13.3663 21.7079 13.2015 21.7079 12.3778C21.7079 11.4991 22.7325 10.95 24.0266 10.95C25.3208 10.95 26.3453 11.4991 26.3453 12.3778C26.3453 13.2015 25.2669 13.3114 25.2669 13.8605C25.2669 14.0253 25.4286 14.1351 25.8061 14.1351C29.3651 14.1351 32.5466 15.0138 32.5466 16.3318C32.5466 16.8809 32.1152 17.3752 31.522 17.3752H16.5852ZM32.7083 22.3725C34.0025 23.1963 34.4878 24.679 34.2721 26.0519L32.7622 34.3443C32.4387 35.9918 31.0367 37.2 29.3651 37.2H24.0806H18.796C17.1244 37.2 15.7224 35.9918 15.3989 34.3443L13.889 26.0519C13.6733 24.7339 14.2125 23.2512 15.5067 22.4275C16.2616 21.8783 16.4234 20.9447 15.5067 20.6152C14.2125 20.121 14.4822 18.5284 15.7763 18.5284H23.6492C24.8894 18.5284 26.3993 19.462 26.3993 22.4824C26.3993 25.5028 24.9973 25.2282 24.9973 27.3699C24.9973 28.3035 25.7522 29.292 26.6689 29.4018C28.2327 29.5666 29.1494 28.9625 29.1494 26.7659C29.1494 24.5143 27.8552 23.4709 27.8552 21.6037C27.8552 19.3521 29.2572 18.4735 30.1739 18.4735H32.4387C33.7329 18.4735 34.0025 20.0661 32.7083 20.5603C31.7916 20.9447 31.9534 21.8783 32.7083 22.3725Z" fill="#16A5F3"/>
</svg>
