<svg width="48" height="48" viewBox="0 0 48 48" fill="none" xmlns="http://www.w3.org/2000/svg">
<path d="M0 24C0 10.7452 10.7452 0 24 0C37.2548 0 48 10.7452 48 24C48 37.2548 37.2548 48 24 48C10.7452 48 0 37.2548 0 24Z" fill="white"/>
<path fill-rule="evenodd" clip-rule="evenodd" d="M35.8604 18.0487C36.8862 19.8782 37.4711 21.9837 37.4711 24.2247H37.4716C37.4716 24.7806 37.4355 25.3282 37.3658 25.8655H18.9711C18.9711 28.8653 21.5976 31.2971 24.8378 31.2971C27.0492 31.2971 28.9742 30.1638 29.974 28.4905H36.7314C34.9604 33.4281 30.2027 36.9639 24.6107 36.9639C22.568 36.9639 20.6371 36.4915 18.9219 35.6522C17.329 36.4686 5.91351 41.9385 9.57111 28.9856C9.59551 28.8994 10.1594 27.4467 11.3176 25.3674C11.5386 24.9708 11.7839 24.5492 12.0484 24.1119L12.059 24.0948C12.1574 23.9323 12.2583 23.7681 12.3628 23.6011L12.3799 23.5739C12.4843 23.4074 12.5908 23.2396 12.7012 23.0692L12.7043 23.0644C13.1236 22.4174 13.5879 21.7438 14.096 21.057L14.1506 20.983C14.1882 20.9319 14.2257 20.8809 14.2643 20.8295C14.3269 20.7462 14.3912 20.6626 14.4555 20.579L14.5092 20.509L14.551 20.4547C14.6098 20.3782 14.6685 20.3016 14.7287 20.2248C14.8026 20.1305 14.8783 20.0361 14.9539 19.9416L14.954 19.9416L14.954 19.9415L14.9668 19.9255C15.0494 19.8225 15.132 19.7194 15.2166 19.6161C15.2947 19.5206 15.3743 19.4251 15.4542 19.3295C15.5444 19.2214 15.6356 19.1134 15.728 19.0054C15.8072 18.9128 15.8874 18.8203 15.9682 18.7279C16.0656 18.6164 16.1644 18.5052 16.2642 18.394C16.3444 18.3044 16.4248 18.2152 16.5066 18.1259C16.6118 18.011 16.719 17.8965 16.8268 17.7821L16.8815 17.7241C16.9437 17.6581 17.006 17.592 17.0694 17.5261C17.1848 17.4062 17.3028 17.2871 17.4211 17.1678L17.4857 17.1024L17.4859 17.1023C17.5422 17.0453 17.5984 16.9883 17.6558 16.9316C17.7891 16.8 17.9256 16.6695 18.0624 16.5391C18.0884 16.5144 18.1141 16.4896 18.1397 16.4648L18.1398 16.4648L18.1398 16.4647L18.1399 16.4646C18.1817 16.4243 18.2234 16.384 18.2662 16.344C18.4736 16.1498 18.6846 15.9569 18.9 15.7662C17.5502 16.3442 15.296 17.7884 12.0751 21.3678C13.3843 15.7077 18.4996 11.4855 24.6107 11.4855C24.8555 11.4855 25.0984 11.4929 25.3399 11.5064C26.9774 10.7495 28.7526 10.1523 30.6714 9.78042C31.1756 9.68268 40.2326 8.24702 35.8604 18.0487ZM35.539 17.5078C37.0644 13.5919 36.1762 12.4291 35.0687 11.6886C33.3959 10.5701 30.4486 11.7744 29.2584 12.3437C31.8747 13.3487 34.0759 15.177 35.539 17.5078ZM11.5327 35.626C10.6307 34.7097 10.4712 32.4779 12.4616 28.411C13.4662 31.2719 15.4707 33.669 18.0616 35.1904C16.7731 35.8929 13.3523 37.4747 11.5327 35.626ZM24.7539 17.1315C21.6066 17.1315 19.045 19.4659 18.9422 22.3815H30.5656C30.4628 19.4659 27.9011 17.1315 24.7539 17.1315Z" fill="#1EBBEE"/>
</svg>
