<svg width="48" height="48" viewBox="0 0 48 48" fill="none" xmlns="http://www.w3.org/2000/svg">
<path d="M0 24C0 10.7452 10.7452 0 24 0C37.2548 0 48 10.7452 48 24C48 37.2548 37.2548 48 24 48C10.7452 48 0 37.2548 0 24Z" fill="#FF3366"/>
<path fill-rule="evenodd" clip-rule="evenodd" d="M18.6288 14.552C18.6288 13.1048 17.4479 12 16.0381 12C14.6284 12 13.4475 13.1048 13.4475 14.552C13.4475 16.0003 14.6284 17.1052 16.0381 17.1052C17.4479 17.1052 18.6288 16.0003 18.6288 14.552ZM29.4849 32.7252C29.4849 34.8595 30.7417 36.4207 33.3706 36.4207C35.6185 36.4207 37.4091 34.9736 38.3996 31.5065L36.7236 30.8594C35.8853 33.1822 35.1613 33.6023 34.59 33.6023C34.0184 33.6023 33.7133 33.2217 33.7133 32.4601C33.7133 32.1173 33.7901 31.7372 33.9039 31.279L35.1233 26.9C35.4281 25.8717 35.5424 24.9613 35.5424 24.1235C35.5424 20.8471 33.5611 19.1409 31.1609 19.1409C28.9133 19.1409 26.6272 21.1757 25.4844 23.3096L26.3224 19.4944H19.8075L18.8931 22.8776H21.941L20.0643 30.3744C18.5902 33.6508 15.8827 33.6862 15.543 33.61C14.9851 33.4842 14.6284 33.276 14.6284 32.5513C14.6284 32.1328 14.7045 31.5394 14.895 30.8149L17.7527 19.4944H10.514L9.59961 22.8776H12.6092L10.6662 30.7913C10.514 31.439 10.4376 32.1145 10.4376 32.6851C10.4376 34.9333 11.6567 36.4171 14.2474 36.4171C16.3964 36.4171 18.1382 35.1238 19.3923 33.0635L18.6265 36.1026H22.8934L25.3319 26.3566C25.9413 23.8799 27.1223 22.6292 28.9133 22.6292C30.323 22.6292 31.1992 23.5059 31.1992 24.9532C31.1992 25.3725 31.1609 25.8292 31.0087 26.3247L29.7512 30.8203C29.5607 31.468 29.4849 32.1162 29.4849 32.7252Z" fill="white"/>
</svg>
