<svg width="48" height="48" viewBox="0 0 48 48" fill="none" xmlns="http://www.w3.org/2000/svg">
<path d="M0 24C0 10.7452 10.7452 0 24 0C37.2548 0 48 10.7452 48 24C48 37.2548 37.2548 48 24 48C10.7452 48 0 37.2548 0 24Z" fill="#E94543"/>
<path d="M35.1938 19.9873C30.3098 20.0505 29.4914 18.1457 29.2826 17.2505C29.0322 16.1745 29.113 16.4961 28.4658 13.2049C27.7362 8.45607 24.8674 9.54567 24.8674 9.54567C22.677 9.91207 19.4602 13.0025 18.7306 14.0977C17.6354 15.1945 17.4546 16.2505 14.3482 14.8041C8.38105 11.5137 8.87625 17.5209 8.87625 17.5209C9.54985 22.0633 11.1186 24.0417 12.7786 25.6313C11.7954 29.8145 12.0418 32.4281 12.6258 34.9817C13.7378 39.8377 16.7594 37.6281 17.7978 36.8673C18.8354 36.1049 21.1514 33.6857 21.1514 33.6857C21.1514 33.6857 22.421 35.3209 25.6666 37.2657C31.4794 40.7489 32.7026 37.7041 32.5642 35.2121C32.4514 33.1809 31.401 28.9457 31.401 28.9457C35.0914 28.2153 37.109 25.7545 37.109 25.7545C42.5522 20.2185 35.1938 19.9873 35.1938 19.9873" fill="#A32025"/>
<path d="M34.8946 19.2563C30.0538 19.3187 29.2426 17.4307 29.0362 16.5435C28.7874 15.4771 28.8682 15.7955 28.2258 12.5339C27.5026 7.82754 24.6594 8.90674 24.6594 8.90674C22.4874 9.26994 19.3002 12.3331 18.577 13.4187C17.4914 14.5059 17.3114 15.5523 14.233 14.1195C8.31857 10.8571 8.80977 16.8123 8.80977 16.8123C9.47777 21.3139 11.0322 23.2755 12.6778 24.8507C11.7026 28.9971 11.9458 31.5883 12.5258 34.1187C13.6282 38.9315 16.6226 36.7411 17.6514 35.9875C18.6802 35.2323 20.977 32.8339 20.977 32.8339C20.977 32.8339 22.2346 34.4547 25.4514 36.3819C31.213 39.8347 32.4258 36.8163 32.2882 34.3475C32.177 32.3339 31.1354 28.1355 31.1354 28.1355C34.7938 27.4123 36.7922 24.9731 36.7922 24.9731C42.1882 19.4851 34.8946 19.2563 34.8946 19.2563" fill="#F5D53A"/>
<path d="M15.6904 23.795C15.6904 23.795 16.5432 27.5158 20.1656 28.8638C23.7096 30.183 27.6464 26.6494 27.6464 26.6494C27.6464 26.6494 24.3048 31.6006 19.7056 29.9726C16.1512 28.7142 15.6904 23.795 15.6904 23.795" fill="#764921"/>
<path d="M22.9817 20.1892C22.4041 22.3484 20.8769 23.8156 19.5713 23.466C18.2657 23.1164 17.6761 21.0828 18.2545 18.9236C18.8313 16.7652 20.3593 15.2972 21.6649 15.6468C22.9705 15.9972 23.5609 18.03 22.9817 20.1892" fill="white"/>
<path d="M27.586 21.3478C27.0076 23.507 25.4812 24.9742 24.1756 24.6246C22.8692 24.275 22.2796 22.2414 22.858 20.0822C23.4356 17.9238 24.9628 16.4558 26.2684 16.8054C27.574 17.1558 28.1644 19.1886 27.586 21.3478" fill="white"/>
<path d="M27.2962 19.7357C27.1162 20.8325 26.4522 21.6365 25.813 21.5317C25.1738 21.4277 24.8002 20.4541 24.9794 19.3565C25.1586 18.2597 25.8218 17.4557 26.4618 17.5605C27.1018 17.6653 27.4754 18.6381 27.2962 19.7357" fill="#313638"/>
<path d="M22.5912 18.7603C22.412 19.8571 21.748 20.6611 21.108 20.5571C20.4688 20.4523 20.0952 19.4787 20.2744 18.3819C20.4536 17.2851 21.1176 16.4803 21.7568 16.5851C22.3968 16.6899 22.7712 17.6627 22.5912 18.7603" fill="#313638"/>
<path d="M22.3878 18.2048C22.3878 18.5072 22.1734 18.7536 21.9094 18.7536C21.6462 18.7536 21.4326 18.5072 21.4326 18.2048C21.4326 17.9016 21.6462 17.656 21.9094 17.656C22.1734 17.656 22.3878 17.9016 22.3878 18.2048" fill="white"/>
<path d="M27.0929 19.1196C27.0929 19.4228 26.8785 19.6684 26.6153 19.6684C26.3513 19.6684 26.1377 19.4228 26.1377 19.1196C26.1377 18.8172 26.3513 18.5708 26.6153 18.5708C26.8785 18.5708 27.0929 18.8172 27.0929 19.1196" fill="white"/>
<path d="M16.7321 20.7506C16.7321 21.853 15.8993 22.7474 14.8729 22.7474C13.8457 22.7474 13.0137 21.853 13.0137 20.7506C13.0137 19.6474 13.8457 18.7538 14.8729 18.7538C15.8993 18.7538 16.7321 19.6474 16.7321 20.7506" fill="#EF7B1D"/>
<path d="M31.7311 24.485C31.7311 25.5874 30.8983 26.4818 29.8719 26.4818C28.8447 26.4818 28.0127 25.5874 28.0127 24.485C28.0127 23.3818 28.8447 22.4882 29.8719 22.4882C30.8983 22.4882 31.7311 23.3818 31.7311 24.485" fill="#EF7B1D"/>
</svg>
