<svg width="48" height="48" viewBox="0 0 48 48" fill="none" xmlns="http://www.w3.org/2000/svg">
<path d="M0 24C0 10.7452 10.7452 0 24 0C37.2548 0 48 10.7452 48 24C48 37.2548 37.2548 48 24 48C10.7452 48 0 37.2548 0 24Z" fill="#FFE812"/>
<path d="M24 11C15.1634 11 8 16.6482 8 23.6154C8 28.1198 10.9948 32.0723 15.4997 34.3042C15.2546 35.1494 13.9248 39.7417 13.8718 40.1025C13.8718 40.1025 13.84 40.3735 14.0155 40.4769C14.1911 40.5803 14.3975 40.5 14.3975 40.5C14.9009 40.4297 20.2349 36.6829 21.1582 36.0323C22.0805 36.1629 23.0302 36.2308 24 36.2308C32.8366 36.2308 40 30.5828 40 23.6154C40 16.6482 32.8366 11 24 11Z" fill="#381F1F"/>
<path d="M15.154 28.0193C14.6449 28.0193 14.2309 27.6239 14.2309 27.1377V21.6539H12.7906C12.2911 21.6539 11.8848 21.2483 11.8848 20.75C11.8848 20.2517 12.2912 19.8462 12.7906 19.8462H17.5174C18.0169 19.8462 18.4232 20.2517 18.4232 20.75C18.4232 21.2483 18.0168 21.6539 17.5174 21.6539H16.0771V27.1377C16.0771 27.6239 15.6631 28.0193 15.154 28.0193ZM23.2481 28.0073C22.8632 28.0073 22.5688 27.851 22.48 27.5996L22.0229 26.403L19.2081 26.4028L18.7508 27.6002C18.6623 27.8511 18.368 28.0073 17.9831 28.0073C17.7806 28.0075 17.5805 27.964 17.3963 27.8799C17.1418 27.7625 16.8972 27.4397 17.1775 26.5691L19.3855 20.7574C19.5411 20.3154 20.0135 19.86 20.6148 19.8463C21.2177 19.8599 21.6901 20.3154 21.846 20.7583L24.0531 26.5674C24.334 27.44 24.0894 27.763 23.8349 27.88C23.6507 27.964 23.4506 28.0074 23.2481 28.0073C23.248 28.0073 23.2481 28.0073 23.2481 28.0073V28.0073ZM21.5375 24.7679L20.6155 22.1487L19.6935 24.7679H21.5375V24.7679ZM25.5386 27.8847C25.0508 27.8847 24.654 27.505 24.654 27.0385V20.7693C24.654 20.2602 25.0768 19.8462 25.5963 19.8462C26.1158 19.8462 26.5386 20.2602 26.5386 20.7693V26.1923H28.5001C28.988 26.1923 29.3848 26.572 29.3848 27.0385C29.3848 27.505 28.988 27.8847 28.5001 27.8847H25.5386ZM30.6669 28.0073C30.1578 28.0073 29.7438 27.5933 29.7438 27.0842V20.7693C29.7438 20.2602 30.1578 19.8462 30.6669 19.8462C31.176 19.8462 31.59 20.2602 31.59 20.7693V22.7533L34.1654 20.1779C34.2978 20.0454 34.4798 19.9725 34.6774 19.9725C34.9078 19.9725 35.1392 20.0719 35.3126 20.2451C35.4743 20.4067 35.5708 20.6145 35.584 20.8303C35.5974 21.048 35.5249 21.2476 35.3803 21.3923L33.2768 23.4956L35.5489 26.5057C35.6223 26.6023 35.6757 26.7125 35.7061 26.8299C35.7366 26.9473 35.7434 27.0695 35.7261 27.1896C35.7097 27.3097 35.6696 27.4254 35.6081 27.5299C35.5466 27.6344 35.465 27.7256 35.368 27.7983C35.2084 27.9197 35.0133 27.9851 34.8128 27.9847C34.6697 27.9853 34.5285 27.9525 34.4005 27.8888C34.2724 27.825 34.1611 27.7322 34.0754 27.6177L31.9106 24.7494L31.5903 25.0697V27.0837C31.59 27.3286 31.4926 27.5633 31.3195 27.7364C31.1464 27.9095 30.9117 28.0069 30.6669 28.0073V28.0073Z" fill="#FFE812"/>
</svg>
