<svg width="48" height="48" viewBox="0 0 48 48" fill="none" xmlns="http://www.w3.org/2000/svg">
<path d="M24 48C37.2548 48 48 37.2548 48 24C48 10.7452 37.2548 0 24 0C10.7452 0 0 10.7452 0 24C0 37.2548 10.7452 48 24 48Z" fill="#2BDE73"/>
<path d="M21.3973 20.179L25.7987 13.8021C26.6309 12.6007 27.705 12 29.0221 12C30.0965 12 31.026 12.3811 31.8121 13.1436C32.5975 13.906 32.9901 14.8187 32.9901 15.8815C32.9901 16.6671 32.7826 17.3604 32.3665 17.9611L28.398 23.7315L33.2502 29.8832C33.7355 30.4955 33.978 31.2119 33.978 32.032C33.978 33.1182 33.5972 34.0506 32.8344 34.8304C32.072 35.6105 31.1472 36 30.0618 36C28.8717 36 27.9651 35.6134 27.341 34.8391L21.3973 27.4225V31.5123C21.3973 32.6793 21.1953 33.5858 20.7908 34.2328C20.0515 35.4109 18.9771 36 17.5679 36C16.2854 36 15.2915 35.5668 14.5872 34.7005C13.9286 33.9033 13.5996 32.846 13.5996 31.5297V16.3667C13.5996 15.119 13.9342 14.0912 14.6046 13.2824C15.3092 12.4277 16.2794 12 17.5155 12C18.6941 12 19.6759 12.4277 20.4615 13.2824C20.9004 13.7558 21.1777 14.2353 21.2931 14.7206C21.3626 15.0212 21.3973 15.5811 21.3973 16.4014V20.179" fill="white"/>
</svg>
