<svg width="48" height="48" viewBox="0 0 48 48" fill="none" xmlns="http://www.w3.org/2000/svg">
<path d="M24 48C37.2548 48 48 37.2548 48 24C48 10.7452 37.2548 0 24 0C10.7452 0 0 10.7452 0 24C0 37.2548 10.7452 48 24 48Z" fill="white"/>
<path d="M14.8569 33.2415V38.3643L19.647 35.641C20.9822 36.0259 22.4016 36.2336 23.8722 36.2336C31.7552 36.2336 38.1447 30.271 38.1447 22.9168C38.1447 15.5621 31.7552 9.59998 23.8722 9.59998C15.9896 9.59998 9.59961 15.5621 9.59961 22.9168C9.59961 27.0813 11.6485 30.7998 14.8569 33.2415Z" fill="url(#paint0_linear)"/>
<path d="M22.3485 19.2694L14.6514 27.419L21.6564 23.5756L25.3164 27.419L32.9701 19.2694L26.0428 23.0455L22.3485 19.2694V19.2694Z" fill="white"/>
<defs>
<linearGradient id="paint0_linear" x1="11.1924" y1="11.5444" x2="11.1924" y2="37.0987" gradientUnits="userSpaceOnUse">
<stop stop-color="#00C6FF"/>
<stop offset="1" stop-color="#0068FF"/>
</linearGradient>
</defs>
</svg>
