<svg width="48" height="48" viewBox="0 0 48 48" fill="none" xmlns="http://www.w3.org/2000/svg">
<path d="M0 24C0 10.7452 10.7452 0 24 0C37.2548 0 48 10.7452 48 24C48 37.2548 37.2548 48 24 48C10.7452 48 0 37.2548 0 24Z" fill="#E8442E"/>
<path fill-rule="evenodd" clip-rule="evenodd" d="M12.2247 16.731C12.848 14.3399 14.8252 12.5211 17.2827 12.0817C17.6046 12.0255 18.3352 12.0102 20.7671 12.0051C23.761 12 23.8478 12.0051 23.8989 12.097C23.9347 12.1686 23.95 16.0719 23.95 24.3588C23.95 35.5375 23.9449 36.5235 23.8683 36.6002C23.7916 36.6768 23.4953 36.6819 20.6342 36.6615C17.8702 36.6462 17.4411 36.6308 17.1039 36.5542C14.5187 35.9513 12.6998 34.1274 12.1327 31.5677C12.0305 31.0926 12.0254 30.9495 12.0101 24.7982C11.9846 18.1002 11.9999 17.5944 12.2247 16.731ZM21.9064 34.6945L21.9064 24.3435V13.9925L19.9292 13.9976C17.7425 14.0027 17.4308 14.0334 16.7564 14.3041C15.4128 14.8406 14.4165 16.031 14.1099 17.4667C14.0027 17.9725 14.0027 30.6839 14.1151 31.1999C14.4574 32.8501 15.6784 34.1172 17.3236 34.5412C17.7067 34.6383 17.9111 34.6485 19.827 34.6689L21.9064 34.6945Z" fill="white"/>
<path d="M17.722 17.1141C17.4002 17.1754 16.9097 17.4207 16.6491 17.6506C16.1127 18.1155 15.847 18.7746 15.8879 19.5512C15.9083 19.9548 15.9339 20.0621 16.0974 20.389C16.3375 20.8846 16.7002 21.2474 17.1958 21.4926C17.5381 21.6612 17.625 21.6816 18.0695 21.697C18.4731 21.7123 18.6161 21.697 18.8869 21.605C19.9956 21.232 20.6649 20.154 20.4758 19.0505C20.2562 17.7374 19.0095 16.8587 17.722 17.1141Z" fill="white"/>
<path fill-rule="evenodd" clip-rule="evenodd" d="M26.4023 24.3435C26.4023 17.5893 26.4177 12.0511 26.4381 12.0357C26.4534 12.0153 27.4753 12 28.7014 12C30.4794 12 31.0312 12.0153 31.3888 12.0766C34.0557 12.5364 36.0841 14.5443 36.5898 17.2061C36.6614 17.5791 36.6716 18.4528 36.6716 24.3129C36.6716 30.5732 36.679 31.3096 36.4816 31.9862C36.4476 32.1031 36.4074 32.2182 36.3599 32.3597C36.2731 32.61 36.1045 33.0136 35.9768 33.2538C34.9805 35.1288 33.1514 36.3907 31.0772 36.6258C30.5867 36.6768 26.622 36.6973 26.4841 36.6462C26.4075 36.6155 26.4023 35.4864 26.4023 24.3435ZM33.6113 24.7574C33.3456 23.9808 32.6916 23.3728 31.8946 23.1633C30.6173 22.8312 29.289 23.5669 28.9058 24.8187C28.7781 25.2172 28.773 25.8711 28.8854 26.2594C29.2583 27.5265 30.6173 28.298 31.8946 27.9659C32.6814 27.7564 33.2945 27.1893 33.6061 26.382C33.7747 25.9427 33.7799 25.2376 33.6113 24.7574Z" fill="white"/>
</svg>
