<svg width="48" height="48" viewBox="0 0 48 48" fill="none" xmlns="http://www.w3.org/2000/svg">
<path d="M24 48C37.2548 48 48 37.2548 48 24C48 10.7452 37.2548 0 24 0C10.7452 0 0 10.7452 0 24C0 37.2548 10.7452 48 24 48Z" fill="white"/>
<path d="M23.9714 12.1782C17.3774 12.1782 12.0332 17.5248 12.0332 24.1188C12.0332 30.5228 17.0756 35.7481 23.4059 36.0452C23.596 36.0547 23.7837 36.0594 23.9738 36.0594C27.032 36.0594 29.8193 34.9093 31.9318 33.0202C30.5322 33.9493 28.895 34.4816 27.1461 34.4816C24.3017 34.4816 21.7568 33.0701 20.0435 30.8459C18.7223 29.2895 17.8669 26.9846 17.8098 24.3992C17.8098 24.3921 17.8098 23.8432 17.8098 23.836C17.8669 21.2531 18.7223 18.9481 20.0411 17.3893C21.7544 15.1652 24.3017 13.756 27.1461 13.756C28.895 13.756 30.5322 14.2907 31.9318 15.2198C29.8288 13.3378 27.0582 12.1901 24.0166 12.1782C24.0023 12.1782 23.9857 12.1782 23.9714 12.1782Z" fill="url(#paint0_linear)"/>
<path d="M20.041 17.3892C21.1388 16.0966 22.5527 15.3172 24.0996 15.3172C27.5761 15.3172 30.3943 19.2593 30.3943 24.1188C30.3943 28.9805 27.5761 32.9203 24.0996 32.9203C22.5527 32.9203 21.1388 32.1409 20.0434 30.8483C21.7567 33.0724 24.3016 34.4839 27.146 34.4839C28.8949 34.4839 30.5321 33.9492 31.9317 33.0225C34.3745 30.834 35.9119 27.657 35.9119 24.1188C35.9119 20.5829 34.3745 17.4035 31.9293 15.2174C30.5297 14.2883 28.8949 13.756 27.146 13.756C24.3016 13.756 21.7567 15.1675 20.0434 17.3916" fill="url(#paint1_linear)"/>
<defs>
<linearGradient id="paint0_linear" x1="12.3392" y1="12.5678" x2="12.3392" y2="35.7116" gradientUnits="userSpaceOnUse">
<stop stop-color="#FF1B2D"/>
<stop offset="0.3" stop-color="#FF1B2D"/>
<stop offset="0.61" stop-color="#FF1B2D"/>
<stop offset="1" stop-color="#A70014"/>
</linearGradient>
<linearGradient id="paint1_linear" x1="20.1407" y1="13.9319" x2="20.1407" y2="34.4014" gradientUnits="userSpaceOnUse">
<stop stop-color="#9C0000"/>
<stop offset="0.7" stop-color="#FF4B4B"/>
<stop offset="1" stop-color="#FF4B4B"/>
</linearGradient>
</defs>
</svg>
