<svg width="48" height="48" viewBox="0 0 48 48" fill="none" xmlns="http://www.w3.org/2000/svg">
<path d="M24 48C37.2548 48 48 37.2548 48 24C48 10.7452 37.2548 0 24 0C10.7452 0 0 10.7452 0 24C0 37.2548 10.7452 48 24 48Z" fill="white"/>
<path d="M26.1134 18.202L24.7998 23.2H26.1825C30.8838 23.2 32.4047 20.701 34.064 16.7443L35.9998 12.0934C29.4319 11.6075 27.4961 12.9264 26.1134 18.202" fill="#3EC4FC"/>
<path d="M12.7998 12.1169L14.7356 16.758C16.3949 20.7063 17.9159 23.2 22.6171 23.2H23.9998L22.6862 18.2126C21.3035 12.8789 19.3677 11.5628 12.7998 12.1169" fill="#FFBD00"/>
<path d="M22.6862 29.798L23.9998 24.8H22.6171C17.9159 24.8 16.3949 27.299 14.7356 31.2558L12.7998 35.9066C19.3677 36.3925 21.3035 35.0736 22.6862 29.798" fill="#F18B37"/>
<path d="M35.9998 35.8831L34.064 31.2421C32.4047 27.2937 30.8838 24.8 26.1825 24.8H24.7998L26.1134 29.7874C27.4961 35.1212 29.4319 36.4373 35.9998 35.8831" fill="#0090DB"/>
</svg>
