<svg width="48" height="48" viewBox="0 0 48 48" fill="none" xmlns="http://www.w3.org/2000/svg">
<path d="M0 24C0 10.7452 10.7452 0 24 0C37.2548 0 48 10.7452 48 24C48 37.2548 37.2548 48 24 48C10.7452 48 0 37.2548 0 24Z" fill="white"/>
<path d="M20.7998 12.8L20.7998 33.6993L25.2604 35.2V17.67C25.2604 16.8493 25.6077 16.3008 26.1614 16.4914C26.8908 16.7051 27.0333 17.4623 27.0333 18.283V25.2838C29.8116 26.7054 31.9998 25.2829 31.9998 21.5237C31.9998 17.67 30.7199 15.96 26.9426 14.5856C25.4579 14.055 22.6949 13.1717 20.7998 12.8" fill="black"/>
<path d="M26.4004 32.548L33.6732 29.9211C34.4958 29.6225 34.6239 29.1999 33.9548 28.9778C33.2841 28.7549 32.0699 28.8197 31.2448 29.1192L26.4004 30.8478V28.0944L26.6795 27.9996C26.6795 27.9996 28.0801 27.498 30.0495 27.2775C32.0182 27.0571 34.4293 27.3058 36.3208 28.0328C38.4545 28.7174 38.695 29.7231 38.154 30.416C37.6105 31.109 36.2822 31.6039 36.2822 31.6039L26.4004 35.2V32.548" fill="black"/>
<path d="M11.8826 31.2163C9.48451 30.5725 9.08468 29.2316 10.1755 28.4591C11.1881 27.745 12.9033 27.2057 12.9033 27.2057L19.9996 24.8V27.5418L14.8944 29.2865C13.9905 29.5968 13.853 30.0315 14.5853 30.2613C15.3193 30.491 16.6473 30.4259 17.5503 30.1155L19.9996 29.2693V31.723C19.8433 31.7505 19.6699 31.7762 19.5108 31.8019C17.0597 32.1843 14.4514 32.0257 11.8826 31.2163" fill="black"/>
</svg>
