<svg width="48" height="48" viewBox="0 0 48 48" fill="none" xmlns="http://www.w3.org/2000/svg">
<path d="M0 24C0 10.7452 10.7452 0 24 0C37.2548 0 48 10.7452 48 24C48 37.2548 37.2548 48 24 48C10.7452 48 0 37.2548 0 24Z" fill="#E84352"/>
<path fill-rule="evenodd" clip-rule="evenodd" d="M13.3794 12H34.62C36.7056 12 38.3996 13.7053 38.3996 15.8089V26.3605C38.3996 26.5563 38.3842 26.7488 38.3559 26.9368C38.3842 27.2178 38.3996 27.5018 38.3996 27.7889C38.3996 33.8371 31.9525 38.7421 23.9995 38.7421C16.0463 38.7421 9.59961 33.8371 9.59961 27.7889C9.59961 27.5019 9.61364 27.2178 9.64317 26.9368C9.61432 26.7487 9.59961 26.5563 9.59961 26.3605V15.8088C9.59961 13.7059 11.2918 12 13.3794 12ZM25.3926 30.0445L32.8302 22.6077C33.5774 21.8597 33.5774 20.6506 32.8302 19.904C32.0849 19.1589 30.8712 19.1569 30.1265 19.904L23.9996 26.0309L17.8731 19.904C17.1249 19.1558 15.9157 19.1569 15.1694 19.904C14.4241 20.6495 14.4222 21.8609 15.1694 22.6077L22.6053 30.0445C22.9962 30.4354 23.5122 30.6218 24.023 30.6042C24.5184 30.6084 25.0148 30.4223 25.3926 30.0445Z" fill="white"/>
</svg>
