<svg width="48" height="48" viewBox="0 0 48 48" fill="none" xmlns="http://www.w3.org/2000/svg">
<path d="M0 24C0 10.7452 10.7452 0 24 0C37.2548 0 48 10.7452 48 24C48 37.2548 37.2548 48 24 48C10.7452 48 0 37.2548 0 24Z" fill="white"/>
<path d="M34.568 37.8736C34.3832 39.3344 31.9992 40.2336 29.2456 39.884C26.4928 39.5328 24.4104 38.064 24.5976 36.6024C24.7832 35.1416 27.1664 34.2416 29.9192 34.5928C32.6736 34.9432 34.7536 36.4128 34.568 37.8736" fill="#E48013"/>
<path d="M13.7899 37.7325C14.0067 39.1973 16.4827 40.1349 19.3235 39.8285C22.1635 39.5205 24.2891 38.0837 24.0723 36.6181C23.8563 35.1541 21.3771 34.2157 18.5379 34.5237C15.6979 34.8309 13.5707 36.2677 13.7899 37.7325" fill="#E48013"/>
<path d="M34.3221 18.6872C34.3221 24.1464 29.8621 28.5736 24.3581 28.5736C18.8573 28.5736 14.3965 24.1464 14.3965 18.6872C14.3965 13.2256 18.8573 8.80005 24.3581 8.80005C29.8621 8.80005 34.3221 13.2256 34.3221 18.6872" fill="black"/>
<path d="M13.7021 37.4411C13.9189 38.9059 16.3949 39.8435 19.2357 39.5371C22.0757 39.2291 24.2013 37.7923 23.9845 36.3267C23.7685 34.8627 21.2893 33.9243 18.4501 34.2323C15.6101 34.5395 13.4829 35.9763 13.7021 37.4411" fill="#F5A519"/>
<path d="M34.6813 37.5196C34.4965 38.9804 32.1125 39.8796 29.3589 39.53C26.6061 39.1788 24.5237 37.71 24.7109 36.2484C24.8965 34.7876 27.2797 33.8876 30.0325 34.2388C32.7869 34.5892 34.8669 36.0588 34.6813 37.5196" fill="#F5A519"/>
<path d="M33.8236 29.6365C33.8236 34.0597 29.5188 37.6453 24.2108 37.6453C18.9028 37.6453 14.5996 34.0597 14.5996 29.6365C14.5996 25.2133 18.9028 21.6277 24.2108 21.6277C29.5188 21.6277 33.8236 25.2133 33.8236 29.6365" fill="black"/>
<path d="M16.1728 28.045C14.7616 30.8618 12.548 32.645 11.8904 32.2954C11.0208 31.8314 10.8104 28.9858 12.2224 26.1698C13.636 23.3546 15.9144 21.5506 17.0056 22.097C18.0944 22.645 17.5848 25.229 16.1728 28.045" fill="black"/>
<path d="M32.4014 28.3997C33.6926 30.9589 35.5526 32.9453 36.3478 32.7701C36.9894 32.6293 37.4478 29.6365 36.2726 26.7701C35.0782 23.8557 32.9118 21.7629 31.8198 22.3101C30.7294 22.8573 30.9822 25.5877 32.4014 28.3997" fill="black"/>
<path d="M17.1602 24.6052C16.5666 25.8228 16.2266 27.2068 16.2266 28.6772C16.2266 33.5316 19.8834 37.4668 24.3946 37.4668C28.9058 37.4668 32.5618 33.5316 32.5618 28.6772C32.5618 27.2468 32.2378 25.9004 31.6746 24.7068C27.5178 26.826 19.9066 25.2732 17.1602 24.6052" fill="white"/>
<path d="M23.6725 16.4076C23.6725 17.726 22.7997 18.7948 21.7221 18.7948C20.6453 18.7948 19.7725 17.726 19.7725 16.4076C19.7725 15.0892 20.6453 14.0204 21.7221 14.0204C22.7997 14.0204 23.6725 15.0892 23.6725 16.4076" fill="white"/>
<path d="M29.2721 16.4209C29.2721 17.7393 28.3993 18.8081 27.3217 18.8081C26.2457 18.8081 25.3721 17.7393 25.3721 16.4209C25.3721 15.1025 26.2457 14.0337 27.3217 14.0337C28.3993 14.0337 29.2721 15.1025 29.2721 16.4209" fill="white"/>
<path d="M24.6993 19.4611C21.9841 19.4611 19.6129 20.0955 18.2969 21.0419C18.6265 21.8187 19.6225 22.4235 20.5993 22.9851C21.7793 23.6635 23.7177 24.1227 24.6929 24.1227C25.5929 24.1227 27.8209 23.5163 29.0241 22.7299C29.8705 22.1779 30.7633 21.6907 31.0881 21.0323C29.7697 20.0915 27.4057 19.4611 24.6993 19.4611" fill="#F5A519"/>
<path d="M23.3708 16.4209C23.3708 17.2553 22.8244 17.9321 22.1516 17.9321C21.478 17.9321 20.9316 17.2553 20.9316 16.4209C20.9316 15.5865 21.478 14.9097 22.1516 14.9097C22.8244 14.9097 23.3708 15.5865 23.3708 16.4209" fill="black"/>
<path d="M22.916 16.0771C22.916 16.4139 22.6872 16.6875 22.4048 16.6875C22.1224 16.6875 21.8936 16.4139 21.8936 16.0771C21.8936 15.7411 22.1224 15.4683 22.4048 15.4683C22.6872 15.4683 22.916 15.7411 22.916 16.0771" fill="white"/>
<path d="M26.3685 16.8134C26.2541 16.8134 26.1533 16.731 26.1325 16.615C26.1197 16.5422 26.1133 16.4662 26.1133 16.3886C26.1133 15.7502 26.5661 15.231 27.1221 15.231C27.6781 15.231 28.1309 15.7502 28.1309 16.3886C28.1309 16.4446 28.1277 16.499 28.1213 16.5526C28.1045 16.6838 27.9829 16.7766 27.8525 16.7606C27.7213 16.7438 27.6285 16.6238 27.6445 16.4926C27.6493 16.459 27.6517 16.4238 27.6517 16.3886C27.6517 16.015 27.4141 15.711 27.1221 15.711C26.8301 15.711 26.5925 16.015 26.5925 16.3886C26.5925 16.4374 26.5973 16.4854 26.6053 16.531C26.6285 16.6622 26.5413 16.7862 26.4109 16.8094C26.3965 16.8118 26.3829 16.8134 26.3685 16.8134" fill="black"/>
<path d="M19.2578 20.6474C19.2578 20.6474 20.757 21.9314 22.1362 22.3146C23.749 22.7626 26.0794 22.5514 26.9626 22.2554C28.5682 21.7162 30.2746 20.5546 30.2746 20.5546C30.2746 20.5546 28.7666 21.7082 27.2114 22.725C26.4298 23.2354 25.5738 23.9626 23.7722 23.5722C23.3154 23.4738 22.4978 22.9202 22.2378 22.7698C20.9066 21.9994 19.5698 20.9578 19.2578 20.6474" fill="#8A3322"/>
<path d="M20.9119 27.4904V31.8384C20.9119 31.8384 19.1151 32.6888 17.5055 31.1528C16.8887 30.5648 17.8359 26.38 17.8359 26.38L20.9119 27.4904Z" fill="#D42E19"/>
<path d="M17.5928 26.6497L20.8864 29.2873C20.8864 29.2873 20.9416 27.6385 20.8704 27.1689C20.7984 26.7001 17.5928 26.4169 17.5928 26.4169" fill="#B82C22"/>
<path d="M24.6989 28.2318C20.5525 28.2318 16.6437 26.7582 13.5573 24.0574C13.4821 23.9918 13.5053 23.7822 13.5053 23.7822C13.5053 23.7822 13.6237 23.323 13.8205 22.223C13.9581 21.4542 14.2701 20.511 14.4357 20.511C14.5413 20.5982 14.6685 20.7142 14.7941 20.8318C15.0205 21.0438 15.2397 21.2622 15.3117 21.3302C17.8669 23.7214 21.1773 25.0318 24.6989 25.0318C28.2029 25.0318 31.5245 23.7214 34.0797 21.3358C34.1005 21.3166 34.6549 22.035 34.9037 22.7654C35.1701 23.5478 35.4397 24.399 35.1941 24.5934C32.2141 26.9502 28.5461 28.2318 24.6989 28.2318" fill="#D42E19"/>
</svg>
