<svg width="48" height="48" viewBox="0 0 48 48" fill="none" xmlns="http://www.w3.org/2000/svg">
<path d="M24 48C37.2548 48 48 37.2548 48 24C48 10.7452 37.2548 0 24 0C10.7452 0 0 10.7452 0 24C0 37.2548 10.7452 48 24 48Z" fill="#FF5700"/>
<path fill-rule="evenodd" clip-rule="evenodd" d="M41.6002 23.6875C41.6002 21.4925 39.8067 19.7065 37.6016 19.7065C36.593 19.7065 35.6728 20.0836 34.9688 20.6993C32.4635 19.097 29.1513 18.0544 25.4834 17.8719L27.4121 11.8024L32.6746 13.0362C32.7336 14.8043 34.1929 16.226 35.9836 16.226C37.8111 16.226 39.2981 14.7459 39.2981 12.926C39.2981 11.1062 37.8107 9.6261 35.9836 9.6261C34.6561 9.6261 33.5119 10.4088 32.9826 11.5327L27.0693 10.1476C26.6776 10.0562 26.2797 10.2807 26.1597 10.6629L23.8764 17.8481C19.9712 17.9244 16.4284 18.9744 13.7733 20.6468C13.0771 20.0614 12.1784 19.7065 11.1988 19.7065C8.99369 19.7069 7.2002 21.4925 7.2002 23.6875C7.2002 25.0851 7.92885 26.3138 9.02574 27.0236C8.96984 27.3801 8.93974 27.7413 8.93974 28.1067C8.93974 33.7675 15.8432 38.3732 24.3298 38.3732C32.8157 38.3732 39.7199 33.7675 39.7199 28.1067C39.7199 27.7678 39.6941 27.4327 39.646 27.1011C40.8129 26.4068 41.6002 25.1388 41.6002 23.6875ZM35.9836 11.1603C36.9621 11.1603 37.7579 11.9531 37.7579 12.9272C37.7579 13.9013 36.9621 14.6937 35.9836 14.6937C35.0048 14.6937 34.2089 13.9013 34.2089 12.9272C34.2089 11.9531 35.0048 11.1603 35.9836 11.1603ZM11.1984 21.2399C9.84313 21.2399 8.74038 22.3382 8.74038 23.6875C8.74038 24.3686 9.02144 24.9847 9.4745 25.4287C10.0534 24.0016 11.08 22.6958 12.4517 21.5863C12.0838 21.3679 11.6562 21.2399 11.1984 21.2399ZM38.1797 28.1075C38.1797 32.9222 31.9658 36.8402 24.3298 36.8402C16.6926 36.8402 10.4799 32.9226 10.4799 28.1075C10.4799 27.9378 10.4893 27.7705 10.5042 27.6035C10.5507 27.0917 10.6695 26.5912 10.8505 26.1063C11.32 24.8492 12.2206 23.6957 13.4508 22.7122C13.8445 22.3973 14.271 22.1 14.7275 21.8225C17.2196 20.3082 20.6041 19.3741 24.3298 19.3741C28.1095 19.3741 31.5398 20.3346 34.04 21.8879C34.4978 22.1716 34.9231 22.476 35.3148 22.7978C36.4961 23.7665 37.3596 24.8959 37.815 26.1238C37.9944 26.6103 38.1133 27.1112 38.1579 27.6242C38.1715 27.7849 38.1797 27.9452 38.1797 28.1075ZM36.2666 21.6357C37.6376 22.7593 38.6617 24.0782 39.2243 25.5202C39.7352 25.0718 40.0596 24.4172 40.0604 23.6875C40.0604 22.3378 38.9576 21.2399 37.602 21.2399C37.1094 21.2399 36.6513 21.3862 36.2666 21.6357Z" fill="white"/>
<path d="M21.6177 26.2616C21.6177 24.9687 20.5646 23.884 19.2656 23.884C17.967 23.884 16.8779 24.9687 16.8779 26.2616C16.8779 27.5541 17.9674 28.6037 19.2656 28.6037C20.5646 28.6022 21.6177 27.5541 21.6177 26.2616V26.2616Z" fill="white"/>
<path d="M29.5709 23.8833C28.2723 23.8833 27.1797 24.9676 27.1797 26.2605C27.1797 27.5537 28.2723 28.6026 29.5709 28.6026C30.8699 28.6026 31.9238 27.5545 31.9238 26.2605C31.923 24.9668 30.8699 23.8833 29.5709 23.8833V23.8833Z" fill="white"/>
<path d="M28.9057 31.9379C28.0344 32.8042 26.5673 33.2249 24.4177 33.2249C24.4111 33.2249 24.4052 33.2269 24.399 33.2269C24.3923 33.2269 24.3868 33.2249 24.3806 33.2249C22.2306 33.2249 20.7631 32.8042 19.8929 31.9379C19.5923 31.6382 19.1045 31.6382 18.8039 31.9379C18.5029 32.238 18.5029 32.7233 18.8039 33.0218C19.977 34.1901 21.8014 34.7587 24.3806 34.7587C24.3872 34.7587 24.3927 34.7564 24.399 34.7564C24.4052 34.7564 24.4111 34.7587 24.4177 34.7587C26.9965 34.7587 28.8213 34.1901 29.9956 33.0226C30.297 32.7225 30.297 32.2376 29.9964 31.9387C29.695 31.639 29.2071 31.639 28.9057 31.9379V31.9379Z" fill="white"/>
</svg>
