<svg width="48" height="48" viewBox="0 0 48 48" fill="none" xmlns="http://www.w3.org/2000/svg">
<path d="M0 24C0 10.7452 10.7452 0 24 0C37.2548 0 48 10.7452 48 24C48 37.2548 37.2548 48 24 48C10.7452 48 0 37.2548 0 24Z" fill="white"/>
<path d="M18.2262 14.4L18.2246 21.2824C18.2246 21.2824 18.4102 24.1584 20.0846 26.6432C21.671 28.9968 23.1926 29.8888 23.987 30.2168C25.4758 28.528 26.3798 26.3112 26.3798 23.8832C26.3798 19.0744 22.8414 15.0928 18.2262 14.4" fill="#0661A7"/>
<path d="M18.4468 29.92C17.0108 28.1536 16.6428 26.4408 16.6428 26.4408C16.6428 26.4408 16.3116 28.2264 15.17 29.736C14.4532 30.6848 12.994 31.8216 12.2852 32.3488C13.6284 33.0656 15.1612 33.472 16.79 33.472C18.3964 33.472 19.91 33.0752 21.2404 32.3768C20.4132 31.7312 18.9796 30.576 18.4468 29.92" fill="#0661A7"/>
<path d="M15.0802 21.4344L15.0778 14.448C10.5978 15.256 7.2002 19.1712 7.2002 23.8832C7.2002 26.2856 8.0866 28.4816 9.5474 30.164C10.3266 29.6848 11.9826 28.5512 13.053 26.9848C14.7106 24.564 15.0802 21.4344 15.0802 21.4344" fill="#0661A7"/>
<path d="M32.6649 14.4531L32.6641 21.3355C32.6641 21.3355 32.8489 24.2115 34.5241 26.6963C36.1097 29.0499 37.6313 29.9419 38.4257 30.2699C39.9145 28.5803 40.8185 26.3643 40.8185 23.9355C40.8185 19.1267 37.2801 15.1459 32.6649 14.4531" fill="#0661A7"/>
<path d="M32.8852 29.9731C31.45 28.2059 31.082 26.4939 31.082 26.4939C31.082 26.4939 30.7508 28.2795 29.6084 29.7891C28.8916 30.7371 27.4324 31.8747 26.7236 32.4019C28.0676 33.1179 29.6004 33.5251 31.2284 33.5251C32.8348 33.5251 34.3484 33.1283 35.6796 32.4291C34.8516 31.7835 33.4188 30.6283 32.8852 29.9731" fill="#0661A7"/>
<path d="M29.5196 21.4875L29.5164 14.5011C25.0372 15.3091 21.6396 19.2235 21.6396 23.9355C21.6396 26.3387 22.5252 28.5339 23.9868 30.2171C24.766 29.7379 26.4212 28.6035 27.4924 27.0379C29.1492 24.6171 29.5196 21.4875 29.5196 21.4875" fill="#0661A7"/>
<path d="M21.6768 23.9035C21.6768 26.3155 22.5232 28.5259 23.9864 30.2171C25.4488 28.5259 26.376 26.3155 26.376 23.9035C26.376 21.4923 25.4888 19.2891 24.0264 17.5979C22.5632 19.2891 21.6768 21.4923 21.6768 23.9035" fill="#CE392C"/>
</svg>
