<svg width="48" height="48" viewBox="0 0 48 48" fill="none" xmlns="http://www.w3.org/2000/svg">
<path d="M0 24C0 10.7452 10.7452 0 24 0C37.2548 0 48 10.7452 48 24C48 37.2548 37.2548 48 24 48C10.7452 48 0 37.2548 0 24Z" fill="#F8991D"/>
<path fill-rule="evenodd" clip-rule="evenodd" d="M36.8004 33.6H32.534C32.534 23.6008 24.3997 15.4664 14.4006 15.4664V11.2C26.7517 11.2 36.8004 21.2488 36.8004 33.6ZM14.4006 30.4C14.4006 28.6328 15.8334 27.2 17.6006 27.2C19.3678 27.2 20.8006 28.6328 20.8006 30.4C20.8006 32.1672 19.3678 33.6 17.6006 33.6C15.8334 33.6 14.4006 32.1672 14.4006 30.4ZM25.0675 33.6H29.3338C29.3338 25.3656 22.6347 18.6664 14.4004 18.6664V22.9336C20.2819 22.9336 25.0675 27.7184 25.0675 33.6Z" fill="white"/>
</svg>
