<svg width="48" height="48" viewBox="0 0 48 48" fill="none" xmlns="http://www.w3.org/2000/svg">
<path d="M23.9999 0C10.7454 0 0 10.7451 0 23.9996C0 37.2555 10.7454 48 23.9999 48C37.2549 48 48 37.2555 48 23.9996C48 10.7451 37.2549 0 23.9999 0" fill="#1ED760"/>
<path d="M34.4788 34.0945C34.054 34.7911 33.1471 35.0093 32.453 34.5848C26.9021 31.1922 19.9154 30.4261 11.6872 32.3055C10.8943 32.4872 10.104 31.9904 9.92333 31.1978C9.74154 30.4049 10.2366 29.6146 11.0312 29.4336C20.0356 27.3753 27.7594 28.2611 33.9899 32.0683C34.6846 32.4926 34.9034 33.4001 34.4788 34.0945" fill="white"/>
<path d="M37.371 27.658C36.8363 28.5254 35.7022 28.7975 34.8359 28.2649C28.4837 24.3602 18.7967 23.2289 11.2813 25.5102C10.3069 25.8046 9.27748 25.2553 8.98137 24.2823C8.68781 23.3079 9.23739 22.2804 10.2104 21.9841C18.7956 19.3787 29.4685 20.6405 36.7646 25.1243C37.6309 25.6578 37.9036 26.7925 37.371 27.658" fill="white"/>
<path d="M37.6213 20.9557C30.0017 16.4306 17.4333 16.0145 10.1595 18.2222C8.99122 18.5767 7.75601 17.9173 7.40232 16.7493C7.04836 15.5804 7.70689 14.346 8.87577 13.991C17.2259 11.4565 31.1062 11.9459 39.878 17.1529C40.9289 17.7768 41.2733 19.1336 40.6506 20.1825C40.0274 21.2332 38.6694 21.5795 37.6213 20.9557" fill="white"/>
</svg>
