<svg width="48" height="48" viewBox="0 0 48 48" fill="none" xmlns="http://www.w3.org/2000/svg">
<path d="M48 24C48 37.2548 37.2548 48 24 48C10.7452 48 0 37.2548 0 24C0 10.7452 10.7452 0 24 0C37.2548 0 48 10.7452 48 24V24Z" fill="#EB4823"/>
<path fill-rule="evenodd" clip-rule="evenodd" d="M17.7602 19.36C17.7602 16.0021 20.4823 13.28 23.8402 13.28C27.1982 13.28 29.9202 16.0021 29.9202 19.36V21.12L27.2002 22L25.2802 21.12V19.36C25.2802 18.5647 24.6356 17.92 23.8402 17.92C23.0449 17.92 22.4002 18.5647 22.4002 19.36V28.16C22.4002 31.518 19.6782 34.24 16.3202 34.24C12.9623 34.24 10.2402 31.518 10.2402 28.16V24.16H14.8802V28C14.8802 28.7954 15.5249 29.44 16.3202 29.44C17.1156 29.44 17.7602 28.7954 17.7602 28V19.36ZM25.2802 28.16V24.24L27.2002 25.12L29.9202 24.24V28.16C29.9202 28.9554 30.5649 29.6 31.3602 29.6C32.1556 29.6 32.8002 28.9554 32.8002 28.16V24.32H37.4402V28.16C37.4402 31.518 34.7182 34.24 31.3602 34.24C28.0023 34.24 25.2802 31.518 25.2802 28.16Z" fill="white"/>
</svg>
