<svg width="48" height="48" viewBox="0 0 48 48" fill="none" xmlns="http://www.w3.org/2000/svg">
<path d="M24 48C37.2548 48 48 37.2548 48 24C48 10.7452 37.2548 0 24 0C10.7452 0 0 10.7452 0 24C0 37.2548 10.7452 48 24 48Z" fill="white"/>
<path d="M26.4372 10.9547C27.2377 11.6526 27.8332 12.5763 28.6131 13.2947C29.5779 14.2183 30.1937 15.3883 30.9942 16.4352C32.3899 18.5493 33.6215 20.8072 34.2578 23.2703C34.9146 24.9535 35.0173 26.7803 34.9762 28.5866C35.0173 30.2287 34.5657 31.8502 33.8266 33.3281C32.5541 35.5654 30.2552 37.0638 27.8535 37.8644C24.8567 38.5828 21.552 38.7059 18.6578 37.4333C17.6108 36.8586 16.4205 36.4686 15.5789 35.5654C13.6289 33.9644 12.5 31.3576 12.8695 28.8329C13.4442 24.3377 16.1331 20.4788 19.0067 17.1536C19.2736 17.6462 19.0476 18.2209 19.2325 18.7341C19.4788 19.822 19.8688 20.9714 20.6899 21.7514C21.6957 20.8277 22.7632 19.9041 23.6253 18.8367C24.4053 17.6872 25.0414 16.4146 25.3082 15.0599C25.37 13.3357 25.5342 11.5294 24.8772 9.88734L24.9388 9.59998C25.5546 9.88734 25.9446 10.4826 26.4372 10.9547Z" fill="#DF4723" stroke="#DF4723" stroke-width="0.0938"/>
</svg>
