<svg width="48" height="48" viewBox="0 0 48 48" fill="none" xmlns="http://www.w3.org/2000/svg">
<path d="M0 24C0 10.7452 10.7452 0 24 0C37.2548 0 48 10.7452 48 24C48 37.2548 37.2548 48 24 48C10.7452 48 0 37.2548 0 24Z" fill="white"/>
<path d="M25.9322 9.77381L25.0034 13.3697C26.3191 10.83 28.4087 8.91888 30.8081 7.23389C29.0538 9.22049 27.4544 11.2073 26.474 13.1939C28.1251 10.9305 30.3438 9.67327 32.8462 8.84339C29.5181 11.7354 26.8765 14.8386 24.8641 17.9569L23.2646 17.278C23.5482 14.7883 24.5132 12.2384 25.9322 9.77381V9.77381Z" fill="#ABCD03"/>
<path d="M21.6603 16.6168L24.7047 17.8479C24.7047 18.6025 24.6418 20.904 25.1258 21.5829C30.1889 27.939 29.3371 40.6799 24.1002 41.0067C16.1254 41.0067 13.084 35.726 13.084 30.8724C13.084 26.4464 18.5274 23.5042 21.7782 20.8889C22.6037 20.1848 22.4603 18.6287 21.6603 16.6168V16.6168Z" fill="#FFFCDB"/>
<path d="M24.7061 17.8037L25.8032 18.3493C25.7001 19.0532 25.8548 20.6126 26.5769 21.0148C29.7762 22.9511 32.7945 25.0635 33.9813 27.1758C38.2124 34.6196 31.0144 41.5098 24.7969 40.856C28.1766 38.4166 29.157 33.4124 27.8928 27.9553C27.3769 25.8177 26.5769 23.8813 25.1579 21.6935C24.5432 20.6195 24.7578 19.2876 24.7061 17.8037Z" fill="#7D4698"/>
<path d="M24.1773 17.6199L26.4475 17.9217C25.7767 20.0843 27.7634 21.5931 28.4083 21.9453C29.853 22.725 31.2462 23.5296 32.3556 24.5103C34.4454 26.3712 35.6321 28.9866 35.6321 31.7528C35.6321 34.4938 34.3421 37.1343 32.175 38.8946C30.1369 40.5543 27.3249 41.2585 24.5902 41.2585C22.8874 41.2585 21.3653 41.1831 19.7143 40.6549C15.9477 39.4227 13.1356 36.2793 12.9034 32.507C12.6969 29.5648 13.3677 27.3266 15.7156 24.988C16.928 23.7557 19.379 22.3475 21.056 21.2158C21.8817 20.6625 22.7588 19.1033 21.0817 16.1612L21.4172 15.9097L23.9025 17.5322L21.8043 16.6893C21.9849 16.9408 22.4751 18.0725 22.5784 18.3993C22.8106 19.3297 22.7074 20.2353 22.5009 20.6375C21.4433 22.4985 19.6374 23.0013 18.3217 24.0575C15.9997 25.9184 13.4714 27.4021 13.7552 32.507C13.8842 35.0217 15.8966 38.0897 18.9148 39.5232C20.6176 40.328 22.5784 40.6549 24.5649 40.7554C26.3449 40.8309 29.7504 39.7998 31.6079 38.291C33.5944 36.6817 34.7038 34.2423 34.7038 31.7528C34.7038 29.2379 33.6719 26.849 31.7369 25.164C30.6275 24.1833 28.7959 23.0013 27.6608 22.3725C26.5257 21.7439 25.1067 19.9836 25.571 18.2988L24.1773 17.6199Z" fill="black"/>
<path d="M23.481 21.3418C23.2488 22.4987 22.9908 24.5858 21.9588 25.3655C21.5202 25.6671 21.0815 25.969 20.6172 26.2707C18.7597 27.5031 16.9021 28.6596 16.0509 31.6271C15.8703 32.2559 16.0252 32.9348 16.1801 33.5634C16.6444 35.374 17.9601 37.3355 18.9921 38.4925C18.9921 38.5427 19.1985 38.6685 19.1985 38.7188C20.0499 39.6996 20.308 39.9762 23.5327 40.6801L23.4553 41.0324C21.5203 40.5295 19.9209 40.0769 18.9146 38.945C18.9146 38.92 18.734 38.7438 18.734 38.7438C17.6505 37.5366 16.3346 35.525 15.8446 33.6389C15.664 32.8843 15.5093 32.3062 15.7156 31.5264C16.5926 28.4585 18.5019 27.2513 20.4368 25.9689C20.8754 25.6923 21.3913 25.4406 21.8041 25.1138C22.6037 24.5356 23.0421 22.7751 23.481 21.3418V21.3418Z" fill="black"/>
<path d="M24.306 26.1196C24.3319 27.4273 24.201 28.0834 24.5363 29.014C24.7425 29.5671 25.4396 30.3216 25.6461 31.0509C25.9298 32.0318 26.2388 33.113 26.2128 33.7669C26.2128 34.5215 26.1644 35.9291 25.8291 37.438C25.5734 38.6848 24.9841 39.7547 23.9932 40.3611C22.9781 40.1574 21.7864 39.8096 21.0829 39.2218C19.7156 38.0651 18.5046 36.1309 18.3497 34.4459C18.2209 33.0629 19.5347 31.0231 21.3662 29.9922C22.9141 29.112 23.2742 28.1089 23.6095 26.4994C23.1451 27.9076 22.7091 29.0882 21.2128 29.8426C19.0457 30.949 17.9337 32.8064 18.0369 34.5667C18.1916 36.8299 19.1214 38.3634 20.953 39.5958C21.727 40.1239 23.1729 40.682 24.0758 40.833V40.7179C24.7606 40.5929 25.6471 39.4966 26.0888 38.0134C26.4759 36.6807 26.6284 34.9749 26.6024 33.8935C26.5765 33.2648 26.292 31.9034 25.7759 30.6712C25.4922 29.9923 25.0563 29.3134 24.7724 28.8356C24.4632 28.3574 24.4609 27.3266 24.306 26.1196Z" fill="black"/>
<path d="M24.1526 31.0509C24.1783 31.9311 24.541 33.0588 24.6957 34.2157C24.8249 35.0708 24.7688 35.9296 24.7429 36.6842C24.7174 37.5576 24.4189 39.1225 24.0109 39.8835C23.6262 39.7115 23.4758 39.5154 23.2258 39.1988C22.9164 38.7712 22.7062 38.3437 22.4997 37.8408C22.345 37.4635 22.1641 37.0317 22.0865 36.5289C21.9833 35.7745 22.0122 34.5943 22.8893 33.3871C23.5601 32.4314 23.7138 32.3588 23.946 31.2523C23.6362 32.233 23.4053 32.333 22.6827 33.1627C21.8831 34.0681 21.75 35.4016 21.75 36.4828C21.75 36.9356 21.9352 37.438 22.116 37.9156C22.3223 38.4187 22.4993 38.9195 22.7831 39.2966C23.2096 39.9081 23.7555 40.2558 24.0227 40.3208C24.0244 40.3212 24.0269 40.3205 24.0286 40.3208C24.0343 40.3221 24.0409 40.3255 24.0463 40.3266V40.2978C24.5469 39.7538 24.8481 39.2134 24.9495 38.6694C25.0785 38.0155 25.1082 37.3603 25.1856 36.5806C25.2629 35.9268 25.2068 35.0461 25.0263 34.1409C24.7684 33.0092 24.3332 31.8554 24.1526 31.0509L24.1526 31.0509Z" fill="black"/>
<path d="M24.2288 20.2855C24.2547 21.593 24.3578 24.0326 24.719 24.9881C24.8222 25.3149 25.7767 26.7484 26.4473 28.4835C26.9118 29.6906 27.0149 30.7971 27.0924 31.1239C27.402 32.5574 27.0149 34.9716 26.4989 37.26C26.241 38.4922 25.3637 40.0262 24.3576 40.6298L24.1514 40.9818C24.719 40.9566 26.112 39.6239 26.6022 37.9641C27.4279 35.1476 27.7632 33.8399 27.3763 30.7216C27.3247 30.4196 27.1957 29.3889 26.7055 28.2822C25.9831 26.5972 24.9512 24.9879 24.8223 24.6609C24.59 24.133 24.2804 21.8446 24.2288 20.2855V20.2855Z" fill="black"/>
<path d="M24.7128 18.4972C24.6363 19.841 24.6158 20.3359 24.8737 21.3166C25.1574 22.398 26.6023 23.957 27.1956 25.7426C28.3308 29.1627 28.047 33.6389 27.2213 37.1343C26.9119 38.3663 25.4411 40.1521 23.9707 40.7302L25.0542 40.9818C25.6476 40.9565 27.1696 39.5735 27.7631 37.9892C28.7174 35.4996 28.8982 32.5323 28.5112 29.414C28.4853 29.1122 27.9692 26.4215 27.4792 25.2898C26.7825 23.605 25.5441 22.096 25.4152 21.7694C25.1833 21.216 24.6735 20.0673 24.7128 18.4972Z" fill="black"/>
<rect x="23.8926" y="17.5514" width="0.8" height="23.2042" fill="black"/>
</svg>
