<svg width="48" height="48" viewBox="0 0 48 48" fill="none" xmlns="http://www.w3.org/2000/svg">
<path d="M0 24C0 10.7452 10.7452 0 24 0C37.2548 0 48 10.7452 48 24C48 37.2548 37.2548 48 24 48C10.7452 48 0 37.2548 0 24Z" fill="#5FCF80"/>
<path d="M36.0114 16.581C35.662 16.4063 34.8757 16.0568 34.0021 15.5326C33.0411 15.0084 31.5559 15.8821 30.5949 17.3673L28.935 20.1629C28.3234 21.386 28.4108 22.6964 29.1971 23.8322L29.2844 23.9195C30.0707 25.0553 31.1191 26.0162 31.3812 26.3657C31.5559 26.5404 31.7306 26.8899 31.818 27.152C32.0801 28.2003 31.5559 29.1613 30.5075 29.4234C29.5465 29.6855 28.4982 29.074 28.1487 28.113C28.0614 27.8509 28.0613 27.5888 28.0613 27.3267C28.1487 26.8899 27.974 26.191 27.3624 25.6668C26.7509 24.9679 25.5278 26.2783 25.1784 27.5014V27.5888C24.8289 28.8992 24.5668 29.9476 24.6542 30.035C24.6542 30.1223 24.7415 30.2097 24.7415 30.2097C25.2657 31.2581 24.9163 32.4811 23.8679 33.0053C22.8195 33.5295 21.5091 33.1801 20.9849 32.1317C20.4607 31.0833 20.8102 29.8602 21.8585 29.3361C21.9459 29.3361 21.9459 29.2487 22.0333 29.2487C22.1206 29.2487 22.2954 28.6372 22.5574 28.0256C22.7322 27.4141 22.9069 26.8899 22.9069 26.8899C22.9069 26.8025 22.9069 26.7152 22.9943 26.7152L24.0426 23.0459L22.9943 25.23C22.8195 24.7932 22.6448 24.7932 22.1206 25.1426C21.8585 25.3173 21.3344 25.7542 21.1596 25.9289C20.7228 26.2783 20.3734 26.8899 20.1986 27.2393C20.1113 27.5014 19.9365 27.6762 19.7618 27.8509C18.9755 28.5498 17.7525 28.3751 17.1409 27.5888C16.5294 26.8025 16.7041 25.7542 17.4904 25.1426C17.7525 24.9679 18.0145 24.7932 18.2766 24.7932C18.7135 24.7058 20.3734 23.6574 21.3344 23.0459C21.5091 22.9585 21.6838 22.7838 21.7712 22.6964L24.3047 20.8618L22.0333 22.0849H21.5091C20.8102 22.1723 19.9365 22.2596 19.7618 22.5217C19.6745 22.6091 19.5871 22.7838 19.4124 22.8712C18.7135 23.2206 17.6651 23.0459 17.0535 22.347C16.5294 21.5607 16.7041 20.5997 17.403 20.0755C17.8398 19.8134 18.1893 19.7261 18.5387 19.7261C19.1503 19.7261 20.7228 20.0755 22.0333 19.8134L22.3827 19.7261C23.6932 19.464 25.2657 18.4156 25.8773 17.1925C25.8773 17.1925 26.4888 16.0568 27.2751 14.8337C28.0613 13.5233 27.974 12.1255 27.1877 11.6013L25.7025 10.7276C24.9163 10.2908 23.6932 10.2908 22.9069 10.7276L12.598 16.4063C11.8117 16.8431 11.2002 17.9788 11.2002 18.8524V30.035C11.2002 30.9086 11.8117 31.8696 12.598 32.3064L22.9943 38.0724C23.7805 38.5092 25.0036 38.5092 25.7899 38.0724L36.0114 32.2191C36.7977 31.7822 37.4092 30.8212 37.4092 29.9476V18.8524C37.4092 17.9788 36.7977 17.0178 36.0114 16.581V16.581V16.581Z" fill="white"/>
</svg>
