<svg width="48" height="48" viewBox="0 0 48 48" fill="none" xmlns="http://www.w3.org/2000/svg">
<path d="M24 48C37.2548 48 48 37.2548 48 24C48 10.7452 37.2548 0 24 0C10.7452 0 0 10.7452 0 24C0 37.2548 10.7452 48 24 48Z" fill="url(#paint0_linear)"/>
<path fill-rule="evenodd" clip-rule="evenodd" d="M9.59961 14.4042C9.59961 11.7509 11.7408 9.59998 14.4039 9.59998H33.5954C36.2487 9.59998 38.3996 11.7411 38.3996 14.4042V33.5957C38.3996 36.249 36.2585 38.4 33.5954 38.4H14.4039C11.7505 38.4 9.59961 36.2588 9.59961 33.5957V14.4042ZM25.8716 15.0728V24.2151C25.8716 25.17 26.6451 25.944 27.5992 25.944H32.928C33.8819 25.944 34.6556 25.1699 34.6556 24.2151V15.0728C34.6556 14.1179 33.8821 13.344 32.928 13.344H27.5992C26.6454 13.344 25.8716 14.118 25.8716 15.0728ZM13.3436 31.4172V15.0708C13.3436 14.1171 14.1174 13.344 15.0712 13.344H20.4C21.3541 13.344 22.1276 14.1171 22.1276 15.0708V31.4172C22.1276 32.3709 21.3539 33.144 20.4 33.144H15.0712C14.1171 33.144 13.3436 32.3708 13.3436 31.4172Z" fill="white"/>
<defs>
<linearGradient id="paint0_linear" x1="0" y1="0" x2="0" y2="48" gradientUnits="userSpaceOnUse">
<stop stop-color="#0091E6"/>
<stop offset="1" stop-color="#0079BF"/>
</linearGradient>
</defs>
</svg>
