<svg width="48" height="48" viewBox="0 0 48 48" fill="none" xmlns="http://www.w3.org/2000/svg">
<path d="M0 24C0 10.7452 10.7452 0 24 0C37.2548 0 48 10.7452 48 24C48 37.2548 37.2548 48 24 48C10.7452 48 0 37.2548 0 24Z" fill="white"/>
<path d="M24.8835 27.57C26.1048 30.9275 29.7848 32.6452 33.0947 31.4091C36.4024 30.1644 38.0995 26.4336 36.8739 23.075C35.6515 19.7122 31.9768 17.9966 28.6627 19.237C25.3507 20.4795 23.66 24.2093 24.8835 27.57V27.57Z" fill="white"/>
<path d="M16.7108 31.7826C20.2407 31.7826 23.1023 28.8789 23.1023 25.2971C23.1023 21.7153 20.2407 18.8116 16.7108 18.8116C13.1809 18.8116 10.3193 21.7153 10.3193 25.2971C10.3193 28.8789 13.1809 31.7826 16.7108 31.7826Z" fill="white"/>
<path d="M17.8002 25.229C17.8002 25.8903 17.2711 26.4315 16.6194 26.4315C15.9655 26.4315 15.4375 25.8903 15.4375 25.229C15.4375 24.5687 15.9655 24.0341 16.6194 24.0341C17.2711 24.033 17.8002 24.5687 17.8002 25.229V25.229Z" fill="#BE3538"/>
<path d="M32.0441 25.229C32.0441 25.8903 31.5172 26.4315 30.8655 26.4315C30.2095 26.4315 29.6836 25.8903 29.6836 25.229C29.6836 24.5687 30.2095 24.0341 30.8655 24.0341C31.5172 24.033 32.0441 24.5687 32.0441 25.229V25.229Z" fill="#589442"/>
<path fill-rule="evenodd" clip-rule="evenodd" d="M16.621 28.792C14.684 28.792 13.1074 27.1956 13.1074 25.2289C13.1074 23.2666 14.684 21.6712 16.621 21.6702C18.5528 21.6702 20.1293 23.2677 20.1293 25.2289C20.1293 27.1956 18.5538 28.792 16.621 28.792ZM16.6232 22.8965C15.3538 22.8965 14.3181 23.9431 14.3181 25.2289C14.3181 26.5202 15.3538 27.5679 16.6232 27.5668C17.8904 27.5668 18.9208 26.5191 18.9208 25.2289C18.9208 23.9442 17.8904 22.8965 16.6232 22.8965Z" fill="black"/>
<path fill-rule="evenodd" clip-rule="evenodd" d="M30.865 28.792C28.9279 28.792 27.3535 27.1956 27.3535 25.2289C27.3535 23.2666 28.929 21.6712 30.865 21.6702C32.7988 21.6702 34.3722 23.2677 34.3722 25.2289C34.3722 27.1956 32.7988 28.792 30.865 28.792ZM30.8671 22.8965C29.5967 22.8965 28.5642 23.9431 28.5642 25.2289C28.5642 26.5202 29.5956 27.5679 30.8671 27.5668C32.1343 27.5668 33.1636 26.5191 33.1636 25.2289C33.1636 23.9442 32.1343 22.8965 30.8671 22.8965Z" fill="black"/>
<path d="M28.4163 18.5541C29.1565 18.277 29.9139 18.1428 30.6616 18.1222C28.6243 17.1957 26.3181 16.7271 23.7635 16.7271C21.228 16.7271 18.8888 17.2076 16.8525 18.0897C20.5379 18.1644 23.5341 21.0933 23.7923 24.7841C23.8552 23.9366 24.0589 23.0989 24.4195 22.3055C25.2141 20.5521 26.6349 19.2208 28.4163 18.5541V18.5541Z" fill="#FFD881"/>
<path fill-rule="evenodd" clip-rule="evenodd" d="M33.2391 18.1363L37.9847 18.1395C37.9847 18.1395 36.9265 19.5888 36.5937 21.0359C36.9841 21.5717 37.3105 22.1669 37.5495 22.8239C38.9095 26.5505 37.0215 30.71 33.3436 32.091C31.5633 32.7578 29.6295 32.6798 27.9036 31.8746C26.8657 31.3853 25.9804 30.6677 25.2945 29.7824L23.7692 32.1029L22.2556 29.8029C20.9521 31.4492 18.9543 32.5088 16.7132 32.5088C12.7932 32.5088 9.60388 29.2737 9.60388 25.2971C9.60388 23.705 10.118 22.2373 10.9831 21.0445C10.6449 19.6072 9.59961 18.1741 9.59961 18.1741L14.0476 18.1709C16.694 16.4153 20.0497 15.4683 23.766 15.4683C27.3468 15.4683 30.5777 16.3926 33.2391 18.1363ZM30.6631 18.1222C28.6257 17.1957 26.3196 16.727 23.7649 16.727C21.2284 16.727 18.8892 17.2065 16.854 18.0886C20.5393 18.1644 23.5356 21.0933 23.7959 24.783C23.8588 23.9355 24.0625 23.0978 24.4231 22.3044C25.2156 20.5521 26.6364 19.2208 28.4177 18.554C29.158 18.278 29.9143 18.1428 30.6631 18.1222ZM21.4097 28.5204C20.3889 30.0476 18.6631 31.0541 16.7111 31.0541C13.5815 31.0541 11.0353 28.4684 11.0353 25.2982C11.0353 22.1215 13.5825 19.5401 16.7111 19.5401C19.8396 19.5401 22.3857 22.1215 22.3857 25.2982C22.3857 25.4289 22.3688 25.5546 22.3518 25.6801C22.3436 25.7407 22.3355 25.8012 22.3292 25.8621C22.2343 26.8362 21.926 27.7486 21.4097 28.5204ZM28.5041 30.553C29.8812 31.1981 31.4236 31.2576 32.8455 30.7262C35.7809 29.6222 37.2881 26.3069 36.2044 23.3294C35.1196 20.3508 31.8513 18.8225 28.9148 19.9211C27.4929 20.4536 26.3601 21.5175 25.7244 22.9149C25.2999 23.85 25.1569 24.862 25.2519 25.861C25.2988 26.3535 25.3852 26.8427 25.558 27.3168C25.7095 27.7357 25.9164 28.1199 26.1511 28.4814C26.7271 29.3743 27.5271 30.0941 28.5041 30.553Z" fill="black"/>
</svg>
