<svg width="48" height="48" viewBox="0 0 48 48" fill="none" xmlns="http://www.w3.org/2000/svg">
<path d="M24 0C37.2548 0 48 10.7452 48 24C48 37.2548 37.2548 48 24 48C10.7452 48 0 37.2548 0 24C0 10.7452 10.7452 0 24 0Z" fill="#7F4DA0"/>
<path d="M30.3939 20.9584C30.2771 20.0101 29.9857 19.2655 29.4681 18.6059C28.7959 17.7566 27.937 17.2481 26.6653 16.9464C25.8365 16.7453 25.5017 16.7684 25.202 17.0422C24.9228 17.2987 24.8683 17.8129 25.0816 18.146C25.2317 18.3877 25.4048 18.4742 25.8862 18.5687C26.5273 18.6867 26.9704 18.8398 27.3734 19.0702C28.2288 19.5642 28.6272 20.3371 28.6699 21.5885C28.6898 22.176 28.7405 22.3566 28.9458 22.565C29.3261 22.9459 30.003 22.8719 30.2902 22.416C30.3955 22.2442 30.4116 22.1694 30.4227 21.7705C30.4301 21.5235 30.4194 21.1558 30.3939 20.9584V20.9584Z" fill="white"/>
<path d="M33.7443 22.0277C33.5753 19.1224 32.439 16.7848 30.4052 15.1402C29.2593 14.2161 27.8742 13.5807 26.3559 13.2716C25.7998 13.1611 24.7758 13.0715 24.6001 13.1228C24.4344 13.1702 24.1999 13.3497 24.0954 13.512C23.9849 13.688 23.96 14.0811 24.0543 14.3084C24.2064 14.6884 24.4895 14.8227 25.2822 14.892C26.5043 14.9989 27.7648 15.4283 28.7173 16.064C29.8046 16.7877 30.6689 17.7776 31.2281 18.9408C31.7112 19.9402 32.0084 21.3805 32.0001 22.6703C31.9974 23.1368 32.0694 23.4002 32.257 23.5929C32.5402 23.889 32.9529 23.9538 33.3172 23.7571C33.7209 23.5447 33.8154 23.1721 33.7443 22.0277V22.0277Z" fill="white"/>
<path d="M37.4521 33.2164C37.3953 33.0503 37.2627 32.7941 37.1679 32.6471C36.5711 31.7458 33.3644 29.2363 31.7634 28.4155C30.8492 27.9459 30.1719 27.7894 29.6698 27.9364C29.1298 28.0883 28.8456 28.3396 27.9408 29.464C27.5762 29.9146 27.202 30.3369 27.1025 30.4032C26.8562 30.574 26.373 30.7116 26.032 30.7116C25.241 30.7068 23.8057 30.1945 22.7021 29.5209C21.8447 28.9991 20.7459 28.0646 19.9027 27.1395C18.908 26.0532 18.2307 25.0949 17.6954 24.0133C17.0039 22.6233 16.8286 21.7742 17.1175 21.1527C17.1886 20.9962 17.2833 20.8302 17.3259 20.7779C17.3686 20.7306 17.8138 20.3652 18.3064 19.9667C19.2727 19.1983 19.429 19.0228 19.609 18.4962C19.8364 17.8273 19.7748 17.1441 19.4243 16.4563C19.1543 15.9345 18.4485 14.796 17.937 14.0607C17.2596 13.093 15.5734 11.0246 15.237 10.7447C14.6307 10.2514 13.854 10.1659 12.9966 10.4981C12.0919 10.8491 10.3962 12.2153 9.67143 13.1688C9.01776 14.0322 8.7668 14.6441 8.72887 15.4506C8.69574 16.1147 8.75255 16.3899 9.10308 17.239C11.8456 23.8994 15.9381 29.2173 21.5606 33.4394C24.4973 35.6452 27.543 37.3246 30.7023 38.4726C32.5449 39.1415 33.3454 39.1746 34.288 38.6244C34.6859 38.3872 35.6711 37.3767 36.2205 36.6415C37.13 35.4175 37.4663 34.853 37.561 34.4023C37.6274 34.094 37.5753 33.558 37.4521 33.2164V33.2164Z" fill="white"/>
<path d="M37.1557 22.695C37.095 21.0516 36.8183 19.7035 36.2413 18.2006C35.6717 16.7222 35.0952 15.7575 34.0064 14.4527C32.977 13.2293 32.1775 12.5307 30.9095 11.7531C29.1404 10.6697 26.9874 9.95278 24.5746 9.65126C23.7517 9.54588 23.5656 9.55341 23.3132 9.72185C22.824 10.0409 22.8305 10.8368 23.3212 11.1511C23.4837 11.2511 23.6278 11.2875 24.286 11.3737C25.2964 11.5097 25.9461 11.6379 26.717 11.8482C29.74 12.6746 32.0647 14.3638 33.6189 16.8712C34.9195 18.9612 35.4594 21.0514 35.3827 23.7208C35.3561 24.6233 35.3754 24.7821 35.5134 24.9989C35.7776 25.4031 36.4743 25.483 36.8317 25.1477C37.0541 24.9433 37.096 24.7898 37.1398 24.0174C37.1608 23.6145 37.1653 23.0197 37.1557 22.695V22.695Z" fill="white"/>
</svg>
