<svg width="48" height="48" viewBox="0 0 48 48" fill="none" xmlns="http://www.w3.org/2000/svg">
<path d="M24 48C37.2548 48 48 37.2548 48 24C48 10.7452 37.2548 0 24 0C10.7452 0 0 10.7452 0 24C0 37.2548 10.7452 48 24 48Z" fill="white"/>
<path fill-rule="evenodd" clip-rule="evenodd" d="M24.5054 23.0741C24.489 24.3775 25.6577 25.1048 26.538 25.5373C27.4425 25.981 27.7463 26.2655 27.7429 26.6622C27.736 27.2695 27.0213 27.5375 26.3524 27.548C25.2171 27.5657 24.5442 27.2483 24.0118 26.9971L23.9677 26.9763L23.5474 28.9592C24.0886 29.2106 25.0906 29.4299 26.1298 29.4395C28.5688 29.4395 30.1647 28.2257 30.1733 26.3438C30.179 24.915 29.005 24.2937 28.0656 23.7965C27.4347 23.4625 26.9096 23.1846 26.9186 22.7557C26.9264 22.432 27.2328 22.0866 27.9043 21.9987C28.2365 21.9544 29.154 21.9204 30.194 22.4033L30.6022 20.4849C30.043 20.2795 29.324 20.0829 28.429 20.0829C26.1332 20.0829 24.5184 21.3131 24.5054 23.0741ZM34.5249 20.2482C34.0796 20.2482 33.7042 20.5101 33.5367 20.9121L30.0525 29.2985H32.4898L32.9749 27.9473H35.9533L36.2347 29.2985H38.3829L36.5083 20.2482H34.5249ZM35.5693 26.0915L34.8659 22.6931L33.6429 26.0915H35.5693ZM21.5503 20.2482L19.629 29.2985H21.9516L23.8719 20.2482H21.5503ZM15.6969 26.4082L18.1143 20.2482H20.5534L16.7904 29.2985H14.3358L12.4836 22.0762C12.3714 21.6316 12.2739 21.468 11.9321 21.281C11.3737 20.9747 10.4519 20.6884 9.64062 20.511L9.69586 20.2482H13.6479C14.1511 20.2482 14.6042 20.5858 14.719 21.1705L15.6969 26.4082Z" fill="url(#paint0_linear)"/>
<defs>
<linearGradient id="paint0_linear" x1="9.69072" y1="22.9607" x2="17.815" y2="11.5188" gradientUnits="userSpaceOnUse">
<stop stop-color="#222357"/>
<stop offset="1" stop-color="#254AA5"/>
</linearGradient>
</defs>
</svg>
