<svg width="49" height="49" viewBox="0 0 49 49" fill="none" xmlns="http://www.w3.org/2000/svg">
<path fill-rule="evenodd" clip-rule="evenodd" d="M17.5327 0.899902H32.2681C45.7162 0.899902 48.9004 4.08409 48.9004 17.5322V32.2676C48.9004 45.7157 45.7162 48.8999 32.2681 48.8999H17.5327C4.08458 48.8999 0.900391 45.7157 0.900391 32.2676V17.5322C0.900391 4.08409 4.08458 0.899902 17.5327 0.899902Z" fill="#4680C2"/>
<path fill-rule="evenodd" clip-rule="evenodd" d="M40.1941 17.4307C40.4312 16.6855 40.1941 16.1435 39.144 16.1435H35.6549C34.7742 16.1435 34.3677 16.6177 34.1306 17.1259C34.1306 17.1259 32.3352 21.4618 29.8285 24.2733C29.0155 25.0863 28.6429 25.3573 28.2026 25.3573C27.9654 25.3573 27.6606 25.0863 27.6606 24.3411V17.3968C27.6606 16.5161 27.3896 16.1096 26.6443 16.1096H21.1567C20.6147 16.1096 20.276 16.5161 20.276 16.9226C20.276 17.7695 21.5293 17.9727 21.6648 20.3439V25.4928C21.6648 26.6107 21.4616 26.8139 21.0212 26.8139C19.8356 26.8139 16.9563 22.4441 15.2287 17.4646C14.8899 16.4822 14.5512 16.1096 13.6705 16.1096H10.1475C9.13129 16.1096 8.96191 16.5839 8.96191 17.092C8.96191 18.0066 10.1475 22.6135 14.4834 28.7109C17.3628 32.8774 21.4616 35.1131 25.1539 35.1131C27.3896 35.1131 27.6606 34.605 27.6606 33.7582V30.6079C27.6606 29.5916 27.8638 29.4223 28.5752 29.4223C29.0833 29.4223 29.9979 29.6932 32.0642 31.6918C34.4354 34.063 34.8419 35.147 36.163 35.147H39.6521C40.6683 35.147 41.1426 34.6389 40.8716 33.6565C40.5667 32.6742 39.415 31.2515 37.9245 29.5577C37.1115 28.6093 35.892 27.5592 35.5194 27.051C35.0113 26.3736 35.1468 26.1026 35.5194 25.4928C35.4856 25.4928 39.7537 19.4632 40.1941 17.4307Z" fill="white"/>
</svg>
