<svg width="48" height="48" viewBox="0 0 48 48" fill="none" xmlns="http://www.w3.org/2000/svg">
<path d="M0 24C0 10.7452 10.7452 0 24 0C37.2548 0 48 10.7452 48 24C48 37.2548 37.2548 48 24 48C10.7452 48 0 37.2548 0 24Z" fill="white"/>
<path d="M12 24.1823C12 29.0279 14.9383 33.216 19.2 35.2L13.1062 19.2C12.3974 20.7224 12 22.4074 12 24.1823" fill="#3E3D3A"/>
<path d="M31.997 23.764C31.997 22.2324 31.4562 21.1724 30.9929 20.3472C30.3757 19.3262 29.7965 18.4626 29.7965 17.4416C29.7965 16.3029 30.6454 15.2428 31.8418 15.2428C31.8958 15.2428 31.947 15.2494 31.9996 15.2527C29.8328 13.2332 26.946 12 23.7754 12C19.5203 12 15.7773 14.2209 13.5996 17.584C13.8856 17.5934 14.1549 17.599 14.3834 17.599C15.657 17.599 17.6293 17.4416 17.6293 17.4416C18.2855 17.4025 18.3631 18.3835 17.7073 18.4626C17.7073 18.4626 17.0472 18.541 16.3134 18.5802L20.7482 32L23.4138 23.8689L21.5165 18.5802C20.8603 18.541 20.239 18.4626 20.239 18.4626C19.5827 18.4231 19.6596 17.4025 20.3163 17.4416C20.3163 17.4416 22.3273 17.599 23.5239 17.599C24.7973 17.599 26.77 17.4416 26.77 17.4416C27.4265 17.4025 27.5039 18.3835 26.8477 18.4626C26.8477 18.4626 26.187 18.541 25.4539 18.5802L29.8553 31.8978L31.0703 27.769C31.5961 26.0546 31.997 24.8242 31.997 23.764" fill="#3E3D3A"/>
<path d="M24.3151 24.8L20.7998 35.5C21.8496 35.8234 22.9596 36 24.1094 36C25.4736 36 26.7822 35.7533 27.9998 35.3044C27.9686 35.2517 27.9395 35.1959 27.9158 35.1352L24.3151 24.8Z" fill="#3E3D3A"/>
<path d="M35.2239 18.3999C35.2792 18.798 35.3105 19.2251 35.3105 19.6852C35.3105 20.953 35.0659 22.3789 34.3317 24.162L30.4004 35.1999C34.227 33.0334 36.8004 29.0075 36.8004 24.3962C36.8004 22.2231 36.2287 20.1801 35.2239 18.3999" fill="#3E3D3A"/>
<path fill-rule="evenodd" clip-rule="evenodd" d="M9.59961 23.9997C9.59961 16.0596 16.0593 9.6001 23.9995 9.6001C31.9397 9.6001 38.3996 16.0596 38.3996 23.9997C38.3996 31.9403 31.9397 38.4001 23.9995 38.4001C16.0593 38.4001 9.59961 31.9403 9.59961 23.9997ZM10.26 23.9997C10.26 31.5758 16.4236 37.7399 23.9995 37.7399C31.5753 37.7399 37.7391 31.5758 37.7391 23.9997C37.7391 16.4239 31.5753 10.2605 23.9995 10.2605C16.4236 10.2605 10.26 16.4239 10.26 23.9997Z" fill="#3E3D3A"/>
</svg>
