<svg width="48" height="48" viewBox="0 0 48 48" fill="none" xmlns="http://www.w3.org/2000/svg">
<path d="M0 24C0 10.7452 10.7452 0 24 0C37.2548 0 48 10.7452 48 24C48 37.2548 37.2548 48 24 48C10.7452 48 0 37.2548 0 24Z" fill="white"/>
<path fill-rule="evenodd" clip-rule="evenodd" d="M19.118 12.9402C20.2899 13.2574 21.8604 13.8791 22.6081 14.3218C23.5347 14.8704 23.9369 15.1196 24.3259 15.1004C24.6527 15.0843 24.9701 14.8789 25.5812 14.5025C27.1062 13.5632 30.9154 12.4092 31.7897 12.6216C32.1822 12.717 31.5292 12.3154 30.3385 11.7291C27.2792 10.2228 23.1731 9.97707 19.7039 11.0926C18.3784 11.5188 17.225 11.9791 17.1407 12.1155C17.0564 12.2519 17.9462 12.623 19.118 12.9402ZM35.8101 32.3647C35.7718 29.5904 33.6007 25.3986 29.6702 20.5101L27.7701 18.1469L29.4736 16.5837C30.4106 15.7238 31.742 14.7179 32.4323 14.3482L33.6874 13.676L35.0777 15.0311C35.8424 15.7763 36.9588 17.3807 37.5586 18.5964C38.4984 20.501 38.6654 21.241 38.7666 23.9471C38.9023 27.5765 38.3498 29.9196 36.8192 32.2067L35.8283 33.6871L35.8101 32.3647H35.8101ZM10.2759 20.1418C8.92899 23.688 9.65464 29.1505 11.9133 32.4678C12.8037 33.7755 13.0064 33.9096 12.7177 33C12.1455 31.1973 15.1028 25.2621 18.9426 20.5067L20.8535 18.1402L19.0691 16.5419C18.0876 15.6629 16.767 14.6649 16.1343 14.3242C15.0698 13.7509 14.9216 13.7456 14.1478 14.2526C13.0765 14.9545 11.1101 17.9455 10.2759 20.1418ZM13.554 33.9314C13.554 35.2706 17.4167 37.7515 20.8806 38.6369C24.571 39.5802 29.7462 38.5725 32.9112 36.2945C35.5354 34.4057 35.6236 33.7398 33.6454 30.7533C32.4262 28.9126 26.9766 23.268 25.2734 22.0817L24.1892 21.3266L21.7717 23.4124C17.4744 27.1202 13.554 32.1384 13.554 33.9314Z" fill="#7EB900"/>
</svg>
