<svg width="48" height="48" viewBox="0 0 48 48" fill="none" xmlns="http://www.w3.org/2000/svg">
<path d="M0 24C0 10.7452 10.7452 0 24 0C37.2548 0 48 10.7452 48 24C48 37.2548 37.2548 48 24 48C10.7452 48 0 37.2548 0 24Z" fill="#9DBC7A"/>
<path d="M13.8491 27.9641C13.6379 28.2045 13.6033 28.5969 13.6033 28.5969V30.89C13.6033 30.9174 13.6009 31.0862 13.5996 31.2671C13.6737 31.6517 13.851 31.7293 13.9527 31.7421H14.8469C17.0679 31.7421 18.9613 31.8003 21.0134 32.8174C22.5898 33.5982 23.8924 34.8486 25.4281 35.7184C26.8841 36.5428 28.5463 37.4079 30.2515 37.6023C33.684 37.9931 35.0635 33.9959 34.4923 31.4038C32.9632 32.591 30.8302 32.5605 28.8755 32.0448C27.0356 31.4534 24.1083 29.6178 24.1083 29.6178V29.6187C22.7957 28.8283 21.2536 28.1755 19.7055 28.2431C19.7055 27.5692 19.7257 27.5436 20.1507 27.0681C20.7356 26.4159 21.3201 25.7629 21.905 25.1101C23.7446 23.0556 25.5849 21.002 27.4245 18.9478C28.9903 17.1997 30.5558 15.4519 32.1213 13.7036C32.2713 13.5366 32.8235 13.1069 32.8512 12.8761C32.9464 12.0822 33.0416 11.2884 33.1371 10.4946C33.2037 9.94425 32.6107 10.0763 32.6107 10.0763L32.6097 10.0735C30.0705 10.5709 27.4615 10.8303 24.8733 10.716C23.4335 10.6528 21.9181 10.5204 20.5663 10.0025C20.5175 9.98381 20.2313 9.84304 19.9628 9.70134C19.5736 9.507 19.3122 9.63251 19.1741 9.74525C19.0649 9.87636 18.9495 10.0025 18.8465 10.1373C18.1661 11.0318 17.5333 12.0829 17.4179 13.2056C17.3917 13.456 17.3597 13.9842 17.5025 14.3021L17.5016 14.3024C17.5016 14.3024 17.5171 14.3411 17.5601 14.4027C17.5675 14.4124 17.5731 14.4233 17.5809 14.432C17.9048 14.863 19.3965 16.1601 25.2218 15.0352C21.4312 19.3448 17.6403 23.6538 13.8497 27.9631C13.8491 27.9634 13.8491 27.9634 13.8491 27.9641" fill="white"/>
</svg>
